%TF.GenerationSoftware,KiCad,Pcbnew,9.0.7*%
%TF.CreationDate,2026-03-26T20:28:18-04:00*%
%TF.ProjectId,Mixer,4d697865-722e-46b6-9963-61645f706362,rev?*%
%TF.SameCoordinates,Original*%
%TF.FileFunction,Copper,L1,Top*%
%TF.FilePolarity,Positive*%
%FSLAX46Y46*%
G04 Gerber Fmt 4.6, Leading zero omitted, Abs format (unit mm)*
G04 Created by KiCad (PCBNEW 9.0.7) date 2026-03-26 20:28:18*
%MOMM*%
%LPD*%
G01*
G04 APERTURE LIST*
G04 Aperture macros list*
%AMRoundRect*
0 Rectangle with rounded corners*
0 $1 Rounding radius*
0 $2 $3 $4 $5 $6 $7 $8 $9 X,Y pos of 4 corners*
0 Add a 4 corners polygon primitive as box body*
4,1,4,$2,$3,$4,$5,$6,$7,$8,$9,$2,$3,0*
0 Add four circle primitives for the rounded corners*
1,1,$1+$1,$2,$3*
1,1,$1+$1,$4,$5*
1,1,$1+$1,$6,$7*
1,1,$1+$1,$8,$9*
0 Add four rect primitives between the rounded corners*
20,1,$1+$1,$2,$3,$4,$5,0*
20,1,$1+$1,$4,$5,$6,$7,0*
20,1,$1+$1,$6,$7,$8,$9,0*
20,1,$1+$1,$8,$9,$2,$3,0*%
%AMRotRect*
0 Rectangle, with rotation*
0 The origin of the aperture is its center*
0 $1 length*
0 $2 width*
0 $3 Rotation angle, in degrees counterclockwise*
0 Add horizontal line*
21,1,$1,$2,0,0,$3*%
G04 Aperture macros list end*
%TA.AperFunction,SMDPad,CuDef*%
%ADD10RoundRect,0.155000X-0.040659X-0.259862X0.259862X0.040659X0.040659X0.259862X-0.259862X-0.040659X0*%
%TD*%
%TA.AperFunction,SMDPad,CuDef*%
%ADD11R,5.600000X1.500000*%
%TD*%
%TA.AperFunction,SMDPad,CuDef*%
%ADD12R,4.900000X1.600000*%
%TD*%
%TA.AperFunction,SMDPad,CuDef*%
%ADD13RoundRect,0.237500X0.380070X-0.044194X-0.044194X0.380070X-0.380070X0.044194X0.044194X-0.380070X0*%
%TD*%
%TA.AperFunction,SMDPad,CuDef*%
%ADD14R,0.300000X0.310000*%
%TD*%
%TA.AperFunction,SMDPad,CuDef*%
%ADD15RoundRect,0.155000X-0.259862X0.040659X0.040659X-0.259862X0.259862X-0.040659X-0.040659X0.259862X0*%
%TD*%
%TA.AperFunction,SMDPad,CuDef*%
%ADD16RotRect,0.450000X1.400000X135.000000*%
%TD*%
%TA.AperFunction,SMDPad,CuDef*%
%ADD17RotRect,1.830000X2.260000X45.000000*%
%TD*%
%TA.AperFunction,SMDPad,CuDef*%
%ADD18R,0.800000X0.350000*%
%TD*%
%TA.AperFunction,SMDPad,CuDef*%
%ADD19R,1.750000X2.500000*%
%TD*%
%TA.AperFunction,SMDPad,CuDef*%
%ADD20RoundRect,0.237500X-0.344715X0.008839X0.008839X-0.344715X0.344715X-0.008839X-0.008839X0.344715X0*%
%TD*%
%TA.AperFunction,SMDPad,CuDef*%
%ADD21R,1.500000X5.600000*%
%TD*%
%TA.AperFunction,SMDPad,CuDef*%
%ADD22R,1.600000X4.900000*%
%TD*%
%TA.AperFunction,SMDPad,CuDef*%
%ADD23RoundRect,0.155000X0.259862X-0.040659X-0.040659X0.259862X-0.259862X0.040659X0.040659X-0.259862X0*%
%TD*%
%TA.AperFunction,ComponentPad*%
%ADD24C,2.600000*%
%TD*%
%TA.AperFunction,ConnectorPad*%
%ADD25C,4.400000*%
%TD*%
%TA.AperFunction,SMDPad,CuDef*%
%ADD26RoundRect,0.155000X0.155000X-0.212500X0.155000X0.212500X-0.155000X0.212500X-0.155000X-0.212500X0*%
%TD*%
%TA.AperFunction,SMDPad,CuDef*%
%ADD27RoundRect,0.155000X0.040659X0.259862X-0.259862X-0.040659X-0.040659X-0.259862X0.259862X0.040659X0*%
%TD*%
%TA.AperFunction,SMDPad,CuDef*%
%ADD28R,1.200000X1.400000*%
%TD*%
%TA.AperFunction,SMDPad,CuDef*%
%ADD29RoundRect,0.237500X-0.250000X-0.237500X0.250000X-0.237500X0.250000X0.237500X-0.250000X0.237500X0*%
%TD*%
%TA.AperFunction,SMDPad,CuDef*%
%ADD30R,1.150000X0.600000*%
%TD*%
%TA.AperFunction,SMDPad,CuDef*%
%ADD31R,1.150000X0.300000*%
%TD*%
%TA.AperFunction,SMDPad,CuDef*%
%ADD32R,2.000000X2.180000*%
%TD*%
%TA.AperFunction,SMDPad,CuDef*%
%ADD33RoundRect,0.155000X-0.212500X-0.155000X0.212500X-0.155000X0.212500X0.155000X-0.212500X0.155000X0*%
%TD*%
%TA.AperFunction,SMDPad,CuDef*%
%ADD34RoundRect,0.155000X0.212500X0.155000X-0.212500X0.155000X-0.212500X-0.155000X0.212500X-0.155000X0*%
%TD*%
%TA.AperFunction,SMDPad,CuDef*%
%ADD35RoundRect,0.237500X0.237500X-0.300000X0.237500X0.300000X-0.237500X0.300000X-0.237500X-0.300000X0*%
%TD*%
%TA.AperFunction,SMDPad,CuDef*%
%ADD36RoundRect,0.237500X0.237500X-0.250000X0.237500X0.250000X-0.237500X0.250000X-0.237500X-0.250000X0*%
%TD*%
%TA.AperFunction,SMDPad,CuDef*%
%ADD37RoundRect,0.237500X-0.044194X-0.380070X0.380070X0.044194X0.044194X0.380070X-0.380070X-0.044194X0*%
%TD*%
%TA.AperFunction,SMDPad,CuDef*%
%ADD38R,0.350000X0.850000*%
%TD*%
%TA.AperFunction,SMDPad,CuDef*%
%ADD39R,0.850000X0.350000*%
%TD*%
%TA.AperFunction,SMDPad,CuDef*%
%ADD40R,3.350000X3.350000*%
%TD*%
%TA.AperFunction,SMDPad,CuDef*%
%ADD41RotRect,0.850000X1.200000X45.000000*%
%TD*%
%TA.AperFunction,SMDPad,CuDef*%
%ADD42RoundRect,0.237500X0.344715X-0.008839X-0.008839X0.344715X-0.344715X0.008839X0.008839X-0.344715X0*%
%TD*%
%TA.AperFunction,SMDPad,CuDef*%
%ADD43R,0.950000X0.850000*%
%TD*%
%TA.AperFunction,SMDPad,CuDef*%
%ADD44RoundRect,0.237500X-0.237500X0.300000X-0.237500X-0.300000X0.237500X-0.300000X0.237500X0.300000X0*%
%TD*%
%TA.AperFunction,SMDPad,CuDef*%
%ADD45RotRect,0.450000X1.400000X45.000000*%
%TD*%
%TA.AperFunction,SMDPad,CuDef*%
%ADD46RotRect,1.830000X2.260000X315.000000*%
%TD*%
%TA.AperFunction,SMDPad,CuDef*%
%ADD47RotRect,0.300000X0.900000X135.000000*%
%TD*%
%TA.AperFunction,SMDPad,CuDef*%
%ADD48RotRect,0.300000X0.900000X45.000000*%
%TD*%
%TA.AperFunction,SMDPad,CuDef*%
%ADD49RotRect,4.600000X4.600000X45.000000*%
%TD*%
%TA.AperFunction,ViaPad*%
%ADD50C,0.400000*%
%TD*%
%TA.AperFunction,ViaPad*%
%ADD51C,0.480000*%
%TD*%
%TA.AperFunction,ViaPad*%
%ADD52C,1.000000*%
%TD*%
%TA.AperFunction,Conductor*%
%ADD53C,0.250000*%
%TD*%
%TA.AperFunction,Conductor*%
%ADD54C,0.400000*%
%TD*%
%TA.AperFunction,Conductor*%
%ADD55C,0.500000*%
%TD*%
%TA.AperFunction,Conductor*%
%ADD56C,0.200000*%
%TD*%
%TA.AperFunction,Conductor*%
%ADD57C,1.000000*%
%TD*%
%TA.AperFunction,Conductor*%
%ADD58C,0.201700*%
%TD*%
%TA.AperFunction,Conductor*%
%ADD59C,0.179700*%
%TD*%
%TA.AperFunction,Conductor*%
%ADD60C,0.080000*%
%TD*%
%TA.AperFunction,Conductor*%
%ADD61C,0.150000*%
%TD*%
G04 APERTURE END LIST*
D10*
%TO.P,C26,1*%
%TO.N,Net-(Y1-X2)*%
X91434644Y-153366904D03*
%TO.P,C26,2*%
%TO.N,Net-(IC2-OSCINM)*%
X92237210Y-152564338D03*
%TD*%
D11*
%TO.P,J3,1,1*%
%TO.N,/RF_RFOUT2*%
X128980000Y-153970000D03*
D12*
%TO.P,J3,2,2*%
%TO.N,GND*%
X129330000Y-158230000D03*
%TO.P,J3,3,3*%
X129330000Y-149710000D03*
%TD*%
D10*
%TO.P,C9,1*%
%TO.N,+3V3*%
X96968717Y-139401283D03*
%TO.P,C9,2*%
%TO.N,GND*%
X97771283Y-138598717D03*
%TD*%
%TO.P,C1,1*%
%TO.N,+3V3*%
X98115672Y-142216308D03*
%TO.P,C1,2*%
%TO.N,GND*%
X98918238Y-141413742D03*
%TD*%
D13*
%TO.P,C23,1*%
%TO.N,Net-(IC2-VREFVCO)*%
X88289880Y-137869880D03*
%TO.P,C23,2*%
%TO.N,GND*%
X87070120Y-136650120D03*
%TD*%
D14*
%TO.P,D2,1,1*%
%TO.N,/USB_DN*%
X64650000Y-144495000D03*
%TO.P,D2,2,2*%
%TO.N,GND*%
X64650000Y-144065000D03*
%TD*%
%TO.P,D1,1,1*%
%TO.N,/USB_DP*%
X64650000Y-145985000D03*
%TO.P,D1,2,2*%
%TO.N,GND*%
X64650000Y-146415000D03*
%TD*%
D10*
%TO.P,C3,1*%
%TO.N,Net-(IC1-RF)*%
X116522166Y-131795105D03*
%TO.P,C3,2*%
%TO.N,/RF_RFOUT1*%
X117324732Y-130992539D03*
%TD*%
D15*
%TO.P,C10,1*%
%TO.N,+3V3*%
X95918717Y-146618717D03*
%TO.P,C10,2*%
%TO.N,GND*%
X96721283Y-147421283D03*
%TD*%
%TO.P,C13,1*%
%TO.N,Net-(IC3-RF)*%
X118182532Y-153182532D03*
%TO.P,C13,2*%
%TO.N,/RF_RFOUT2*%
X118985098Y-153985098D03*
%TD*%
D16*
%TO.P,IC1,1,LO*%
%TO.N,/RF_LO1*%
X112139872Y-136410745D03*
%TO.P,IC1,2,GND_1*%
%TO.N,GND*%
X112599491Y-136870364D03*
%TO.P,IC1,3,GND_2*%
X113059111Y-137329984D03*
%TO.P,IC1,4,NIC*%
%TO.N,unconnected-(IC1-NIC-Pad4)*%
X113518730Y-137789603D03*
%TO.P,IC1,5,IF*%
%TO.N,Net-(IC1-IF)*%
X116630000Y-134678333D03*
%TO.P,IC1,6,GND_3*%
%TO.N,GND*%
X116170381Y-134218714D03*
%TO.P,IC1,7,GND_4*%
X115710761Y-133759094D03*
%TO.P,IC1,8,RF*%
%TO.N,Net-(IC1-RF)*%
X115251142Y-133299475D03*
D17*
%TO.P,IC1,9,EP*%
%TO.N,GND*%
X114384936Y-135544539D03*
%TD*%
D18*
%TO.P,IC4,1,OUT*%
%TO.N,+3V3*%
X77230000Y-142860000D03*
%TO.P,IC4,2,NC_1*%
%TO.N,unconnected-(IC4-NC_1-Pad2)*%
X77230000Y-142210000D03*
%TO.P,IC4,3,FB*%
%TO.N,Net-(IC4-FB)*%
X77230000Y-141560000D03*
%TO.P,IC4,4,GND*%
%TO.N,GND*%
X77230000Y-140910000D03*
%TO.P,IC4,5,EN*%
%TO.N,+5V*%
X74230000Y-140910000D03*
%TO.P,IC4,6,PG*%
%TO.N,/PG*%
X74230000Y-141560000D03*
%TO.P,IC4,7,NC_2*%
%TO.N,unconnected-(IC4-NC_2-Pad7)*%
X74230000Y-142210000D03*
%TO.P,IC4,8,IN*%
%TO.N,+5V*%
X74230000Y-142860000D03*
D19*
%TO.P,IC4,9,EP*%
%TO.N,GND*%
X75730000Y-141885000D03*
%TD*%
D15*
%TO.P,C24,1*%
%TO.N,Net-(IC2-VREGIN)*%
X91728717Y-148168717D03*
%TO.P,C24,2*%
%TO.N,GND*%
X92531283Y-148971283D03*
%TD*%
D20*
%TO.P,R3,1*%
%TO.N,Net-(IC2-CPOUT)*%
X98674765Y-147284765D03*
%TO.P,R3,2*%
%TO.N,Net-(IC2-VTUNE)*%
X99965235Y-148575235D03*
%TD*%
D21*
%TO.P,J4,1,1*%
%TO.N,/RF_IF2*%
X117270000Y-165699999D03*
D22*
%TO.P,J4,2,2*%
%TO.N,GND*%
X113010000Y-166049999D03*
%TO.P,J4,3,3*%
X121530000Y-166049999D03*
%TD*%
D23*
%TO.P,C17,1*%
%TO.N,Net-(C17-Pad1)*%
X97100000Y-151540000D03*
%TO.P,C17,2*%
%TO.N,GND*%
X96297434Y-150737434D03*
%TD*%
D10*
%TO.P,C27,1*%
%TO.N,Net-(Y1-X1)*%
X86237409Y-149824298D03*
%TO.P,C27,2*%
%TO.N,GND*%
X87039975Y-149021732D03*
%TD*%
D24*
%TO.P,H1,1,1*%
%TO.N,GND*%
X128050000Y-120940000D03*
D25*
X128050000Y-120940000D03*
%TD*%
D26*
%TO.P,C32,1*%
%TO.N,+3V3*%
X80480000Y-142967500D03*
%TO.P,C32,2*%
%TO.N,Net-(IC4-FB)*%
X80480000Y-141832500D03*
%TD*%
%TO.P,C31,1*%
%TO.N,+5V*%
X72770000Y-140507500D03*
%TO.P,C31,2*%
%TO.N,GND*%
X72770000Y-139372500D03*
%TD*%
D27*
%TO.P,C12,1*%
%TO.N,+3V3*%
X89878238Y-147123742D03*
%TO.P,C12,2*%
%TO.N,GND*%
X89075672Y-147926308D03*
%TD*%
D28*
%TO.P,Y2,1,CRYSTAL_1*%
%TO.N,Net-(IC5-OSC1)*%
X68950000Y-150960000D03*
%TO.P,Y2,2,GND_1*%
%TO.N,GND*%
X68950000Y-153160000D03*
%TO.P,Y2,3,CRYSTAL_2*%
%TO.N,Net-(IC5-OSC2)*%
X70650000Y-153160000D03*
%TO.P,Y2,4,GND_2*%
%TO.N,GND*%
X70650000Y-150960000D03*
%TD*%
D29*
%TO.P,R1,1*%
%TO.N,Net-(C5-Pad2)*%
X103307500Y-140720000D03*
%TO.P,R1,2*%
%TO.N,GND*%
X105132500Y-140720000D03*
%TD*%
D11*
%TO.P,J2,1,1*%
%TO.N,/RF_IF1*%
X128930000Y-132600000D03*
D12*
%TO.P,J2,2,2*%
%TO.N,GND*%
X129280000Y-136860000D03*
%TO.P,J2,3,3*%
X129280000Y-128340000D03*
%TD*%
D30*
%TO.P,J5,A1,GND_1*%
%TO.N,GND*%
X62405000Y-142050000D03*
%TO.P,J5,A4,VBUS_1*%
%TO.N,+5V*%
X62405000Y-142850000D03*
D31*
%TO.P,J5,A5,CC1*%
%TO.N,Net-(J5-CC1)*%
X62405000Y-144000000D03*
%TO.P,J5,A6,DP1*%
%TO.N,/USB_DP*%
X62405000Y-145000000D03*
%TO.P,J5,A7,DN1*%
%TO.N,/USB_DN*%
X62405000Y-145500000D03*
%TO.P,J5,A8,SBU1*%
%TO.N,unconnected-(J5-SBU1-PadA8)*%
X62405000Y-146500000D03*
D30*
%TO.P,J5,B1,GND_2*%
%TO.N,GND*%
X62405000Y-148450000D03*
%TO.P,J5,B4,VBUS_2*%
%TO.N,+5V*%
X62405000Y-147650000D03*
D31*
%TO.P,J5,B5,CC2*%
%TO.N,Net-(J5-CC2)*%
X62405000Y-147000000D03*
%TO.P,J5,B6,DP2*%
%TO.N,/USB_DP*%
X62405000Y-146000000D03*
%TO.P,J5,B7,DN2*%
%TO.N,/USB_DN*%
X62405000Y-144500000D03*
%TO.P,J5,B8,SBU2*%
%TO.N,unconnected-(J5-SBU2-PadB8)*%
X62405000Y-143500000D03*
D32*
%TO.P,J5,S1,S1*%
%TO.N,GND*%
X61830000Y-140140000D03*
%TO.P,J5,S2,S2*%
X61830000Y-150360000D03*
%TO.P,J5,S3,S3*%
X57900000Y-140140000D03*
%TO.P,J5,S4,S4*%
X57900000Y-150360000D03*
%TD*%
D33*
%TO.P,C5,1*%
%TO.N,Net-(IC2-RFOUTAM)*%
X100637500Y-140470000D03*
%TO.P,C5,2*%
%TO.N,Net-(C5-Pad2)*%
X101772500Y-140470000D03*
%TD*%
D13*
%TO.P,C18,1*%
%TO.N,Net-(IC2-VBIASVARAC)*%
X90129880Y-135969880D03*
%TO.P,C18,2*%
%TO.N,GND*%
X88910120Y-134750120D03*
%TD*%
D34*
%TO.P,C35,1*%
%TO.N,Net-(IC5-OSC2)*%
X70407500Y-155810000D03*
%TO.P,C35,2*%
%TO.N,GND*%
X69272500Y-155810000D03*
%TD*%
D23*
%TO.P,C8,1*%
%TO.N,+3V3*%
X88361283Y-139791283D03*
%TO.P,C8,2*%
%TO.N,GND*%
X87558717Y-138988717D03*
%TD*%
D27*
%TO.P,C4,1*%
%TO.N,/RF_IF1*%
X118908651Y-132576459D03*
%TO.P,C4,2*%
%TO.N,Net-(IC1-IF)*%
X118106085Y-133379025D03*
%TD*%
D35*
%TO.P,C30,1*%
%TO.N,+5V*%
X66850000Y-142822500D03*
%TO.P,C30,2*%
%TO.N,GND*%
X66850000Y-141097500D03*
%TD*%
D15*
%TO.P,C11,1*%
%TO.N,+3V3*%
X94278717Y-148148717D03*
%TO.P,C11,2*%
%TO.N,GND*%
X95081283Y-148951283D03*
%TD*%
D36*
%TO.P,R7,1*%
%TO.N,+3V3*%
X81870000Y-143052500D03*
%TO.P,R7,2*%
%TO.N,Net-(IC4-FB)*%
X81870000Y-141227500D03*
%TD*%
D29*
%TO.P,R8,1*%
%TO.N,Net-(LED1-K)*%
X72327500Y-145560000D03*
%TO.P,R8,2*%
%TO.N,GND*%
X74152500Y-145560000D03*
%TD*%
D37*
%TO.P,C21,1*%
%TO.N,Net-(IC2-VREFVCO2)*%
X95220120Y-137269880D03*
%TO.P,C21,2*%
%TO.N,GND*%
X96439880Y-136050120D03*
%TD*%
D38*
%TO.P,IC5,1,~{RST}*%
%TO.N,+3V3*%
X74480000Y-153490000D03*
%TO.P,IC5,2,GP0*%
%TO.N,/MUXOUT*%
X75130000Y-153490000D03*
%TO.P,IC5,3,GP1*%
%TO.N,/SYNC*%
X75780000Y-153490000D03*
%TO.P,IC5,4,GP2*%
%TO.N,/SYSREFREQ*%
X76430000Y-153490000D03*
%TO.P,IC5,5,GP3*%
%TO.N,/RAMPCLK*%
X77080000Y-153490000D03*
D39*
%TO.P,IC5,6,MOSI*%
%TO.N,/SDI*%
X78230000Y-152340000D03*
%TO.P,IC5,7,GP4*%
%TO.N,/RAMPDIR*%
X78230000Y-151690000D03*
%TO.P,IC5,8,SCK*%
%TO.N,/SCK*%
X78230000Y-151040000D03*
%TO.P,IC5,9,GP5*%
%TO.N,/CE*%
X78230000Y-150390000D03*
%TO.P,IC5,10,MISO*%
%TO.N,unconnected-(IC5-MISO-Pad10)*%
X78230000Y-149740000D03*
D38*
%TO.P,IC5,11,GP6*%
%TO.N,/CSB*%
X77080000Y-148590000D03*
%TO.P,IC5,12,GP7*%
%TO.N,unconnected-(IC5-GP7-Pad12)*%
X76430000Y-148590000D03*
%TO.P,IC5,13,GP8*%
%TO.N,unconnected-(IC5-GP8-Pad13)*%
X75780000Y-148590000D03*
%TO.P,IC5,14,VUSB*%
%TO.N,+3V3*%
X75130000Y-148590000D03*
%TO.P,IC5,15,D-*%
%TO.N,/USB_DN*%
X74480000Y-148590000D03*
D39*
%TO.P,IC5,16,D+*%
%TO.N,/USB_DP*%
X73330000Y-149740000D03*
%TO.P,IC5,17,VSS*%
%TO.N,GND*%
X73330000Y-150390000D03*
%TO.P,IC5,18,VDD*%
%TO.N,+3V3*%
X73330000Y-151040000D03*
%TO.P,IC5,19,OSC1*%
%TO.N,Net-(IC5-OSC1)*%
X73330000Y-151690000D03*
%TO.P,IC5,20,OSC2*%
%TO.N,Net-(IC5-OSC2)*%
X73330000Y-152340000D03*
D40*
%TO.P,IC5,21,EP*%
%TO.N,GND*%
X75780000Y-151040000D03*
%TD*%
D33*
%TO.P,C29,1*%
%TO.N,+3V3*%
X75112500Y-147060000D03*
%TO.P,C29,2*%
%TO.N,GND*%
X76247500Y-147060000D03*
%TD*%
D23*
%TO.P,C22,1*%
%TO.N,Net-(IC2-VREGVCO)*%
X87611283Y-140571283D03*
%TO.P,C22,2*%
%TO.N,GND*%
X86808717Y-139768717D03*
%TD*%
D10*
%TO.P,C19,1*%
%TO.N,Net-(IC2-VBIASVCO2)*%
X96238717Y-138661283D03*
%TO.P,C19,2*%
%TO.N,GND*%
X97041283Y-137858717D03*
%TD*%
D23*
%TO.P,C15,1*%
%TO.N,Net-(IC2-VTUNE)*%
X89390000Y-137110000D03*
%TO.P,C15,2*%
%TO.N,GND*%
X88587434Y-136307434D03*
%TD*%
D29*
%TO.P,R6,1*%
%TO.N,Net-(J5-CC1)*%
X61442500Y-136630000D03*
%TO.P,R6,2*%
%TO.N,GND*%
X63267500Y-136630000D03*
%TD*%
D24*
%TO.P,H3,1,1*%
%TO.N,GND*%
X59300000Y-165730000D03*
D25*
X59300000Y-165730000D03*
%TD*%
D27*
%TO.P,C28,1*%
%TO.N,Net-(Y1-X2)*%
X92166499Y-154303821D03*
%TO.P,C28,2*%
%TO.N,GND*%
X91363933Y-155106387D03*
%TD*%
D41*
%TO.P,Y1,1,X1*%
%TO.N,Net-(Y1-X1)*%
X88239581Y-151848393D03*
%TO.P,Y1,2,GND_1*%
%TO.N,GND*%
X89389337Y-152998149D03*
%TO.P,Y1,3,X2*%
%TO.N,Net-(Y1-X2)*%
X90237865Y-152149620D03*
%TO.P,Y1,4,GND_2*%
%TO.N,GND*%
X89088110Y-150999865D03*
%TD*%
D36*
%TO.P,R9,1*%
%TO.N,Net-(IC4-FB)*%
X81870000Y-139575000D03*
%TO.P,R9,2*%
%TO.N,GND*%
X81870000Y-137750000D03*
%TD*%
D42*
%TO.P,R4,1*%
%TO.N,Net-(C17-Pad1)*%
X98070000Y-150620000D03*
%TO.P,R4,2*%
%TO.N,Net-(IC2-CPOUT)*%
X96779530Y-149329530D03*
%TD*%
D27*
%TO.P,C20,1*%
%TO.N,Net-(IC2-VBIASVCO)*%
X88470738Y-145623742D03*
%TO.P,C20,2*%
%TO.N,GND*%
X87668172Y-146426308D03*
%TD*%
D23*
%TO.P,C7,1*%
%TO.N,Net-(C7-Pad1)*%
X102041283Y-146601283D03*
%TO.P,C7,2*%
%TO.N,Net-(IC2-RFOUTBM)*%
X101238717Y-145798717D03*
%TD*%
D43*
%TO.P,LED1,1,K*%
%TO.N,Net-(LED1-K)*%
X70312500Y-145430000D03*
%TO.P,LED1,2,A*%
%TO.N,/PG*%
X70312500Y-143830000D03*
%TD*%
D24*
%TO.P,H2,1,1*%
%TO.N,GND*%
X128050000Y-165730000D03*
D25*
X128050000Y-165730000D03*
%TD*%
D44*
%TO.P,C33,1*%
%TO.N,+3V3*%
X79100000Y-143155000D03*
%TO.P,C33,2*%
%TO.N,GND*%
X79100000Y-144880000D03*
%TD*%
D10*
%TO.P,C25,1*%
%TO.N,Net-(Y1-X1)*%
X87036439Y-150623330D03*
%TO.P,C25,2*%
%TO.N,Net-(IC2-OSCINP)*%
X87839005Y-149820764D03*
%TD*%
D29*
%TO.P,R5,1*%
%TO.N,Net-(J5-CC2)*%
X61442500Y-153870000D03*
%TO.P,R5,2*%
%TO.N,GND*%
X63267500Y-153870000D03*
%TD*%
D21*
%TO.P,J1,1,1*%
%TO.N,/RF_RFOUT1*%
X117310001Y-120941666D03*
D22*
%TO.P,J1,2,2*%
%TO.N,GND*%
X121570001Y-120591666D03*
%TO.P,J1,3,3*%
X113050001Y-120591666D03*
%TD*%
D23*
%TO.P,C16,1*%
%TO.N,/RF_IF2*%
X117316326Y-155653870D03*
%TO.P,C16,2*%
%TO.N,Net-(IC3-IF)*%
X116513760Y-154851304D03*
%TD*%
D45*
%TO.P,IC3,1,LO*%
%TO.N,/RF_LO2*%
X113616389Y-148948730D03*
%TO.P,IC3,2,GND_1*%
%TO.N,GND*%
X113156770Y-149408349D03*
%TO.P,IC3,3,GND_2*%
X112697150Y-149867969D03*
%TO.P,IC3,4,NIC*%
%TO.N,unconnected-(IC3-NIC-Pad4)*%
X112237531Y-150327588D03*
%TO.P,IC3,5,IF*%
%TO.N,Net-(IC3-IF)*%
X115348801Y-153438858D03*
%TO.P,IC3,6,GND_3*%
%TO.N,GND*%
X115808420Y-152979239D03*
%TO.P,IC3,7,GND_4*%
X116268040Y-152519619D03*
%TO.P,IC3,8,RF*%
%TO.N,Net-(IC3-RF)*%
X116727659Y-152060000D03*
D46*
%TO.P,IC3,9,EP*%
%TO.N,GND*%
X114482595Y-151193794D03*
%TD*%
D20*
%TO.P,R2,1*%
%TO.N,Net-(C7-Pad1)*%
X103164765Y-147684765D03*
%TO.P,R2,2*%
%TO.N,GND*%
X104455235Y-148975235D03*
%TD*%
D10*
%TO.P,C2,1*%
%TO.N,Net-(IC2-RFOUTAP)*%
X109825865Y-138632828D03*
%TO.P,C2,2*%
%TO.N,/RF_LO1*%
X110628431Y-137830262D03*
%TD*%
D24*
%TO.P,H4,1,1*%
%TO.N,GND*%
X59300000Y-120940000D03*
D25*
X59300000Y-120940000D03*
%TD*%
D33*
%TO.P,C34,1*%
%TO.N,Net-(IC5-OSC1)*%
X69292501Y-148350001D03*
%TO.P,C34,2*%
%TO.N,GND*%
X70427501Y-148350001D03*
%TD*%
D47*
%TO.P,IC2,1,CE*%
%TO.N,/CE*%
X89173045Y-143714975D03*
%TO.P,IC2,2,GND_1*%
%TO.N,GND*%
X89526598Y-144068528D03*
%TO.P,IC2,3,VBIASVCO*%
%TO.N,Net-(IC2-VBIASVCO)*%
X89880152Y-144422082D03*
%TO.P,IC2,4,GND_2*%
%TO.N,GND*%
X90233705Y-144775635D03*
%TO.P,IC2,5,SYNC*%
%TO.N,/SYNC*%
X90587258Y-145129188D03*
%TO.P,IC2,6,GND_3*%
%TO.N,GND*%
X90940812Y-145482742D03*
%TO.P,IC2,7,VCCDIG*%
%TO.N,+3V3*%
X91294365Y-145836295D03*
%TO.P,IC2,8,OSCINP*%
%TO.N,Net-(IC2-OSCINP)*%
X91647918Y-146189848D03*
%TO.P,IC2,9,OSCINM*%
%TO.N,Net-(IC2-OSCINM)*%
X92001472Y-146543402D03*
%TO.P,IC2,10,VREGIN*%
%TO.N,Net-(IC2-VREGIN)*%
X92355025Y-146896955D03*
D48*
%TO.P,IC2,11,VCCCP*%
%TO.N,+3V3*%
X93344975Y-146896955D03*
%TO.P,IC2,12,CPOUT*%
%TO.N,Net-(IC2-CPOUT)*%
X93698528Y-146543402D03*
%TO.P,IC2,13,GND_4*%
%TO.N,GND*%
X94052082Y-146189848D03*
%TO.P,IC2,14,GND_5*%
X94405635Y-145836295D03*
%TO.P,IC2,15,VCCMASH*%
%TO.N,+3V3*%
X94759188Y-145482742D03*
%TO.P,IC2,16,SCK*%
%TO.N,/SCK*%
X95112742Y-145129188D03*
%TO.P,IC2,17,SDI*%
%TO.N,/SDI*%
X95466295Y-144775635D03*
%TO.P,IC2,18,RFOUTBM*%
%TO.N,Net-(IC2-RFOUTBM)*%
X95819848Y-144422082D03*
%TO.P,IC2,19,RFOUTBP*%
%TO.N,Net-(IC2-RFOUTBP)*%
X96173402Y-144068528D03*
%TO.P,IC2,20,MUXOUT*%
%TO.N,/MUXOUT*%
X96526955Y-143714975D03*
D47*
%TO.P,IC2,21,VCCBUF*%
%TO.N,+3V3*%
X96526955Y-142725025D03*
%TO.P,IC2,22,RFOUTAM*%
%TO.N,Net-(IC2-RFOUTAM)*%
X96173402Y-142371472D03*
%TO.P,IC2,23,RFOUTAP*%
%TO.N,Net-(IC2-RFOUTAP)*%
X95819848Y-142017918D03*
%TO.P,IC2,24,CSB*%
%TO.N,/CSB*%
X95466295Y-141664365D03*
%TO.P,IC2,25,GND_6*%
%TO.N,GND*%
X95112742Y-141310812D03*
%TO.P,IC2,26,VCCVCO2*%
%TO.N,+3V3*%
X94759188Y-140957258D03*
%TO.P,IC2,27,VBIASVCO2*%
%TO.N,Net-(IC2-VBIASVCO2)*%
X94405635Y-140603705D03*
%TO.P,IC2,28,SYSREFREQ*%
%TO.N,/SYSREFREQ*%
X94052082Y-140250152D03*
%TO.P,IC2,29,VREFVCO2*%
%TO.N,Net-(IC2-VREFVCO2)*%
X93698528Y-139896598D03*
%TO.P,IC2,30,RAMPCLK*%
%TO.N,/RAMPCLK*%
X93344975Y-139543045D03*
D48*
%TO.P,IC2,31,GND_7*%
%TO.N,GND*%
X92355025Y-139543045D03*
%TO.P,IC2,32,RAMPDIR*%
%TO.N,/RAMPDIR*%
X92001472Y-139896598D03*
%TO.P,IC2,33,VBIASVARAC*%
%TO.N,Net-(IC2-VBIASVARAC)*%
X91647918Y-140250152D03*
%TO.P,IC2,34,GND_8*%
%TO.N,GND*%
X91294365Y-140603705D03*
%TO.P,IC2,35,VTUNE*%
%TO.N,Net-(IC2-VTUNE)*%
X90940812Y-140957258D03*
%TO.P,IC2,36,VREFVCO*%
%TO.N,Net-(IC2-VREFVCO)*%
X90587258Y-141310812D03*
%TO.P,IC2,37,VCCVCO*%
%TO.N,+3V3*%
X90233705Y-141664365D03*
%TO.P,IC2,38,VREGVCO*%
%TO.N,Net-(IC2-VREGVCO)*%
X89880152Y-142017918D03*
%TO.P,IC2,39,GND_9*%
%TO.N,GND*%
X89526598Y-142371472D03*
%TO.P,IC2,40,GND_10*%
X89173045Y-142725025D03*
D49*
%TO.P,IC2,41,EP*%
X92850000Y-143220000D03*
%TD*%
D15*
%TO.P,C6,1*%
%TO.N,Net-(IC2-RFOUTBP)*%
X111627652Y-146797358D03*
%TO.P,C6,2*%
%TO.N,/RF_LO2*%
X112430218Y-147599924D03*
%TD*%
%TO.P,C14,1*%
%TO.N,Net-(IC2-CPOUT)*%
X97767434Y-148427434D03*
%TO.P,C14,2*%
%TO.N,GND*%
X98570000Y-149230000D03*
%TD*%
D50*
%TO.N,+3V3*%
X86060000Y-143050000D03*
X90610000Y-146610000D03*
X73890000Y-153680000D03*
X92850000Y-147630000D03*
X96050000Y-139930000D03*
X95375000Y-147185000D03*
X89035000Y-140465000D03*
X72410000Y-151020000D03*
X97390000Y-142720000D03*
X74270000Y-147060000D03*
D51*
%TO.N,GND*%
X64330000Y-142050000D03*
D52*
X113093333Y-125241667D03*
D50*
X112241067Y-148485575D03*
D52*
X124470000Y-149700000D03*
D50*
X97650000Y-137250000D03*
X94820000Y-146950000D03*
X71350000Y-148340000D03*
X95810000Y-140620000D03*
X93040000Y-133050000D03*
X111683788Y-137807281D03*
D51*
X64450000Y-148460000D03*
D50*
X111781447Y-148945196D03*
X75250000Y-140970000D03*
X74480000Y-154620000D03*
D52*
X112946667Y-161299998D03*
D50*
X76180000Y-141870000D03*
X99520000Y-142020000D03*
X88510000Y-153920000D03*
X72630000Y-150390000D03*
X89820000Y-150260000D03*
X117212028Y-153442394D03*
X75250000Y-141870000D03*
D52*
X124580000Y-128343333D03*
X57940000Y-137210000D03*
D50*
X91210000Y-131970000D03*
X95690000Y-150130000D03*
D51*
X72380000Y-143600000D03*
D50*
X116745337Y-153909084D03*
X95040000Y-146470000D03*
X99220000Y-149870000D03*
D51*
X67980000Y-141100000D03*
D50*
X87780000Y-148460000D03*
X86120000Y-139060000D03*
X76180000Y-142770000D03*
D51*
X63960000Y-146420000D03*
X64520000Y-136620000D03*
D50*
X86300000Y-135880000D03*
D52*
X121623334Y-125271666D03*
D50*
X96130000Y-148000000D03*
X117071942Y-133310082D03*
X90330000Y-146070000D03*
X77040000Y-147060000D03*
X68950000Y-154460000D03*
X93700000Y-133490000D03*
X116612322Y-132850462D03*
D51*
X65700000Y-141100000D03*
D50*
X88270000Y-142030000D03*
X87050000Y-147050000D03*
X87910000Y-135620000D03*
X89620000Y-145380000D03*
X77080000Y-155200000D03*
X88870000Y-141730000D03*
D52*
X124550000Y-136873333D03*
D50*
X105270000Y-149800000D03*
D52*
X124440000Y-158230000D03*
D50*
X90710000Y-155780000D03*
X97230000Y-135260000D03*
D51*
X80270000Y-144880000D03*
X78160000Y-140910000D03*
D50*
X88470000Y-148530000D03*
X75250000Y-142770000D03*
X86870000Y-138300000D03*
X90320000Y-132800000D03*
X105140000Y-141770000D03*
X88910000Y-144700000D03*
X98380000Y-137990000D03*
D51*
X64450000Y-153870000D03*
X71870000Y-139360000D03*
D52*
X64990000Y-150360000D03*
D50*
X90560000Y-139840000D03*
D52*
X65170000Y-140140000D03*
X57890000Y-153200000D03*
D50*
X88130000Y-133980000D03*
X91850000Y-132870000D03*
X69830000Y-152040000D03*
X98460000Y-143760000D03*
D52*
X121476668Y-161330000D03*
D51*
X63969999Y-144075000D03*
D50*
X112157550Y-138238616D03*
D51*
X83050000Y-137750000D03*
D50*
X91720000Y-138920000D03*
X91930000Y-149620000D03*
X94430000Y-149600000D03*
X76180000Y-140970000D03*
D51*
X74150000Y-144390000D03*
D50*
%TO.N,Net-(IC2-VTUNE)*%
X89890000Y-139800000D03*
X100010000Y-147540000D03*
D51*
%TO.N,+5V*%
X66880000Y-144360000D03*
X64470000Y-147650000D03*
D50*
%TO.N,/RAMPCLK*%
X93080000Y-133660000D03*
X77080000Y-154590000D03*
%TO.N,/MUXOUT*%
X75120000Y-154590000D03*
X97886620Y-143752518D03*
%TO.N,/CSB*%
X98910000Y-137280000D03*
X77750000Y-147470000D03*
%TO.N,/SYSREFREQ*%
X76440000Y-154610000D03*
X98260000Y-135240000D03*
%TO.N,/RAMPDIR*%
X91160000Y-132850000D03*
X79280000Y-151700000D03*
%TO.N,/SYNC*%
X75790000Y-155140000D03*
X87970000Y-147580000D03*
D51*
%TO.N,/PG*%
X71700000Y-143600000D03*
X72540000Y-141940000D03*
%TD*%
D53*
%TO.N,+3V3*%
X89035000Y-140465000D02*
X88361283Y-139791283D01*
D54*
X75130000Y-147077500D02*
X75112500Y-147060000D01*
D53*
X96440000Y-139930000D02*
X96968717Y-139401283D01*
D54*
X92850000Y-147630000D02*
X93760000Y-147630000D01*
X81870000Y-143052500D02*
X86057500Y-143052500D01*
D53*
X93344975Y-146896955D02*
X93344975Y-147214975D01*
D54*
X96531980Y-142720000D02*
X96526955Y-142725025D01*
D53*
X90233705Y-141664365D02*
X90233705Y-141663705D01*
D54*
X86057500Y-143052500D02*
X86060000Y-143050000D01*
D55*
X78805000Y-142860000D02*
X79100000Y-143155000D01*
D54*
X97611980Y-142720000D02*
X98115672Y-142216308D01*
X90096258Y-147123742D02*
X89878238Y-147123742D01*
X95375000Y-147185000D02*
X95375000Y-147162434D01*
X97390000Y-142720000D02*
X97611980Y-142720000D01*
X74290000Y-153680000D02*
X74480000Y-153490000D01*
X75130000Y-148590000D02*
X75130000Y-147077500D01*
D53*
X94759188Y-140957258D02*
X95786446Y-139930000D01*
X95786446Y-139930000D02*
X96050000Y-139930000D01*
D55*
X77230000Y-142860000D02*
X78805000Y-142860000D01*
D54*
X90610000Y-146610000D02*
X91294365Y-145925635D01*
X93760000Y-147630000D02*
X94278717Y-148148717D01*
D53*
X90233705Y-141663705D02*
X89035000Y-140465000D01*
D54*
X97390000Y-142720000D02*
X96531980Y-142720000D01*
X91294365Y-145925635D02*
X91294365Y-145836295D01*
X75112500Y-147060000D02*
X74270000Y-147060000D01*
D53*
X93344975Y-147214975D02*
X93760000Y-147630000D01*
D54*
X90610000Y-146610000D02*
X90096258Y-147123742D01*
X81870000Y-143052500D02*
X81922500Y-143000000D01*
D53*
X95918717Y-146618717D02*
X95895163Y-146618717D01*
X96050000Y-139930000D02*
X96440000Y-139930000D01*
D54*
X72410000Y-151020000D02*
X73309999Y-151020000D01*
D53*
X95895163Y-146618717D02*
X94759188Y-145482742D01*
D54*
X73890000Y-153680000D02*
X74290000Y-153680000D01*
X95375000Y-147162434D02*
X95918717Y-146618717D01*
X73309999Y-151020000D02*
X73329999Y-151040000D01*
D53*
%TO.N,GND*%
X95112742Y-141310812D02*
X95119188Y-141310812D01*
X92850000Y-143573554D02*
X92850000Y-143220000D01*
D54*
X98570000Y-149230000D02*
X98580000Y-149230000D01*
X89088110Y-150991890D02*
X89820000Y-150260000D01*
D53*
X89526598Y-144068528D02*
X89526598Y-144083402D01*
X92343045Y-139543045D02*
X91720000Y-138920000D01*
X77230000Y-140910000D02*
X78160000Y-140910000D01*
D56*
X112157550Y-138231545D02*
X112157550Y-138238616D01*
X116268039Y-152519620D02*
X117190814Y-153442395D01*
D57*
X124583333Y-128340000D02*
X124580000Y-128343333D01*
D54*
X73330000Y-150390000D02*
X75130000Y-150390000D01*
D56*
X116738266Y-153909084D02*
X116745337Y-153909084D01*
D54*
X89088110Y-150999865D02*
X89088110Y-150991890D01*
D53*
X92850000Y-144980000D02*
X92850000Y-143220000D01*
D56*
X114022976Y-151193794D02*
X114482595Y-151193794D01*
X113156769Y-149408350D02*
X112241067Y-148492646D01*
X112697151Y-149867969D02*
X111781447Y-148952267D01*
X113059111Y-137329984D02*
X112157550Y-138231545D01*
D53*
X94405635Y-145836295D02*
X94406295Y-145836295D01*
D56*
X112599491Y-136870364D02*
X111683788Y-137786068D01*
D54*
X96721283Y-147421283D02*
X96708717Y-147421283D01*
D53*
X76705000Y-140910000D02*
X75730000Y-141885000D01*
X90940812Y-145482742D02*
X92850000Y-143573554D01*
D54*
X98918238Y-141413742D02*
X98918238Y-141418238D01*
D53*
X94059848Y-146189848D02*
X94052082Y-146189848D01*
D57*
X57900000Y-150360000D02*
X57900000Y-153190000D01*
D54*
X95081283Y-148951283D02*
X95078717Y-148951283D01*
D56*
X116612322Y-132857533D02*
X116612322Y-132850462D01*
X117071942Y-133317153D02*
X117071942Y-133310082D01*
D57*
X61830000Y-150360000D02*
X64990000Y-150360000D01*
X121480000Y-166030000D02*
X121480002Y-161333334D01*
X57930000Y-140050000D02*
X57930000Y-137220000D01*
D53*
X71882500Y-139372500D02*
X71870000Y-139360000D01*
D54*
X92531283Y-148971283D02*
X92531283Y-149018717D01*
D56*
X115808421Y-152979239D02*
X116738266Y-153909084D01*
D53*
X89511472Y-142371472D02*
X88870000Y-141730000D01*
D56*
X114482595Y-150734176D02*
X114482595Y-151193794D01*
D54*
X87558717Y-138988717D02*
X86870000Y-138300000D01*
X70650000Y-150960000D02*
X70650000Y-151220000D01*
D53*
X89526598Y-144083402D02*
X88910000Y-144700000D01*
D56*
X63965000Y-146415000D02*
X63960000Y-146420000D01*
X114942215Y-151193794D02*
X114482595Y-151193794D01*
D57*
X62010000Y-140140000D02*
X65170000Y-140140000D01*
D53*
X75175000Y-141020000D02*
X75175000Y-140920000D01*
D54*
X71339999Y-148350001D02*
X71350000Y-148340000D01*
X75130000Y-150390000D02*
X75780000Y-151040000D01*
D53*
X94406295Y-145836295D02*
X95040000Y-146470000D01*
X77230000Y-140910000D02*
X76705000Y-140910000D01*
X94405635Y-145836295D02*
X94366295Y-145836295D01*
D56*
X115710761Y-133759095D02*
X116612322Y-132857533D01*
D54*
X88587434Y-136297434D02*
X87910000Y-135620000D01*
X96439880Y-136050120D02*
X97230000Y-135260000D01*
D55*
X65702500Y-141097500D02*
X65700000Y-141100000D01*
D56*
X111781447Y-148952267D02*
X111781447Y-148945196D01*
D57*
X121610000Y-125258333D02*
X121623334Y-125271666D01*
X124473333Y-149696667D02*
X124470000Y-149700000D01*
D56*
X114384936Y-135084920D02*
X114384936Y-135544539D01*
X115808421Y-152979239D02*
X114482595Y-151653415D01*
D57*
X129280000Y-128340000D02*
X124583333Y-128340000D01*
D53*
X90233705Y-144775635D02*
X91789340Y-143220000D01*
D56*
X116170380Y-134218714D02*
X117071942Y-133317153D01*
D57*
X112960001Y-166030000D02*
X112960001Y-161313332D01*
X57930000Y-137220000D02*
X57940000Y-137210000D01*
D54*
X96297434Y-150737434D02*
X95690000Y-150130000D01*
D57*
X129170000Y-149696667D02*
X124473333Y-149696667D01*
D53*
X74152500Y-145560000D02*
X74152500Y-144392500D01*
D54*
X98580000Y-149230000D02*
X99220000Y-149870000D01*
D56*
X64650000Y-146415000D02*
X63965000Y-146415000D01*
D54*
X98918238Y-141418238D02*
X99520000Y-142020000D01*
D53*
X89526598Y-142371472D02*
X89511472Y-142371472D01*
X90375126Y-143220000D02*
X92850000Y-143220000D01*
X89173045Y-142723045D02*
X89173045Y-142725025D01*
D54*
X87039975Y-149021732D02*
X87218268Y-149021732D01*
X89075672Y-147926308D02*
X89073692Y-147926308D01*
X104455235Y-148985235D02*
X105270000Y-149800000D01*
D53*
X89173045Y-142787249D02*
X89605796Y-143220000D01*
D55*
X62405000Y-142050000D02*
X64330000Y-142050000D01*
D53*
X88270000Y-142030000D02*
X88480000Y-142030000D01*
D54*
X89389337Y-153040663D02*
X88510000Y-153920000D01*
D57*
X57900000Y-153190000D02*
X57890000Y-153200000D01*
D54*
X97771283Y-138598717D02*
X97771283Y-138631283D01*
D53*
X90233705Y-144775635D02*
X90224365Y-144775635D01*
D54*
X88900120Y-134750120D02*
X88130000Y-133980000D01*
X87668172Y-146431828D02*
X87050000Y-147050000D01*
D56*
X115710761Y-133759095D02*
X114384936Y-135084920D01*
D54*
X87070120Y-136650120D02*
X86300000Y-135880000D01*
D53*
X92355025Y-139543045D02*
X92343045Y-139543045D01*
D54*
X95078717Y-148951283D02*
X94430000Y-149600000D01*
X88910120Y-134750120D02*
X88900120Y-134750120D01*
D56*
X63974999Y-144070000D02*
X63969999Y-144075000D01*
D54*
X68950000Y-152920000D02*
X69830000Y-152040000D01*
D56*
X63267500Y-136630000D02*
X64510000Y-136630000D01*
D55*
X67977500Y-141097500D02*
X67980000Y-141100000D01*
D54*
X89389337Y-152998149D02*
X89389337Y-153040663D01*
D56*
X117190814Y-153442395D02*
X117212028Y-153442394D01*
D54*
X86808717Y-139748717D02*
X86120000Y-139060000D01*
X76247500Y-147060000D02*
X77040000Y-147060000D01*
D53*
X92850000Y-140038020D02*
X92850000Y-143220000D01*
D55*
X62525000Y-148460000D02*
X64450000Y-148460000D01*
D53*
X92850000Y-142159340D02*
X92850000Y-143220000D01*
X94820000Y-146950000D02*
X94059848Y-146189848D01*
X74152500Y-144392500D02*
X74150000Y-144390000D01*
D54*
X68950000Y-153160000D02*
X68950000Y-154460000D01*
D53*
X91789340Y-143220000D02*
X92850000Y-143220000D01*
D54*
X79100000Y-144880000D02*
X80270000Y-144880000D01*
X89073692Y-147926308D02*
X88470000Y-148530000D01*
D53*
X95112742Y-141310812D02*
X93203554Y-143220000D01*
X92850000Y-144320000D02*
X92850000Y-143220000D01*
X89173045Y-142725025D02*
X89173045Y-142787249D01*
X93203554Y-143220000D02*
X92850000Y-143220000D01*
X95119188Y-141310812D02*
X95810000Y-140620000D01*
D56*
X113059111Y-137329984D02*
X114384936Y-136004159D01*
D57*
X121610000Y-120541666D02*
X121610000Y-125258333D01*
X129280000Y-136860000D02*
X124563333Y-136860000D01*
D54*
X70650000Y-151220000D02*
X69830000Y-152040000D01*
D53*
X94052082Y-146189848D02*
X94052082Y-146182082D01*
X89526598Y-142371472D02*
X90375126Y-143220000D01*
D56*
X63267500Y-153870000D02*
X64450000Y-153870000D01*
D53*
X89526598Y-144068528D02*
X90375126Y-143220000D01*
D54*
X96708717Y-147421283D02*
X96130000Y-148000000D01*
D53*
X91294365Y-140603705D02*
X92850000Y-142159340D01*
D54*
X91363933Y-155126067D02*
X90710000Y-155780000D01*
D53*
X90224365Y-144775635D02*
X89620000Y-145380000D01*
D56*
X113925316Y-135544539D02*
X114384936Y-135544539D01*
D53*
X91294365Y-140603705D02*
X91294365Y-140574365D01*
D54*
X86808717Y-139768717D02*
X86808717Y-139748717D01*
X88587434Y-136307434D02*
X88587434Y-136297434D01*
D56*
X114482595Y-151653415D02*
X114482595Y-151193794D01*
D53*
X90940812Y-145482742D02*
X90917258Y-145482742D01*
D54*
X69272500Y-155810000D02*
X69272500Y-154782500D01*
D56*
X114384936Y-136004159D02*
X114384936Y-135544539D01*
X116170380Y-134218714D02*
X114844555Y-135544539D01*
D53*
X91294365Y-140574365D02*
X90560000Y-139840000D01*
D54*
X97041283Y-137858717D02*
X97650000Y-137250000D01*
X105132500Y-141762500D02*
X105140000Y-141770000D01*
X68950000Y-153160000D02*
X68950000Y-152920000D01*
D57*
X124563333Y-136860000D02*
X124550000Y-136873333D01*
D54*
X97771283Y-138598717D02*
X98380000Y-137990000D01*
D53*
X92355025Y-139543045D02*
X92850000Y-140038020D01*
D56*
X116268039Y-152519620D02*
X114942215Y-151193794D01*
D54*
X87218268Y-149021732D02*
X87780000Y-148460000D01*
X91363933Y-155106387D02*
X91363933Y-155126067D01*
X69272500Y-154782500D02*
X68950000Y-154460000D01*
X87668172Y-146426308D02*
X87668172Y-146431828D01*
D57*
X112960001Y-161313332D02*
X112946667Y-161299998D01*
D54*
X70427501Y-148350001D02*
X71339999Y-148350001D01*
D57*
X121480002Y-161333334D02*
X121476668Y-161330000D01*
D53*
X94052082Y-146182082D02*
X92850000Y-144980000D01*
X90917258Y-145482742D02*
X90330000Y-146070000D01*
D55*
X81870000Y-137750000D02*
X83050000Y-137750000D01*
D56*
X64630000Y-144070000D02*
X63974999Y-144070000D01*
D55*
X66850000Y-141097500D02*
X67977500Y-141097500D01*
D56*
X112599491Y-136870364D02*
X113925316Y-135544539D01*
D57*
X113090000Y-125238333D02*
X113093333Y-125241667D01*
D56*
X112697151Y-149867969D02*
X114022976Y-151193794D01*
D54*
X92531283Y-149018717D02*
X91930000Y-149620000D01*
X72630000Y-150390000D02*
X73330000Y-150390000D01*
D53*
X89605796Y-143220000D02*
X92850000Y-143220000D01*
X72770000Y-139372500D02*
X71882500Y-139372500D01*
D56*
X113156769Y-149408350D02*
X114482595Y-150734176D01*
X114844555Y-135544539D02*
X114384936Y-135544539D01*
D53*
X88480000Y-142030000D02*
X89173045Y-142723045D01*
D57*
X129170000Y-158216667D02*
X124453333Y-158216667D01*
D53*
X94366295Y-145836295D02*
X92850000Y-144320000D01*
D54*
X105132500Y-140720000D02*
X105132500Y-141762500D01*
D55*
X66850000Y-141097500D02*
X65702500Y-141097500D01*
D57*
X124453333Y-158216667D02*
X124440000Y-158230000D01*
D56*
X64510000Y-136630000D02*
X64520000Y-136620000D01*
X111683788Y-137786068D02*
X111683788Y-137807281D01*
D54*
X104455235Y-148975235D02*
X104455235Y-148985235D01*
D56*
X112241067Y-148492646D02*
X112241067Y-148485575D01*
D57*
X113090001Y-120541666D02*
X113090000Y-125238333D01*
D58*
%TO.N,/RF_LO1*%
X112047948Y-136410745D02*
X112139872Y-136410745D01*
D59*
X110628431Y-137830262D02*
X112047948Y-136410745D01*
%TO.N,Net-(IC2-RFOUTAP)*%
X107380000Y-138632828D02*
X107816953Y-138632828D01*
X96480000Y-141357765D02*
X96480000Y-141360000D01*
X96480000Y-141360000D02*
X96477766Y-141360000D01*
X98497831Y-139339934D02*
X96480000Y-141357765D01*
X100204938Y-138632828D02*
X106240000Y-138632828D01*
X107266000Y-138632828D02*
X107380000Y-138632828D01*
X107038000Y-138070828D02*
X107038000Y-138404828D01*
X96477766Y-141360000D02*
X95819848Y-142017918D01*
X106468000Y-138404828D02*
X106468000Y-138070828D01*
X107816953Y-138632828D02*
X109825865Y-138632828D01*
X106696000Y-137842828D02*
X106810000Y-137842828D01*
X106468000Y-138070828D02*
G75*
G02*
X106696000Y-137842800I228000J28D01*
G01*
X98497831Y-139339934D02*
G75*
G02*
X100204938Y-138632842I1707069J-1707066D01*
G01*
X106240000Y-138632828D02*
G75*
G03*
X106468028Y-138404828I0J228028D01*
G01*
X106810000Y-137842828D02*
G75*
G02*
X107037972Y-138070828I0J-227972D01*
G01*
X107038000Y-138404828D02*
G75*
G03*
X107266000Y-138632800I228000J28D01*
G01*
D58*
%TO.N,Net-(IC1-RF)*%
X116522166Y-132028451D02*
X116522166Y-131795105D01*
D59*
X115251142Y-133299475D02*
X116522166Y-132028451D01*
D58*
%TO.N,/RF_RFOUT1*%
X117324732Y-120956398D02*
X117310001Y-120941667D01*
D59*
X117324732Y-130992539D02*
X117324732Y-120956398D01*
%TO.N,Net-(IC1-IF)*%
X116630000Y-134678333D02*
X117929309Y-133379025D01*
D56*
X117929309Y-133379025D02*
X118106085Y-133379025D01*
D58*
%TO.N,/RF_IF1*%
X128906459Y-132576459D02*
X128930000Y-132600000D01*
D59*
X118908651Y-132576459D02*
X128906459Y-132576459D01*
D56*
%TO.N,Net-(C5-Pad2)*%
X103057500Y-140470000D02*
X103307500Y-140720000D01*
D59*
X101772500Y-140470000D02*
X103057500Y-140470000D01*
%TO.N,Net-(IC2-RFOUTAM)*%
X96173402Y-142371472D02*
X98074874Y-140470000D01*
X98074874Y-140470000D02*
X100637500Y-140470000D01*
%TO.N,Net-(IC2-RFOUTBP)*%
X109858489Y-145028195D02*
X111627652Y-146797358D01*
X108151383Y-144321089D02*
X97271089Y-144321089D01*
X96173402Y-144068528D02*
X96425963Y-144321089D01*
X96424874Y-144320000D02*
X96173402Y-144068528D01*
X97271089Y-144321089D02*
X97270000Y-144320000D01*
X97270000Y-144320000D02*
X96424874Y-144320000D01*
X108151383Y-144321089D02*
G75*
G02*
X109858496Y-145028187I17J-2414211D01*
G01*
%TO.N,/RF_LO2*%
X113616390Y-148948730D02*
X112430218Y-147762559D01*
X112430218Y-147762559D02*
X112430218Y-147599924D01*
%TO.N,Net-(C7-Pad1)*%
X102081283Y-146601283D02*
X103164765Y-147684765D01*
%TO.N,Net-(IC2-RFOUTBM)*%
X96287766Y-144890000D02*
X100330000Y-144890000D01*
X100330000Y-144890000D02*
X101238717Y-145798717D01*
X95819848Y-144422082D02*
X96287766Y-144890000D01*
D58*
%TO.N,/RF_RFOUT2*%
X128964902Y-153985098D02*
X128980000Y-153970000D01*
D59*
X118985098Y-153985098D02*
X128964902Y-153985098D01*
%TO.N,Net-(IC3-RF)*%
X118182532Y-153182532D02*
X117060000Y-152060000D01*
X117060000Y-152060000D02*
X116727659Y-152060000D01*
D54*
%TO.N,Net-(IC2-CPOUT)*%
X97681626Y-148427434D02*
X96779530Y-149329530D01*
X97767434Y-148192096D02*
X98674765Y-147284765D01*
D53*
X96484656Y-149329530D02*
X96779530Y-149329530D01*
D54*
X97767434Y-148427434D02*
X97681626Y-148427434D01*
X97767434Y-148427434D02*
X97767434Y-148192096D01*
D53*
X93698528Y-146543402D02*
X96484656Y-149329530D01*
%TO.N,Net-(IC2-VTUNE)*%
X89890000Y-139730768D02*
X89890000Y-137610000D01*
X89890000Y-137610000D02*
X89390000Y-137110000D01*
X89890000Y-139906446D02*
X89890000Y-139730768D01*
X90940812Y-140957258D02*
X89890000Y-139906446D01*
D54*
X100010000Y-147540000D02*
X100010000Y-148530470D01*
X100010000Y-148530470D02*
X99965235Y-148575235D01*
D59*
%TO.N,/RF_IF2*%
X117316326Y-155653870D02*
X117316326Y-165653672D01*
D58*
X117316326Y-165513672D02*
X117300000Y-165529998D01*
X117316326Y-165653672D02*
X117270000Y-165699998D01*
X117316326Y-165863673D02*
X117290000Y-165889999D01*
D59*
%TO.N,Net-(IC3-IF)*%
X115348800Y-153686347D02*
X115348801Y-153438858D01*
X116513760Y-154851304D02*
X115348800Y-153686347D01*
D53*
%TO.N,Net-(C17-Pad1)*%
X98070000Y-150620000D02*
X98020000Y-150620000D01*
X98020000Y-150620000D02*
X97100000Y-151540000D01*
%TO.N,Net-(IC2-VBIASVARAC)*%
X91647918Y-140250152D02*
X90490000Y-139092234D01*
X90490000Y-139092234D02*
X90490000Y-136330000D01*
X90490000Y-136330000D02*
X90129880Y-135969880D01*
%TO.N,Net-(IC2-VBIASVCO2)*%
X94405635Y-140603705D02*
X94406295Y-140603705D01*
X94406295Y-140603705D02*
X95650000Y-139360000D01*
X95650000Y-139360000D02*
X95650000Y-139250000D01*
X95650000Y-139250000D02*
X96238717Y-138661283D01*
D56*
%TO.N,Net-(IC2-VBIASVCO)*%
X88678492Y-145623742D02*
X88470738Y-145623742D01*
X89880152Y-144422082D02*
X88678492Y-145623742D01*
%TO.N,Net-(IC2-VREFVCO2)*%
X95220120Y-137939880D02*
X95220120Y-137269880D01*
X94509000Y-139091000D02*
X94509000Y-138651000D01*
X93698528Y-139896598D02*
X93703402Y-139896598D01*
X94509000Y-138651000D02*
X95220120Y-137939880D01*
X93703402Y-139896598D02*
X94509000Y-139091000D01*
D53*
%TO.N,Net-(IC2-VREGVCO)*%
X88210000Y-141170000D02*
X87611283Y-140571283D01*
X89062234Y-141200000D02*
X88210000Y-141200000D01*
X88210000Y-141200000D02*
X88210000Y-141170000D01*
X89880152Y-142017918D02*
X89062234Y-141200000D01*
%TO.N,Net-(IC2-VREFVCO)*%
X90587258Y-141310812D02*
X89350000Y-140073554D01*
X89350000Y-138930000D02*
X88289880Y-137869880D01*
X89350000Y-140073554D02*
X89350000Y-138930000D01*
%TO.N,Net-(IC2-VREGIN)*%
X92355025Y-146896955D02*
X92355025Y-147542409D01*
X92355025Y-147542409D02*
X91728717Y-148168717D01*
%TO.N,Net-(Y1-X1)*%
X88239581Y-151848393D02*
X88239581Y-151826472D01*
X88239581Y-151826472D02*
X87036439Y-150623330D01*
X87036439Y-150623330D02*
X86237409Y-149824298D01*
%TO.N,Net-(IC2-OSCINP)*%
X87839005Y-149820764D02*
X88109236Y-149820764D01*
X91647918Y-146282082D02*
X91647918Y-146189848D01*
X88109236Y-149820764D02*
X91647918Y-146282082D01*
D56*
%TO.N,Net-(Y1-X2)*%
X91434644Y-153366904D02*
X91434644Y-153571966D01*
X91434644Y-153571966D02*
X92166499Y-154303821D01*
X90237865Y-152170125D02*
X91434644Y-153366904D01*
X90237865Y-152149620D02*
X90237865Y-152170125D01*
%TO.N,Net-(IC2-OSCINM)*%
X90720000Y-151047128D02*
X90720000Y-147830000D01*
X92001472Y-146548528D02*
X92001472Y-146543402D01*
X92237210Y-152564338D02*
X90720000Y-151047128D01*
X90720000Y-147830000D02*
X92001472Y-146548528D01*
D53*
%TO.N,+5V*%
X74230000Y-140910000D02*
X73172500Y-140910000D01*
D55*
X62405000Y-142850000D02*
X66822500Y-142850000D01*
X66822500Y-142850000D02*
X66850000Y-142822500D01*
D53*
X73172500Y-140910000D02*
X72770000Y-140507500D01*
D55*
X62405000Y-147650000D02*
X64470000Y-147650000D01*
X70455000Y-142822500D02*
X70457500Y-142820000D01*
X66880000Y-142852500D02*
X66850000Y-142822500D01*
X70457500Y-142820000D02*
X74190000Y-142820000D01*
X74190000Y-142820000D02*
X74230000Y-142860000D01*
X70455000Y-142822500D02*
X72770000Y-140507500D01*
X66850000Y-142822500D02*
X70455000Y-142822500D01*
X66880000Y-144360000D02*
X66880000Y-142852500D01*
D56*
%TO.N,Net-(IC4-FB)*%
X81870000Y-141227500D02*
X81870000Y-139575000D01*
X80247500Y-141600000D02*
X80480000Y-141832500D01*
X77230000Y-141560000D02*
X77270000Y-141600000D01*
X77270000Y-141600000D02*
X80247500Y-141600000D01*
X81265000Y-141832500D02*
X81870000Y-141227500D01*
X80480000Y-141832500D02*
X81265000Y-141832500D01*
D53*
%TO.N,Net-(IC5-OSC1)*%
X68950000Y-150420000D02*
X69760000Y-149610000D01*
X68950000Y-150960000D02*
X68950000Y-150420000D01*
X71620000Y-149860000D02*
X71620000Y-151170000D01*
X68950000Y-148692502D02*
X69292501Y-148350001D01*
X71370000Y-149610000D02*
X71620000Y-149860000D01*
X68950000Y-150960000D02*
X68950000Y-148692502D01*
X71620000Y-151170000D02*
X72140000Y-151690000D01*
X69760000Y-149610000D02*
X71370000Y-149610000D01*
X72140000Y-151690000D02*
X73330000Y-151690000D01*
%TO.N,Net-(IC5-OSC2)*%
X70407500Y-155810000D02*
X70407500Y-153402500D01*
X70650000Y-153160000D02*
X71470000Y-152340000D01*
X71470000Y-152340000D02*
X73330000Y-152340000D01*
X70407500Y-153402500D02*
X70650000Y-153160000D01*
D60*
%TO.N,/USB_DP*%
X70820000Y-147180000D02*
X70730000Y-147180000D01*
X62405000Y-145000000D02*
X62872000Y-145000000D01*
X63101000Y-145229000D02*
X63101000Y-145729000D01*
X73330000Y-149740000D02*
X73330000Y-148600000D01*
X72683431Y-147946569D02*
X71916862Y-147180000D01*
X64650000Y-145985000D02*
X62420000Y-145985000D01*
X70940000Y-147180000D02*
X70820000Y-147180000D01*
X65547501Y-145320000D02*
X64882501Y-145985000D01*
X64882501Y-145985000D02*
X64650000Y-145985000D01*
X68986862Y-147180000D02*
X67126862Y-145320000D01*
X72683431Y-147953431D02*
X72683431Y-147946569D01*
X71916862Y-147180000D02*
X71220000Y-147180000D01*
X71140000Y-147260000D02*
X71020000Y-147260000D01*
X62830000Y-146000000D02*
X62405000Y-146000000D01*
X63101000Y-145729000D02*
X62830000Y-146000000D01*
X73330000Y-148600000D02*
X72683431Y-147953431D01*
X67126862Y-145320000D02*
X65547501Y-145320000D01*
X62872000Y-145000000D02*
X63101000Y-145229000D01*
X70730000Y-147180000D02*
X68986862Y-147180000D01*
X62420000Y-145985000D02*
X62405000Y-146000000D01*
X71180000Y-147220000D02*
G75*
G02*
X71140000Y-147260000I-40000J0D01*
G01*
X71020000Y-147260000D02*
G75*
G02*
X70980000Y-147220000I0J40000D01*
G01*
X70980000Y-147220000D02*
G75*
G03*
X70940000Y-147180000I-40000J0D01*
G01*
X71220000Y-147180000D02*
G75*
G03*
X71180000Y-147220000I0J-40000D01*
G01*
%TO.N,/USB_DN*%
X73553138Y-148590000D02*
X74480000Y-148590000D01*
X65547501Y-145160000D02*
X67193138Y-145160000D01*
X62405000Y-145500000D02*
X61938000Y-145500000D01*
X69053138Y-147020000D02*
X71983138Y-147020000D01*
X64882501Y-144495000D02*
X65547501Y-145160000D01*
X71983138Y-147020000D02*
X73553138Y-148590000D01*
X61938000Y-144500000D02*
X62405000Y-144500000D01*
X61938000Y-145500000D02*
X61709000Y-145271000D01*
X61709000Y-144729000D02*
X61938000Y-144500000D01*
X64650000Y-144495000D02*
X62410000Y-144495000D01*
X61709000Y-145271000D02*
X61709000Y-144729000D01*
X64650000Y-144495000D02*
X64882501Y-144495000D01*
X62410000Y-144495000D02*
X62405000Y-144500000D01*
X67193138Y-145160000D02*
X69053138Y-147020000D01*
D56*
%TO.N,/RAMPCLK*%
X77080000Y-153490000D02*
X77080000Y-154590000D01*
X93080000Y-133660000D02*
X93344975Y-133924975D01*
X93344975Y-133924975D02*
X93344975Y-139543045D01*
%TO.N,/MUXOUT*%
X75130000Y-154580000D02*
X75120000Y-154590000D01*
X97373189Y-143761000D02*
X97342189Y-143730000D01*
X97342189Y-143730000D02*
X96541980Y-143730000D01*
X97864102Y-143730000D02*
X97777811Y-143730000D01*
X97777811Y-143730000D02*
X97746811Y-143761000D01*
X97886620Y-143752518D02*
X97864102Y-143730000D01*
X75130000Y-153490000D02*
X75130000Y-154580000D01*
X96541980Y-143730000D02*
X96526955Y-143714975D01*
X97746811Y-143761000D02*
X97373189Y-143761000D01*
%TO.N,/CSB*%
X77080000Y-148140000D02*
X77750000Y-147470000D01*
X77080000Y-148590000D02*
X77080000Y-148140000D01*
X98910000Y-138220000D02*
X95466295Y-141663705D01*
X98910000Y-137280000D02*
X98910000Y-138220000D01*
X95466295Y-141663705D02*
X95466295Y-141664365D01*
%TO.N,/CE*%
X82498020Y-150390000D02*
X89173045Y-143714975D01*
X78230000Y-150390000D02*
X82498020Y-150390000D01*
D61*
%TO.N,/SDI*%
X96100660Y-145410000D02*
X99510000Y-145410000D01*
X95466295Y-144775635D02*
X96100660Y-145410000D01*
X94739000Y-157271000D02*
X83161000Y-157271000D01*
X101960000Y-150050000D02*
X94739000Y-157271000D01*
X99510000Y-145410000D02*
X101960000Y-147860000D01*
X83161000Y-157271000D02*
X78230000Y-152340000D01*
X101960000Y-147860000D02*
X101960000Y-150050000D01*
D56*
%TO.N,/SYSREFREQ*%
X94790000Y-139100000D02*
X94790000Y-139580000D01*
X94119848Y-140250152D02*
X94052082Y-140250152D01*
X76430000Y-154600000D02*
X76440000Y-154610000D01*
X98260000Y-135240000D02*
X98260000Y-135630000D01*
X94790000Y-139580000D02*
X94119848Y-140250152D01*
X76430000Y-153490000D02*
X76430000Y-154600000D01*
X98260000Y-135630000D02*
X94790000Y-139100000D01*
%TO.N,/RAMPDIR*%
X91160000Y-139055126D02*
X92001472Y-139896598D01*
X79270000Y-151690000D02*
X79280000Y-151700000D01*
X78230000Y-151690000D02*
X79270000Y-151690000D01*
X91160000Y-132850000D02*
X91160000Y-139055126D01*
%TO.N,/SYNC*%
X75780000Y-155130000D02*
X75780000Y-153490001D01*
X75790000Y-155140000D02*
X75780000Y-155130000D01*
X88136446Y-147580000D02*
X90587258Y-145129188D01*
X87970000Y-147580000D02*
X88136446Y-147580000D01*
D61*
%TO.N,/SCK*%
X85440000Y-156480000D02*
X80000000Y-151040000D01*
X94560000Y-156480000D02*
X85440000Y-156480000D01*
X101250000Y-148080000D02*
X101250000Y-149790000D01*
X101250000Y-149790000D02*
X94560000Y-156480000D01*
X80000000Y-151040000D02*
X78230001Y-151040000D01*
X99110000Y-145940000D02*
X101250000Y-148080000D01*
X95112742Y-145129188D02*
X95923554Y-145940000D01*
X95923554Y-145940000D02*
X99110000Y-145940000D01*
D56*
%TO.N,/PG*%
X72920000Y-141560000D02*
X72540000Y-141940000D01*
X70542500Y-143600000D02*
X70312500Y-143830000D01*
X71700000Y-143600000D02*
X70542500Y-143600000D01*
X74230000Y-141560000D02*
X72920000Y-141560000D01*
D53*
%TO.N,Net-(LED1-K)*%
X70312500Y-145430000D02*
X72197500Y-145430000D01*
X72197500Y-145430000D02*
X72327500Y-145560000D01*
D56*
%TO.N,Net-(J5-CC2)*%
X60280000Y-147860000D02*
X60280000Y-152707500D01*
X60280000Y-152707500D02*
X61442500Y-153870000D01*
X61140000Y-147000000D02*
X60280000Y-147860000D01*
X62405000Y-147000000D02*
X61140000Y-147000000D01*
%TO.N,Net-(J5-CC1)*%
X60220000Y-142590000D02*
X60220000Y-137852500D01*
X62405000Y-144000000D02*
X61630000Y-144000000D01*
X60220000Y-137852500D02*
X61442500Y-136630000D01*
X61630000Y-144000000D02*
X60220000Y-142590000D01*
%TD*%
%TA.AperFunction,Conductor*%
%TO.N,+3V3*%
G36*
X80021845Y-142627268D02*
G01*
X80062598Y-142651369D01*
X80062600Y-142651370D01*
X80062601Y-142651370D01*
X80062603Y-142651371D01*
X80221637Y-142697575D01*
X80221640Y-142697575D01*
X80221642Y-142697576D01*
X80258797Y-142700500D01*
X80701202Y-142700499D01*
X80738358Y-142697576D01*
X80897400Y-142651370D01*
X80919819Y-142638110D01*
X80938155Y-142627268D01*
X81001276Y-142610000D01*
X82178638Y-142610000D01*
X82208078Y-142618644D01*
X82238065Y-142625168D01*
X82243080Y-142628922D01*
X82245677Y-142629685D01*
X82266319Y-142646319D01*
X82303681Y-142683681D01*
X82337166Y-142745004D01*
X82340000Y-142771362D01*
X82340000Y-143338638D01*
X82320315Y-143405677D01*
X82303681Y-143426319D01*
X82056319Y-143673681D01*
X81994996Y-143707166D01*
X81968638Y-143710000D01*
X78499999Y-143710000D01*
X75990707Y-146219291D01*
X75937621Y-146250686D01*
X75772604Y-146298628D01*
X75772601Y-146298629D01*
X75630049Y-146382934D01*
X75630040Y-146382941D01*
X75512941Y-146500040D01*
X75512934Y-146500049D01*
X75428629Y-146642601D01*
X75428628Y-146642604D01*
X75382424Y-146801637D01*
X75382423Y-146801643D01*
X75379500Y-146838789D01*
X75379500Y-146936000D01*
X75376949Y-146944685D01*
X75378238Y-146953647D01*
X75367259Y-146977687D01*
X75359815Y-147003039D01*
X75352974Y-147008966D01*
X75349213Y-147017203D01*
X75326978Y-147031492D01*
X75307011Y-147048794D01*
X75296496Y-147051081D01*
X75290435Y-147054977D01*
X75255500Y-147060000D01*
X75147544Y-147060000D01*
X75080505Y-147040315D01*
X75078761Y-147039174D01*
X74805217Y-146856811D01*
X74760356Y-146803246D01*
X74750000Y-146753637D01*
X74750000Y-146641362D01*
X74769685Y-146574323D01*
X74786319Y-146553681D01*
X75120709Y-146219291D01*
X77110000Y-144230000D01*
X77110000Y-143302061D01*
X77110069Y-143297930D01*
X77119449Y-143016523D01*
X77124865Y-142984188D01*
X77128302Y-142973020D01*
X77166837Y-142914738D01*
X77230765Y-142886542D01*
X77246815Y-142885499D01*
X77677871Y-142885499D01*
X77677872Y-142885499D01*
X77737483Y-142879091D01*
X77872331Y-142828796D01*
X77987546Y-142742546D01*
X78049574Y-142659688D01*
X78105508Y-142617818D01*
X78148840Y-142610000D01*
X79958724Y-142610000D01*
X80021845Y-142627268D01*
G37*
%TD.AperFunction*%
%TD*%
M02*
