M48
; DRILL file {KiCad 9.0.7} date 2026-03-26T20:28:16-0400
; FORMAT={-:-/ absolute / metric / decimal}
; #@! TF.CreationDate,2026-03-26T20:28:16-04:00
; #@! TF.GenerationSoftware,Kicad,Pcbnew,9.0.7
; #@! TF.FileFunction,Plated,1,4,PTH
FMAT,2
METRIC
; #@! TA.AperFunction,Plated,PTH,ViaDrill
T1C0.200
; #@! TA.AperFunction,Plated,PTH,ViaDrill
T2C0.250
; #@! TA.AperFunction,Plated,PTH,ViaDrill
T3C0.500
; #@! TA.AperFunction,Plated,PTH,ComponentDrill
T4C2.200
%
G90
G05
T1
X68.95Y-154.46
X69.83Y-152.04
X71.35Y-148.34
X72.41Y-151.02
X72.63Y-150.39
X73.89Y-153.68
X74.27Y-147.06
X74.48Y-154.62
X75.12Y-154.59
X75.25Y-140.97
X75.25Y-141.87
X75.25Y-142.77
X75.79Y-155.14
X76.18Y-140.97
X76.18Y-141.87
X76.18Y-142.77
X76.44Y-154.61
X77.04Y-147.06
X77.08Y-154.59
X77.08Y-155.2
X77.75Y-147.47
X79.28Y-151.7
X86.06Y-143.05
X86.12Y-139.06
X86.3Y-135.88
X86.87Y-138.3
X87.05Y-147.05
X87.78Y-148.46
X87.91Y-135.62
X87.97Y-147.58
X88.13Y-133.98
X88.27Y-142.03
X88.47Y-148.53
X88.51Y-153.92
X88.87Y-141.73
X88.91Y-144.7
X89.035Y-140.465
X89.62Y-145.38
X89.82Y-150.26
X89.89Y-139.8
X90.32Y-132.8
X90.33Y-146.07
X90.56Y-139.84
X90.61Y-146.61
X90.71Y-155.78
X91.16Y-132.85
X91.21Y-131.97
X91.72Y-138.92
X91.85Y-132.87
X91.93Y-149.62
X92.85Y-147.63
X93.04Y-133.05
X93.08Y-133.66
X93.7Y-133.49
X94.43Y-149.6
X94.82Y-146.95
X95.04Y-146.47
X95.375Y-147.185
X95.69Y-150.13
X95.81Y-140.62
X96.05Y-139.93
X96.13Y-148.0
X97.23Y-135.26
X97.39Y-142.72
X97.65Y-137.25
X97.887Y-143.753
X98.26Y-135.24
X98.38Y-137.99
X98.46Y-143.76
X98.91Y-137.28
X99.22Y-149.87
X99.52Y-142.02
X100.01Y-147.54
X105.14Y-141.77
X105.27Y-149.8
X111.684Y-137.807
X111.781Y-148.945
X112.158Y-138.239
X112.241Y-148.486
X116.612Y-132.85
X116.745Y-153.909
X117.072Y-133.31
X117.212Y-153.442
T2
X63.96Y-146.42
X63.97Y-144.075
X64.33Y-142.05
X64.45Y-148.46
X64.45Y-153.87
X64.47Y-147.65
X64.52Y-136.62
X65.7Y-141.1
X66.88Y-144.36
X67.98Y-141.1
X71.7Y-143.6
X71.87Y-139.36
X72.38Y-143.6
X72.54Y-141.94
X74.15Y-144.39
X78.16Y-140.91
X80.27Y-144.88
X83.05Y-137.75
T3
X57.89Y-153.2
X57.94Y-137.21
X64.99Y-150.36
X65.17Y-140.14
X112.947Y-161.3
X113.093Y-125.242
X121.477Y-161.33
X121.623Y-125.272
X124.44Y-158.23
X124.47Y-149.7
X124.55Y-136.873
X124.58Y-128.343
T4
X59.3Y-120.94
X59.3Y-165.73
X128.05Y-120.94
X128.05Y-165.73
M30
