%TF.GenerationSoftware,KiCad,Pcbnew,9.0.7*%
%TF.CreationDate,2026-03-25T21:34:23-04:00*%
%TF.ProjectId,Mixer,4d697865-722e-46b6-9963-61645f706362,rev?*%
%TF.SameCoordinates,Original*%
%TF.FileFunction,Copper,L4,Bot*%
%TF.FilePolarity,Positive*%
%FSLAX46Y46*%
G04 Gerber Fmt 4.6, Leading zero omitted, Abs format (unit mm)*
G04 Created by KiCad (PCBNEW 9.0.7) date 2026-03-25 21:34:23*
%MOMM*%
%LPD*%
G01*
G04 APERTURE LIST*
%TA.AperFunction,ComponentPad*%
%ADD10C,2.600000*%
%TD*%
%TA.AperFunction,ConnectorPad*%
%ADD11C,4.400000*%
%TD*%
%TA.AperFunction,ViaPad*%
%ADD12C,0.400000*%
%TD*%
%TA.AperFunction,ViaPad*%
%ADD13C,0.480000*%
%TD*%
%TA.AperFunction,ViaPad*%
%ADD14C,1.000000*%
%TD*%
%TA.AperFunction,Conductor*%
%ADD15C,0.400000*%
%TD*%
%TA.AperFunction,Conductor*%
%ADD16C,0.500000*%
%TD*%
%TA.AperFunction,Conductor*%
%ADD17C,0.200000*%
%TD*%
G04 APERTURE END LIST*
D10*
%TO.P,H1,1,1*%
%TO.N,GND*%
X128050000Y-120940000D03*
D11*
X128050000Y-120940000D03*
%TD*%
D10*
%TO.P,H3,1,1*%
%TO.N,GND*%
X59300000Y-165730000D03*
D11*
X59300000Y-165730000D03*
%TD*%
D10*
%TO.P,H2,1,1*%
%TO.N,GND*%
X128050000Y-165730000D03*
D11*
X128050000Y-165730000D03*
%TD*%
D10*
%TO.P,H4,1,1*%
%TO.N,GND*%
X59300000Y-120940000D03*
D11*
X59300000Y-120940000D03*
%TD*%
D12*
%TO.N,+3V3*%
X86060000Y-143050000D03*
X90610000Y-146610000D03*
X73890000Y-153680000D03*
X92850000Y-147630000D03*
X96050000Y-139930000D03*
X95375000Y-147185000D03*
X89035000Y-140465000D03*
X72410000Y-151020000D03*
X97390000Y-142720000D03*
X74270000Y-147060000D03*
D13*
%TO.N,GND*%
X64330000Y-142050000D03*
D14*
X113093333Y-125241667D03*
D12*
X112241067Y-148485575D03*
D14*
X124470000Y-149700000D03*
D12*
X97650000Y-137250000D03*
X94820000Y-146950000D03*
X71350000Y-148340000D03*
X95810000Y-140620000D03*
X93040000Y-133050000D03*
X111683788Y-137807281D03*
D13*
X64450000Y-148460000D03*
D12*
X111781447Y-148945196D03*
X75250000Y-140970000D03*
X74480000Y-154620000D03*
D14*
X112946667Y-161299998D03*
D12*
X76180000Y-141870000D03*
X99520000Y-142020000D03*
X88510000Y-153920000D03*
X72630000Y-150390000D03*
X89820000Y-150260000D03*
X117212028Y-153442394D03*
X75250000Y-141870000D03*
D14*
X124580000Y-128343333D03*
X57940000Y-137210000D03*
D12*
X91210000Y-131970000D03*
X95690000Y-150130000D03*
D13*
X72380000Y-143600000D03*
D12*
X116745337Y-153909084D03*
X95040000Y-146470000D03*
X99220000Y-149870000D03*
D13*
X67980000Y-141100000D03*
D12*
X87780000Y-148460000D03*
X86120000Y-139060000D03*
X76180000Y-142770000D03*
D13*
X63960000Y-146420000D03*
X64520000Y-136620000D03*
D12*
X86300000Y-135880000D03*
D14*
X121623334Y-125271666D03*
D12*
X96130000Y-148000000D03*
X117071942Y-133310082D03*
X90330000Y-146070000D03*
X77040000Y-147060000D03*
X68950000Y-154460000D03*
X93700000Y-133490000D03*
X116612322Y-132850462D03*
D13*
X65700000Y-141100000D03*
D12*
X88270000Y-142030000D03*
X87050000Y-147050000D03*
X87910000Y-135620000D03*
X89620000Y-145380000D03*
X77080000Y-155200000D03*
X88870000Y-141730000D03*
D14*
X124550000Y-136873333D03*
D12*
X105270000Y-149800000D03*
D14*
X124440000Y-158230000D03*
D12*
X90710000Y-155780000D03*
X97230000Y-135260000D03*
D13*
X80270000Y-144880000D03*
X78160000Y-140910000D03*
D12*
X88470000Y-148530000D03*
X75250000Y-142770000D03*
X86870000Y-138300000D03*
X90320000Y-132800000D03*
X105140000Y-141770000D03*
X88910000Y-144700000D03*
X98380000Y-137990000D03*
D13*
X64450000Y-153870000D03*
X71870000Y-139360000D03*
D14*
X64990000Y-150360000D03*
D12*
X90560000Y-139840000D03*
D14*
X65170000Y-140140000D03*
X57890000Y-153200000D03*
D12*
X88130000Y-133980000D03*
X91850000Y-132870000D03*
X69830000Y-152040000D03*
X98460000Y-143760000D03*
D14*
X121476668Y-161330000D03*
D13*
X63969999Y-144075000D03*
D12*
X112157550Y-138238616D03*
D13*
X83050000Y-137750000D03*
D12*
X91720000Y-138920000D03*
X91930000Y-149620000D03*
X94430000Y-149600000D03*
X76180000Y-140970000D03*
D13*
X74150000Y-144390000D03*
D12*
%TO.N,Net-(IC2-VTUNE)*%
X89890000Y-139800000D03*
X100010000Y-147540000D03*
D13*
%TO.N,+5V*%
X66880000Y-144360000D03*
X64470000Y-147650000D03*
D12*
%TO.N,/RAMPCLK*%
X93080000Y-133660000D03*
X77080000Y-154590000D03*
%TO.N,/MUXOUT*%
X75120000Y-154590000D03*
X97886620Y-143752518D03*
%TO.N,/CSB*%
X98910000Y-137280000D03*
X77750000Y-147470000D03*
%TO.N,/SYSREFREQ*%
X76440000Y-154610000D03*
X98260000Y-135240000D03*
%TO.N,/RAMPDIR*%
X91160000Y-132850000D03*
X79280000Y-151700000D03*
%TO.N,/SYNC*%
X75790000Y-155140000D03*
X87970000Y-147580000D03*
D13*
%TO.N,/PG*%
X71700000Y-143600000D03*
X72540000Y-141940000D03*
%TD*%
D15*
%TO.N,+3V3*%
X72410000Y-151020000D02*
X72410000Y-152200000D01*
X86450000Y-143050000D02*
X89035000Y-140465000D01*
X90610000Y-146610000D02*
X91830000Y-146610000D01*
X72410000Y-152200000D02*
X73890000Y-153680000D01*
X96410000Y-146150000D02*
X96410000Y-143700000D01*
X90600000Y-146620000D02*
X90610000Y-146610000D01*
X95375000Y-147185000D02*
X96410000Y-146150000D01*
X72079000Y-150689000D02*
X72410000Y-151020000D01*
X74270000Y-147060000D02*
X72079000Y-149251000D01*
X86060000Y-143050000D02*
X86450000Y-143050000D01*
X94930000Y-147630000D02*
X95375000Y-147185000D01*
X86060000Y-143050000D02*
X89630000Y-146620000D01*
X97390000Y-142720000D02*
X97390000Y-141270000D01*
X96410000Y-143700000D02*
X97390000Y-142720000D01*
X91830000Y-146610000D02*
X92850000Y-147630000D01*
X89630000Y-146620000D02*
X90600000Y-146620000D01*
X97390000Y-141270000D02*
X96050000Y-139930000D01*
X72079000Y-149251000D02*
X72079000Y-150689000D01*
X92850000Y-147630000D02*
X94930000Y-147630000D01*
%TO.N,Net-(IC2-VTUNE)*%
X99460000Y-144010768D02*
X98580000Y-143130768D01*
X91251768Y-138369000D02*
X89890000Y-139730768D01*
X95809000Y-138369000D02*
X91251768Y-138369000D01*
X98580000Y-143130768D02*
X98580000Y-141140000D01*
X98580000Y-141140000D02*
X95809000Y-138369000D01*
X100010000Y-146170000D02*
X99460000Y-145620000D01*
X100010000Y-147540000D02*
X100010000Y-146170000D01*
X99460000Y-145620000D02*
X99460000Y-144010768D01*
D16*
%TO.N,+5V*%
X64470000Y-147650000D02*
X64540000Y-147650000D01*
X64540000Y-147650000D02*
X66880000Y-145310000D01*
X66880000Y-145310000D02*
X66880000Y-144360000D01*
D17*
%TO.N,/RAMPCLK*%
X77080000Y-154590000D02*
X77620000Y-154590000D01*
X89232189Y-133660000D02*
X93080000Y-133660000D01*
X84159000Y-148051000D02*
X84159000Y-138733189D01*
X77620000Y-154590000D02*
X84159000Y-148051000D01*
X84159000Y-138733189D02*
X89232189Y-133660000D01*
%TO.N,/MUXOUT*%
X97870000Y-149257811D02*
X90077811Y-157050000D01*
X90077811Y-157050000D02*
X76050000Y-157050000D01*
X76050000Y-157050000D02*
X75120000Y-156120000D01*
X97870000Y-143769138D02*
X97870000Y-149257811D01*
X97886620Y-143752518D02*
X97870000Y-143769138D01*
X75120000Y-156120000D02*
X75120000Y-154590000D01*
%TO.N,/CSB*%
X98910000Y-137280000D02*
X98910000Y-135252189D01*
X94867811Y-131210000D02*
X84450000Y-131210000D01*
X80020000Y-135640000D02*
X80020000Y-144456834D01*
X77750000Y-146726834D02*
X77750000Y-147470000D01*
X98910000Y-135252189D02*
X94867811Y-131210000D01*
X80020000Y-144456834D02*
X77750000Y-146726834D01*
X84450000Y-131210000D02*
X80020000Y-135640000D01*
%TO.N,/SYSREFREQ*%
X76440000Y-154610000D02*
X76440000Y-155360000D01*
X78350000Y-155790000D02*
X85060000Y-149080000D01*
X85060000Y-139210000D02*
X89760000Y-134510000D01*
X76870000Y-155790000D02*
X78350000Y-155790000D01*
X97530000Y-134510000D02*
X98260000Y-135240000D01*
X85060000Y-149080000D02*
X85060000Y-139210000D01*
X89760000Y-134510000D02*
X97530000Y-134510000D01*
X76440000Y-155360000D02*
X76870000Y-155790000D01*
%TO.N,/RAMPDIR*%
X86680000Y-132020000D02*
X90330000Y-132020000D01*
X81980000Y-149000000D02*
X81980000Y-136720000D01*
X81980000Y-136720000D02*
X86680000Y-132020000D01*
X90330000Y-132020000D02*
X91160000Y-132850000D01*
X79280000Y-151700000D02*
X81980000Y-149000000D01*
%TO.N,/SYNC*%
X75790000Y-155140000D02*
X75790000Y-155650000D01*
X79210000Y-156340000D02*
X87970000Y-147580000D01*
X76480000Y-156340000D02*
X79210000Y-156340000D01*
X75790000Y-155650000D02*
X76480000Y-156340000D01*
%TO.N,/PG*%
X71700000Y-142780000D02*
X71700000Y-143600000D01*
X72540000Y-141940000D02*
X71700000Y-142780000D01*
%TD*%
M02*
