%TF.GenerationSoftware,KiCad,Pcbnew,9.0.7*%
%TF.CreationDate,2026-03-25T21:34:23-04:00*%
%TF.ProjectId,Mixer,4d697865-722e-46b6-9963-61645f706362,rev?*%
%TF.SameCoordinates,Original*%
%TF.FileFunction,Copper,L3,Inr*%
%TF.FilePolarity,Positive*%
%FSLAX46Y46*%
G04 Gerber Fmt 4.6, Leading zero omitted, Abs format (unit mm)*
G04 Created by KiCad (PCBNEW 9.0.7) date 2026-03-25 21:34:23*
%MOMM*%
%LPD*%
G01*
G04 APERTURE LIST*
%TA.AperFunction,ComponentPad*%
%ADD10C,2.600000*%
%TD*%
%TA.AperFunction,ViaPad*%
%ADD11C,0.400000*%
%TD*%
%TA.AperFunction,ViaPad*%
%ADD12C,0.480000*%
%TD*%
%TA.AperFunction,ViaPad*%
%ADD13C,1.000000*%
%TD*%
G04 APERTURE END LIST*
D10*
%TO.N,GND*%
%TO.C,H1*%
X128050000Y-120940000D03*
%TD*%
%TO.N,GND*%
%TO.C,H3*%
X59300000Y-165730000D03*
%TD*%
%TO.N,GND*%
%TO.C,H2*%
X128050000Y-165730000D03*
%TD*%
%TO.N,GND*%
%TO.C,H4*%
X59300000Y-120940000D03*
%TD*%
D11*
%TO.N,+3V3*%
X86060000Y-143050000D03*
X90610000Y-146610000D03*
X73890000Y-153680000D03*
X92850000Y-147630000D03*
X96050000Y-139930000D03*
X95375000Y-147185000D03*
X89035000Y-140465000D03*
X72410000Y-151020000D03*
X97390000Y-142720000D03*
X74270000Y-147060000D03*
D12*
%TO.N,GND*%
X64330000Y-142050000D03*
D13*
X113093333Y-125241667D03*
D11*
X112241067Y-148485575D03*
D13*
X124470000Y-149700000D03*
D11*
X97650000Y-137250000D03*
X94820000Y-146950000D03*
X71350000Y-148340000D03*
X95810000Y-140620000D03*
X93040000Y-133050000D03*
X111683788Y-137807281D03*
D12*
X64450000Y-148460000D03*
D11*
X111781447Y-148945196D03*
X75250000Y-140970000D03*
X74480000Y-154620000D03*
D13*
X112946667Y-161299998D03*
D11*
X76180000Y-141870000D03*
X99520000Y-142020000D03*
X88510000Y-153920000D03*
X72630000Y-150390000D03*
X89820000Y-150260000D03*
X117212028Y-153442394D03*
X75250000Y-141870000D03*
D13*
X124580000Y-128343333D03*
X57940000Y-137210000D03*
D11*
X91210000Y-131970000D03*
X95690000Y-150130000D03*
D12*
X72380000Y-143600000D03*
D11*
X116745337Y-153909084D03*
X95040000Y-146470000D03*
X99220000Y-149870000D03*
D12*
X67980000Y-141100000D03*
D11*
X87780000Y-148460000D03*
X86120000Y-139060000D03*
X76180000Y-142770000D03*
D12*
X63960000Y-146420000D03*
X64520000Y-136620000D03*
D11*
X86300000Y-135880000D03*
D13*
X121623334Y-125271666D03*
D11*
X96130000Y-148000000D03*
X117071942Y-133310082D03*
X90330000Y-146070000D03*
X77040000Y-147060000D03*
X68950000Y-154460000D03*
X93700000Y-133490000D03*
X116612322Y-132850462D03*
D12*
X65700000Y-141100000D03*
D11*
X88270000Y-142030000D03*
X87050000Y-147050000D03*
X87910000Y-135620000D03*
X89620000Y-145380000D03*
X77080000Y-155200000D03*
X88870000Y-141730000D03*
D13*
X124550000Y-136873333D03*
D11*
X105270000Y-149800000D03*
D13*
X124440000Y-158230000D03*
D11*
X90710000Y-155780000D03*
X97230000Y-135260000D03*
D12*
X80270000Y-144880000D03*
X78160000Y-140910000D03*
D11*
X88470000Y-148530000D03*
X75250000Y-142770000D03*
X86870000Y-138300000D03*
X90320000Y-132800000D03*
X105140000Y-141770000D03*
X88910000Y-144700000D03*
X98380000Y-137990000D03*
D12*
X64450000Y-153870000D03*
X71870000Y-139360000D03*
D13*
X64990000Y-150360000D03*
D11*
X90560000Y-139840000D03*
D13*
X65170000Y-140140000D03*
X57890000Y-153200000D03*
D11*
X88130000Y-133980000D03*
X91850000Y-132870000D03*
X69830000Y-152040000D03*
X98460000Y-143760000D03*
D13*
X121476668Y-161330000D03*
D12*
X63969999Y-144075000D03*
D11*
X112157550Y-138238616D03*
D12*
X83050000Y-137750000D03*
D11*
X91720000Y-138920000D03*
X91930000Y-149620000D03*
X94430000Y-149600000D03*
X76180000Y-140970000D03*
D12*
X74150000Y-144390000D03*
D11*
%TO.N,Net-(IC2-VTUNE)*%
X89890000Y-139800000D03*
X100010000Y-147540000D03*
D12*
%TO.N,+5V*%
X66880000Y-144360000D03*
X64470000Y-147650000D03*
D11*
%TO.N,/RAMPCLK*%
X93080000Y-133660000D03*
X77080000Y-154590000D03*
%TO.N,/MUXOUT*%
X75120000Y-154590000D03*
X97886620Y-143752518D03*
%TO.N,/CSB*%
X98910000Y-137280000D03*
X77750000Y-147470000D03*
%TO.N,/SYSREFREQ*%
X76440000Y-154610000D03*
X98260000Y-135240000D03*
%TO.N,/RAMPDIR*%
X91160000Y-132850000D03*
X79280000Y-151700000D03*
%TO.N,/SYNC*%
X75790000Y-155140000D03*
X87970000Y-147580000D03*
D12*
%TO.N,/PG*%
X71700000Y-143600000D03*
X72540000Y-141940000D03*
%TD*%
%TA.AperFunction,Conductor*%
%TO.N,GND*%
G36*
X131892539Y-117250185D02*
G01*
X131938294Y-117302989D01*
X131949500Y-117354500D01*
X131949500Y-168845500D01*
X131929815Y-168912539D01*
X131877011Y-168958294D01*
X131825500Y-168969500D01*
X55114500Y-168969500D01*
X55047461Y-168949815D01*
X55001706Y-168897011D01*
X54990500Y-168845500D01*
X54990500Y-153748995D01*
X73189499Y-153748995D01*
X73216418Y-153884322D01*
X73216421Y-153884332D01*
X73269221Y-154011804D01*
X73269228Y-154011817D01*
X73345885Y-154126541D01*
X73345888Y-154126545D01*
X73443454Y-154224111D01*
X73443458Y-154224114D01*
X73558182Y-154300771D01*
X73558195Y-154300778D01*
X73630142Y-154330579D01*
X73685672Y-154353580D01*
X73685676Y-154353580D01*
X73685677Y-154353581D01*
X73821004Y-154380500D01*
X73821007Y-154380500D01*
X73958995Y-154380500D01*
X74050041Y-154362389D01*
X74094328Y-154353580D01*
X74221811Y-154300775D01*
X74251411Y-154280996D01*
X74318087Y-154260118D01*
X74385468Y-154278601D01*
X74432159Y-154330579D01*
X74443337Y-154399549D01*
X74441920Y-154408289D01*
X74419500Y-154521002D01*
X74419500Y-154521007D01*
X74419500Y-154658993D01*
X74419500Y-154658995D01*
X74419499Y-154658995D01*
X74446418Y-154794322D01*
X74446421Y-154794332D01*
X74499221Y-154921804D01*
X74499228Y-154921817D01*
X74575885Y-155036541D01*
X74575888Y-155036545D01*
X74673454Y-155134111D01*
X74673458Y-155134114D01*
X74788182Y-155210771D01*
X74788195Y-155210778D01*
X74871593Y-155245322D01*
X74915672Y-155263580D01*
X75016218Y-155283580D01*
X75032989Y-155286916D01*
X75094900Y-155319300D01*
X75123359Y-155361081D01*
X75169221Y-155471804D01*
X75169228Y-155471817D01*
X75245885Y-155586541D01*
X75245888Y-155586545D01*
X75343454Y-155684111D01*
X75343458Y-155684114D01*
X75458182Y-155760771D01*
X75458195Y-155760778D01*
X75585667Y-155813578D01*
X75585672Y-155813580D01*
X75585676Y-155813580D01*
X75585677Y-155813581D01*
X75721004Y-155840500D01*
X75721007Y-155840500D01*
X75858995Y-155840500D01*
X75950041Y-155822389D01*
X75994328Y-155813580D01*
X76121811Y-155760775D01*
X76236542Y-155684114D01*
X76334114Y-155586542D01*
X76410775Y-155471811D01*
X76449409Y-155378539D01*
X76450603Y-155377057D01*
X76450863Y-155375170D01*
X76472435Y-155349965D01*
X76493248Y-155324138D01*
X76495448Y-155323076D01*
X76496295Y-155322088D01*
X76504050Y-155318928D01*
X76528309Y-155307231D01*
X76533964Y-155305532D01*
X76644328Y-155283580D01*
X76742489Y-155242920D01*
X76748482Y-155241121D01*
X76777402Y-155240944D01*
X76806158Y-155237853D01*
X76815888Y-155240710D01*
X76818350Y-155240695D01*
X76820517Y-155242069D01*
X76831587Y-155245319D01*
X76875672Y-155263580D01*
X76875676Y-155263580D01*
X76875677Y-155263581D01*
X77011004Y-155290500D01*
X77011007Y-155290500D01*
X77148995Y-155290500D01*
X77240041Y-155272389D01*
X77284328Y-155263580D01*
X77411811Y-155210775D01*
X77526542Y-155134114D01*
X77624114Y-155036542D01*
X77700775Y-154921811D01*
X77753580Y-154794328D01*
X77780500Y-154658993D01*
X77780500Y-154521007D01*
X77780500Y-154521004D01*
X77753581Y-154385677D01*
X77753580Y-154385676D01*
X77753580Y-154385672D01*
X77718413Y-154300771D01*
X77700778Y-154258195D01*
X77700771Y-154258182D01*
X77624114Y-154143458D01*
X77624111Y-154143454D01*
X77526545Y-154045888D01*
X77526541Y-154045885D01*
X77411817Y-153969228D01*
X77411804Y-153969221D01*
X77284332Y-153916421D01*
X77284322Y-153916418D01*
X77148995Y-153889500D01*
X77148993Y-153889500D01*
X77011007Y-153889500D01*
X77011005Y-153889500D01*
X76875677Y-153916418D01*
X76875667Y-153916421D01*
X76783309Y-153954677D01*
X76713840Y-153962146D01*
X76688406Y-153954677D01*
X76644328Y-153936420D01*
X76644322Y-153936418D01*
X76508995Y-153909500D01*
X76508993Y-153909500D01*
X76371007Y-153909500D01*
X76371005Y-153909500D01*
X76235677Y-153936418D01*
X76235667Y-153936421D01*
X76108195Y-153989221D01*
X76108182Y-153989228D01*
X75993458Y-154065885D01*
X75993454Y-154065888D01*
X75895888Y-154163454D01*
X75895882Y-154163462D01*
X75889780Y-154172594D01*
X75836166Y-154217397D01*
X75766841Y-154226101D01*
X75703815Y-154195944D01*
X75683578Y-154172588D01*
X75664115Y-154143459D01*
X75664111Y-154143454D01*
X75566545Y-154045888D01*
X75566541Y-154045885D01*
X75451817Y-153969228D01*
X75451804Y-153969221D01*
X75324332Y-153916421D01*
X75324322Y-153916418D01*
X75188995Y-153889500D01*
X75188993Y-153889500D01*
X75051007Y-153889500D01*
X75051005Y-153889500D01*
X74915677Y-153916418D01*
X74915667Y-153916421D01*
X74788195Y-153969221D01*
X74788179Y-153969230D01*
X74758585Y-153989004D01*
X74691907Y-154009881D01*
X74624528Y-153991395D01*
X74577838Y-153939416D01*
X74566663Y-153870446D01*
X74568079Y-153861709D01*
X74590500Y-153748995D01*
X74590500Y-153611004D01*
X74563581Y-153475677D01*
X74563580Y-153475676D01*
X74563580Y-153475672D01*
X74563578Y-153475667D01*
X74510778Y-153348195D01*
X74510771Y-153348182D01*
X74434114Y-153233458D01*
X74434111Y-153233454D01*
X74336545Y-153135888D01*
X74336541Y-153135885D01*
X74221817Y-153059228D01*
X74221804Y-153059221D01*
X74094332Y-153006421D01*
X74094322Y-153006418D01*
X73958995Y-152979500D01*
X73958993Y-152979500D01*
X73821007Y-152979500D01*
X73821005Y-152979500D01*
X73685677Y-153006418D01*
X73685667Y-153006421D01*
X73558195Y-153059221D01*
X73558182Y-153059228D01*
X73443458Y-153135885D01*
X73443454Y-153135888D01*
X73345888Y-153233454D01*
X73345885Y-153233458D01*
X73269228Y-153348182D01*
X73269221Y-153348195D01*
X73216421Y-153475667D01*
X73216418Y-153475677D01*
X73189500Y-153611004D01*
X73189500Y-153611007D01*
X73189500Y-153748993D01*
X73189500Y-153748995D01*
X73189499Y-153748995D01*
X54990500Y-153748995D01*
X54990500Y-151768995D01*
X78579499Y-151768995D01*
X78606418Y-151904322D01*
X78606421Y-151904332D01*
X78659221Y-152031804D01*
X78659228Y-152031817D01*
X78735885Y-152146541D01*
X78735888Y-152146545D01*
X78833454Y-152244111D01*
X78833458Y-152244114D01*
X78948182Y-152320771D01*
X78948195Y-152320778D01*
X79075667Y-152373578D01*
X79075672Y-152373580D01*
X79075676Y-152373580D01*
X79075677Y-152373581D01*
X79211004Y-152400500D01*
X79211007Y-152400500D01*
X79348995Y-152400500D01*
X79440041Y-152382389D01*
X79484328Y-152373580D01*
X79611811Y-152320775D01*
X79726542Y-152244114D01*
X79824114Y-152146542D01*
X79900775Y-152031811D01*
X79953580Y-151904328D01*
X79980500Y-151768993D01*
X79980500Y-151631007D01*
X79980500Y-151631004D01*
X79953581Y-151495677D01*
X79953580Y-151495676D01*
X79953580Y-151495672D01*
X79941514Y-151466541D01*
X79900778Y-151368195D01*
X79900771Y-151368182D01*
X79824114Y-151253458D01*
X79824111Y-151253454D01*
X79726545Y-151155888D01*
X79726541Y-151155885D01*
X79611817Y-151079228D01*
X79611804Y-151079221D01*
X79484332Y-151026421D01*
X79484322Y-151026418D01*
X79348995Y-150999500D01*
X79348993Y-150999500D01*
X79211007Y-150999500D01*
X79211005Y-150999500D01*
X79075677Y-151026418D01*
X79075667Y-151026421D01*
X78948195Y-151079221D01*
X78948182Y-151079228D01*
X78833458Y-151155885D01*
X78833454Y-151155888D01*
X78735888Y-151253454D01*
X78735885Y-151253458D01*
X78659228Y-151368182D01*
X78659221Y-151368195D01*
X78606421Y-151495667D01*
X78606418Y-151495677D01*
X78579500Y-151631004D01*
X78579500Y-151631007D01*
X78579500Y-151768993D01*
X78579500Y-151768995D01*
X78579499Y-151768995D01*
X54990500Y-151768995D01*
X54990500Y-151088995D01*
X71709499Y-151088995D01*
X71736418Y-151224322D01*
X71736421Y-151224332D01*
X71789221Y-151351804D01*
X71789228Y-151351817D01*
X71865885Y-151466541D01*
X71865888Y-151466545D01*
X71963454Y-151564111D01*
X71963458Y-151564114D01*
X72078182Y-151640771D01*
X72078195Y-151640778D01*
X72205667Y-151693578D01*
X72205672Y-151693580D01*
X72205676Y-151693580D01*
X72205677Y-151693581D01*
X72341004Y-151720500D01*
X72341007Y-151720500D01*
X72478995Y-151720500D01*
X72570041Y-151702389D01*
X72614328Y-151693580D01*
X72741811Y-151640775D01*
X72856542Y-151564114D01*
X72856545Y-151564111D01*
X72883423Y-151537234D01*
X72954111Y-151466545D01*
X72954114Y-151466542D01*
X73030775Y-151351811D01*
X73083580Y-151224328D01*
X73110500Y-151088993D01*
X73110500Y-150951007D01*
X73110500Y-150951004D01*
X73083581Y-150815677D01*
X73083580Y-150815676D01*
X73083580Y-150815672D01*
X73083578Y-150815667D01*
X73030778Y-150688195D01*
X73030771Y-150688182D01*
X72954114Y-150573458D01*
X72954111Y-150573454D01*
X72856545Y-150475888D01*
X72856541Y-150475885D01*
X72741817Y-150399228D01*
X72741804Y-150399221D01*
X72614332Y-150346421D01*
X72614322Y-150346418D01*
X72478995Y-150319500D01*
X72478993Y-150319500D01*
X72341007Y-150319500D01*
X72341005Y-150319500D01*
X72205677Y-150346418D01*
X72205667Y-150346421D01*
X72078195Y-150399221D01*
X72078182Y-150399228D01*
X71963458Y-150475885D01*
X71963454Y-150475888D01*
X71865888Y-150573454D01*
X71865885Y-150573458D01*
X71789228Y-150688182D01*
X71789221Y-150688195D01*
X71736421Y-150815667D01*
X71736418Y-150815677D01*
X71709500Y-150951004D01*
X71709500Y-150951007D01*
X71709500Y-151088993D01*
X71709500Y-151088995D01*
X71709499Y-151088995D01*
X54990500Y-151088995D01*
X54990500Y-148070817D01*
X60804500Y-148070817D01*
X60804500Y-148209183D01*
X60830503Y-148306226D01*
X60840312Y-148342835D01*
X60840313Y-148342838D01*
X60909492Y-148462661D01*
X60909494Y-148462664D01*
X60909495Y-148462665D01*
X61007335Y-148560505D01*
X61127164Y-148629688D01*
X61260817Y-148665500D01*
X61260819Y-148665500D01*
X61399181Y-148665500D01*
X61399183Y-148665500D01*
X61532836Y-148629688D01*
X61652665Y-148560505D01*
X61750505Y-148462665D01*
X61819688Y-148342836D01*
X61855500Y-148209183D01*
X61855500Y-148070817D01*
X61819688Y-147937164D01*
X61760316Y-147834328D01*
X61750507Y-147817338D01*
X61750503Y-147817333D01*
X61652666Y-147719496D01*
X61652661Y-147719492D01*
X61581423Y-147678363D01*
X61581422Y-147678363D01*
X61532836Y-147650312D01*
X61462796Y-147631545D01*
X61399183Y-147614500D01*
X61260817Y-147614500D01*
X61127164Y-147650312D01*
X61127161Y-147650313D01*
X61007338Y-147719492D01*
X61007333Y-147719496D01*
X60909496Y-147817333D01*
X60909492Y-147817338D01*
X60840313Y-147937161D01*
X60840312Y-147937164D01*
X60804500Y-148070817D01*
X54990500Y-148070817D01*
X54990500Y-147577062D01*
X63729500Y-147577062D01*
X63729500Y-147722937D01*
X63757955Y-147865988D01*
X63757958Y-147866000D01*
X63813773Y-148000751D01*
X63813780Y-148000764D01*
X63894815Y-148122040D01*
X63894818Y-148122044D01*
X63997955Y-148225181D01*
X63997959Y-148225184D01*
X64119235Y-148306219D01*
X64119248Y-148306226D01*
X64253999Y-148362041D01*
X64254004Y-148362043D01*
X64397062Y-148390499D01*
X64397065Y-148390500D01*
X64397067Y-148390500D01*
X64542935Y-148390500D01*
X64542936Y-148390499D01*
X64685996Y-148362043D01*
X64820758Y-148306223D01*
X64942041Y-148225184D01*
X65045184Y-148122041D01*
X65126223Y-148000758D01*
X65182043Y-147865996D01*
X65210500Y-147722933D01*
X65210500Y-147577067D01*
X65210500Y-147577064D01*
X65210499Y-147577062D01*
X65202927Y-147538993D01*
X65182043Y-147434004D01*
X65164563Y-147391804D01*
X65126226Y-147299248D01*
X65126219Y-147299235D01*
X65045184Y-147177959D01*
X65045181Y-147177955D01*
X64996221Y-147128995D01*
X73569499Y-147128995D01*
X73596418Y-147264322D01*
X73596421Y-147264332D01*
X73649221Y-147391804D01*
X73649228Y-147391817D01*
X73725885Y-147506541D01*
X73725888Y-147506545D01*
X73823454Y-147604111D01*
X73823458Y-147604114D01*
X73938182Y-147680771D01*
X73938195Y-147680778D01*
X74039977Y-147722937D01*
X74065672Y-147733580D01*
X74065676Y-147733580D01*
X74065677Y-147733581D01*
X74201004Y-147760500D01*
X74201007Y-147760500D01*
X74338995Y-147760500D01*
X74430041Y-147742389D01*
X74474328Y-147733580D01*
X74601811Y-147680775D01*
X74716542Y-147604114D01*
X74781661Y-147538995D01*
X77049499Y-147538995D01*
X77076418Y-147674322D01*
X77076421Y-147674332D01*
X77129221Y-147801804D01*
X77129228Y-147801817D01*
X77205885Y-147916541D01*
X77205888Y-147916545D01*
X77303454Y-148014111D01*
X77303458Y-148014114D01*
X77418182Y-148090771D01*
X77418195Y-148090778D01*
X77545667Y-148143578D01*
X77545672Y-148143580D01*
X77545676Y-148143580D01*
X77545677Y-148143581D01*
X77681004Y-148170500D01*
X77681007Y-148170500D01*
X77818995Y-148170500D01*
X77910041Y-148152389D01*
X77954328Y-148143580D01*
X78081811Y-148090775D01*
X78196542Y-148014114D01*
X78294114Y-147916542D01*
X78370775Y-147801811D01*
X78423580Y-147674328D01*
X78428619Y-147648995D01*
X87269499Y-147648995D01*
X87296418Y-147784322D01*
X87296421Y-147784332D01*
X87349221Y-147911804D01*
X87349228Y-147911817D01*
X87425885Y-148026541D01*
X87425888Y-148026545D01*
X87523454Y-148124111D01*
X87523458Y-148124114D01*
X87638182Y-148200771D01*
X87638195Y-148200778D01*
X87734094Y-148240500D01*
X87765672Y-148253580D01*
X87765676Y-148253580D01*
X87765677Y-148253581D01*
X87901004Y-148280500D01*
X87901007Y-148280500D01*
X88038995Y-148280500D01*
X88130041Y-148262389D01*
X88174328Y-148253580D01*
X88301811Y-148200775D01*
X88416542Y-148124114D01*
X88514114Y-148026542D01*
X88590775Y-147911811D01*
X88643580Y-147784328D01*
X88653674Y-147733581D01*
X88660554Y-147698995D01*
X92149499Y-147698995D01*
X92176418Y-147834322D01*
X92176421Y-147834332D01*
X92229221Y-147961804D01*
X92229228Y-147961817D01*
X92305885Y-148076541D01*
X92305888Y-148076545D01*
X92403454Y-148174111D01*
X92403458Y-148174114D01*
X92518182Y-148250771D01*
X92518195Y-148250778D01*
X92645667Y-148303578D01*
X92645672Y-148303580D01*
X92645676Y-148303580D01*
X92645677Y-148303581D01*
X92781004Y-148330500D01*
X92781007Y-148330500D01*
X92918995Y-148330500D01*
X93010041Y-148312389D01*
X93054328Y-148303580D01*
X93181811Y-148250775D01*
X93296542Y-148174114D01*
X93394114Y-148076542D01*
X93470775Y-147961811D01*
X93523580Y-147834328D01*
X93533527Y-147784322D01*
X93550500Y-147698995D01*
X93550500Y-147561004D01*
X93523581Y-147425677D01*
X93523580Y-147425676D01*
X93523580Y-147425672D01*
X93520179Y-147417461D01*
X93470778Y-147298195D01*
X93470771Y-147298182D01*
X93441246Y-147253995D01*
X94674499Y-147253995D01*
X94701418Y-147389322D01*
X94701421Y-147389332D01*
X94754221Y-147516804D01*
X94754228Y-147516817D01*
X94830885Y-147631541D01*
X94830888Y-147631545D01*
X94928454Y-147729111D01*
X94928458Y-147729114D01*
X95043182Y-147805771D01*
X95043195Y-147805778D01*
X95170667Y-147858578D01*
X95170672Y-147858580D01*
X95170676Y-147858580D01*
X95170677Y-147858581D01*
X95306004Y-147885500D01*
X95306007Y-147885500D01*
X95443995Y-147885500D01*
X95542025Y-147866000D01*
X95579328Y-147858580D01*
X95706811Y-147805775D01*
X95821542Y-147729114D01*
X95919114Y-147631542D01*
X95934179Y-147608995D01*
X99309499Y-147608995D01*
X99336418Y-147744322D01*
X99336421Y-147744332D01*
X99389221Y-147871804D01*
X99389228Y-147871817D01*
X99465885Y-147986541D01*
X99465888Y-147986545D01*
X99563454Y-148084111D01*
X99563458Y-148084114D01*
X99678182Y-148160771D01*
X99678195Y-148160778D01*
X99805667Y-148213578D01*
X99805672Y-148213580D01*
X99805676Y-148213580D01*
X99805677Y-148213581D01*
X99941004Y-148240500D01*
X99941007Y-148240500D01*
X100078995Y-148240500D01*
X100170041Y-148222389D01*
X100214328Y-148213580D01*
X100341811Y-148160775D01*
X100456542Y-148084114D01*
X100554114Y-147986542D01*
X100630775Y-147871811D01*
X100683580Y-147744328D01*
X100702543Y-147648995D01*
X100710500Y-147608995D01*
X100710500Y-147471004D01*
X100683581Y-147335677D01*
X100683580Y-147335676D01*
X100683580Y-147335672D01*
X100683578Y-147335667D01*
X100630778Y-147208195D01*
X100630771Y-147208182D01*
X100554114Y-147093458D01*
X100554111Y-147093454D01*
X100456545Y-146995888D01*
X100456541Y-146995885D01*
X100341817Y-146919228D01*
X100341804Y-146919221D01*
X100214332Y-146866421D01*
X100214322Y-146866418D01*
X100078995Y-146839500D01*
X100078993Y-146839500D01*
X99941007Y-146839500D01*
X99941005Y-146839500D01*
X99805677Y-146866418D01*
X99805667Y-146866421D01*
X99678195Y-146919221D01*
X99678182Y-146919228D01*
X99563458Y-146995885D01*
X99563454Y-146995888D01*
X99465888Y-147093454D01*
X99465885Y-147093458D01*
X99389228Y-147208182D01*
X99389221Y-147208195D01*
X99336421Y-147335667D01*
X99336418Y-147335677D01*
X99309500Y-147471004D01*
X99309500Y-147471007D01*
X99309500Y-147608993D01*
X99309500Y-147608995D01*
X99309499Y-147608995D01*
X95934179Y-147608995D01*
X95995775Y-147516811D01*
X96048580Y-147389328D01*
X96066498Y-147299248D01*
X96075500Y-147253995D01*
X96075500Y-147116004D01*
X96048581Y-146980677D01*
X96048580Y-146980676D01*
X96048580Y-146980672D01*
X96039698Y-146959228D01*
X95995778Y-146853195D01*
X95995771Y-146853182D01*
X95919114Y-146738458D01*
X95919111Y-146738454D01*
X95821545Y-146640888D01*
X95821541Y-146640885D01*
X95706817Y-146564228D01*
X95706804Y-146564221D01*
X95579332Y-146511421D01*
X95579322Y-146511418D01*
X95443995Y-146484500D01*
X95443993Y-146484500D01*
X95306007Y-146484500D01*
X95306005Y-146484500D01*
X95170677Y-146511418D01*
X95170667Y-146511421D01*
X95043195Y-146564221D01*
X95043182Y-146564228D01*
X94928458Y-146640885D01*
X94928454Y-146640888D01*
X94830888Y-146738454D01*
X94830885Y-146738458D01*
X94754228Y-146853182D01*
X94754221Y-146853195D01*
X94701421Y-146980667D01*
X94701418Y-146980677D01*
X94674500Y-147116004D01*
X94674500Y-147116007D01*
X94674500Y-147253993D01*
X94674500Y-147253995D01*
X94674499Y-147253995D01*
X93441246Y-147253995D01*
X93394114Y-147183458D01*
X93394111Y-147183454D01*
X93296545Y-147085888D01*
X93296541Y-147085885D01*
X93181817Y-147009228D01*
X93181804Y-147009221D01*
X93054332Y-146956421D01*
X93054322Y-146956418D01*
X92918995Y-146929500D01*
X92918993Y-146929500D01*
X92781007Y-146929500D01*
X92781005Y-146929500D01*
X92645677Y-146956418D01*
X92645667Y-146956421D01*
X92518195Y-147009221D01*
X92518182Y-147009228D01*
X92403458Y-147085885D01*
X92403454Y-147085888D01*
X92305888Y-147183454D01*
X92305885Y-147183458D01*
X92229228Y-147298182D01*
X92229221Y-147298195D01*
X92176421Y-147425667D01*
X92176418Y-147425677D01*
X92149500Y-147561004D01*
X92149500Y-147561007D01*
X92149500Y-147698993D01*
X92149500Y-147698995D01*
X92149499Y-147698995D01*
X88660554Y-147698995D01*
X88670500Y-147648995D01*
X88670500Y-147511004D01*
X88643581Y-147375677D01*
X88643580Y-147375676D01*
X88643580Y-147375672D01*
X88643578Y-147375667D01*
X88590778Y-147248195D01*
X88590771Y-147248182D01*
X88514114Y-147133458D01*
X88514111Y-147133454D01*
X88416545Y-147035888D01*
X88416541Y-147035885D01*
X88301817Y-146959228D01*
X88301804Y-146959221D01*
X88174332Y-146906421D01*
X88174322Y-146906418D01*
X88038995Y-146879500D01*
X88038993Y-146879500D01*
X87901007Y-146879500D01*
X87901005Y-146879500D01*
X87765677Y-146906418D01*
X87765667Y-146906421D01*
X87638195Y-146959221D01*
X87638182Y-146959228D01*
X87523458Y-147035885D01*
X87523454Y-147035888D01*
X87425888Y-147133454D01*
X87425885Y-147133458D01*
X87349228Y-147248182D01*
X87349221Y-147248195D01*
X87296421Y-147375667D01*
X87296418Y-147375677D01*
X87269500Y-147511004D01*
X87269500Y-147511007D01*
X87269500Y-147648993D01*
X87269500Y-147648995D01*
X87269499Y-147648995D01*
X78428619Y-147648995D01*
X78450500Y-147538993D01*
X78450500Y-147401007D01*
X78450500Y-147401004D01*
X78423581Y-147265677D01*
X78423580Y-147265676D01*
X78423580Y-147265672D01*
X78418743Y-147253995D01*
X78370778Y-147138195D01*
X78370771Y-147138182D01*
X78294114Y-147023458D01*
X78294111Y-147023454D01*
X78196545Y-146925888D01*
X78196541Y-146925885D01*
X78081817Y-146849228D01*
X78081804Y-146849221D01*
X77954332Y-146796421D01*
X77954322Y-146796418D01*
X77818995Y-146769500D01*
X77818993Y-146769500D01*
X77681007Y-146769500D01*
X77681005Y-146769500D01*
X77545677Y-146796418D01*
X77545667Y-146796421D01*
X77418195Y-146849221D01*
X77418182Y-146849228D01*
X77303458Y-146925885D01*
X77303454Y-146925888D01*
X77205888Y-147023454D01*
X77205885Y-147023458D01*
X77129228Y-147138182D01*
X77129221Y-147138195D01*
X77076421Y-147265667D01*
X77076418Y-147265677D01*
X77049500Y-147401004D01*
X77049500Y-147401007D01*
X77049500Y-147538993D01*
X77049500Y-147538995D01*
X77049499Y-147538995D01*
X74781661Y-147538995D01*
X74814114Y-147506542D01*
X74890775Y-147391811D01*
X74891802Y-147389332D01*
X74909145Y-147347463D01*
X74935605Y-147283581D01*
X74943580Y-147264328D01*
X74968671Y-147138189D01*
X74970500Y-147128995D01*
X74970500Y-146991004D01*
X74943581Y-146855677D01*
X74943580Y-146855676D01*
X74943580Y-146855672D01*
X74936881Y-146839500D01*
X74890778Y-146728195D01*
X74890771Y-146728182D01*
X74857905Y-146678995D01*
X89909499Y-146678995D01*
X89936418Y-146814322D01*
X89936421Y-146814332D01*
X89989221Y-146941804D01*
X89989228Y-146941817D01*
X90065885Y-147056541D01*
X90065888Y-147056545D01*
X90163454Y-147154111D01*
X90163458Y-147154114D01*
X90278182Y-147230771D01*
X90278195Y-147230778D01*
X90362426Y-147265667D01*
X90405672Y-147283580D01*
X90405676Y-147283580D01*
X90405677Y-147283581D01*
X90541004Y-147310500D01*
X90541007Y-147310500D01*
X90678995Y-147310500D01*
X90770041Y-147292389D01*
X90814328Y-147283580D01*
X90941811Y-147230775D01*
X91056542Y-147154114D01*
X91154114Y-147056542D01*
X91230775Y-146941811D01*
X91237371Y-146925888D01*
X91283578Y-146814332D01*
X91283580Y-146814328D01*
X91298672Y-146738458D01*
X91310500Y-146678995D01*
X91310500Y-146541004D01*
X91283581Y-146405677D01*
X91283580Y-146405676D01*
X91283580Y-146405672D01*
X91264455Y-146359500D01*
X91230778Y-146278195D01*
X91230771Y-146278182D01*
X91154114Y-146163458D01*
X91154111Y-146163454D01*
X91056545Y-146065888D01*
X91056541Y-146065885D01*
X90941817Y-145989228D01*
X90941804Y-145989221D01*
X90814332Y-145936421D01*
X90814322Y-145936418D01*
X90678995Y-145909500D01*
X90678993Y-145909500D01*
X90541007Y-145909500D01*
X90541005Y-145909500D01*
X90405677Y-145936418D01*
X90405667Y-145936421D01*
X90278195Y-145989221D01*
X90278182Y-145989228D01*
X90163458Y-146065885D01*
X90163454Y-146065888D01*
X90065888Y-146163454D01*
X90065885Y-146163458D01*
X89989228Y-146278182D01*
X89989221Y-146278195D01*
X89936421Y-146405667D01*
X89936418Y-146405677D01*
X89909500Y-146541004D01*
X89909500Y-146541007D01*
X89909500Y-146678993D01*
X89909500Y-146678995D01*
X89909499Y-146678995D01*
X74857905Y-146678995D01*
X74814113Y-146613456D01*
X74716545Y-146515888D01*
X74716541Y-146515885D01*
X74601817Y-146439228D01*
X74601804Y-146439221D01*
X74474332Y-146386421D01*
X74474322Y-146386418D01*
X74338995Y-146359500D01*
X74338993Y-146359500D01*
X74201007Y-146359500D01*
X74201005Y-146359500D01*
X74065677Y-146386418D01*
X74065667Y-146386421D01*
X73938195Y-146439221D01*
X73938182Y-146439228D01*
X73823458Y-146515885D01*
X73823454Y-146515888D01*
X73725888Y-146613454D01*
X73725885Y-146613458D01*
X73649228Y-146728182D01*
X73649221Y-146728195D01*
X73596421Y-146855667D01*
X73596418Y-146855677D01*
X73569500Y-146991004D01*
X73569500Y-146991007D01*
X73569500Y-147128993D01*
X73569500Y-147128995D01*
X73569499Y-147128995D01*
X64996221Y-147128995D01*
X64942044Y-147074818D01*
X64942040Y-147074815D01*
X64820764Y-146993780D01*
X64820751Y-146993773D01*
X64686000Y-146937958D01*
X64685988Y-146937955D01*
X64542936Y-146909500D01*
X64542933Y-146909500D01*
X64397067Y-146909500D01*
X64397064Y-146909500D01*
X64254011Y-146937955D01*
X64253999Y-146937958D01*
X64119248Y-146993773D01*
X64119235Y-146993780D01*
X63997959Y-147074815D01*
X63997955Y-147074818D01*
X63894818Y-147177955D01*
X63894815Y-147177959D01*
X63813780Y-147299235D01*
X63813773Y-147299248D01*
X63757958Y-147433999D01*
X63757955Y-147434011D01*
X63729500Y-147577062D01*
X54990500Y-147577062D01*
X54990500Y-144287062D01*
X66139500Y-144287062D01*
X66139500Y-144432937D01*
X66167955Y-144575988D01*
X66167958Y-144576000D01*
X66223773Y-144710751D01*
X66223780Y-144710764D01*
X66304815Y-144832040D01*
X66304818Y-144832044D01*
X66407955Y-144935181D01*
X66407959Y-144935184D01*
X66529235Y-145016219D01*
X66529248Y-145016226D01*
X66663999Y-145072041D01*
X66664004Y-145072043D01*
X66807062Y-145100499D01*
X66807065Y-145100500D01*
X66807067Y-145100500D01*
X66952935Y-145100500D01*
X66952936Y-145100499D01*
X67095996Y-145072043D01*
X67230758Y-145016223D01*
X67352041Y-144935184D01*
X67455184Y-144832041D01*
X67536223Y-144710758D01*
X67592043Y-144575996D01*
X67620500Y-144432933D01*
X67620500Y-144287067D01*
X67620500Y-144287064D01*
X67620499Y-144287062D01*
X67592044Y-144144011D01*
X67592043Y-144144004D01*
X67592041Y-144143999D01*
X67536226Y-144009248D01*
X67536219Y-144009235D01*
X67455184Y-143887959D01*
X67455181Y-143887955D01*
X67352044Y-143784818D01*
X67352040Y-143784815D01*
X67230764Y-143703780D01*
X67230751Y-143703773D01*
X67096000Y-143647958D01*
X67095988Y-143647955D01*
X67069027Y-143642592D01*
X66952936Y-143619500D01*
X66952933Y-143619500D01*
X66807067Y-143619500D01*
X66807064Y-143619500D01*
X66664011Y-143647955D01*
X66663999Y-143647958D01*
X66529248Y-143703773D01*
X66529235Y-143703780D01*
X66407959Y-143784815D01*
X66407955Y-143784818D01*
X66304818Y-143887955D01*
X66304815Y-143887959D01*
X66223780Y-144009235D01*
X66223773Y-144009248D01*
X66167958Y-144143999D01*
X66167955Y-144144011D01*
X66139500Y-144287062D01*
X54990500Y-144287062D01*
X54990500Y-143527062D01*
X70959500Y-143527062D01*
X70959500Y-143672937D01*
X70987955Y-143815988D01*
X70987958Y-143816000D01*
X71043773Y-143950751D01*
X71043780Y-143950764D01*
X71124815Y-144072040D01*
X71124818Y-144072044D01*
X71227955Y-144175181D01*
X71227959Y-144175184D01*
X71349235Y-144256219D01*
X71349248Y-144256226D01*
X71423706Y-144287067D01*
X71484004Y-144312043D01*
X71627062Y-144340499D01*
X71627065Y-144340500D01*
X71627067Y-144340500D01*
X71772935Y-144340500D01*
X71772936Y-144340499D01*
X71915996Y-144312043D01*
X72050758Y-144256223D01*
X72172041Y-144175184D01*
X72275184Y-144072041D01*
X72356223Y-143950758D01*
X72412043Y-143815996D01*
X72440500Y-143672933D01*
X72440500Y-143527067D01*
X72440500Y-143527064D01*
X72440499Y-143527062D01*
X72432844Y-143488579D01*
X72412043Y-143384004D01*
X72394137Y-143340775D01*
X72356226Y-143249248D01*
X72356219Y-143249235D01*
X72275184Y-143127959D01*
X72275181Y-143127955D01*
X72266221Y-143118995D01*
X85359499Y-143118995D01*
X85386418Y-143254322D01*
X85386421Y-143254332D01*
X85439221Y-143381804D01*
X85439228Y-143381817D01*
X85515885Y-143496541D01*
X85515888Y-143496545D01*
X85613454Y-143594111D01*
X85613458Y-143594114D01*
X85728182Y-143670771D01*
X85728195Y-143670778D01*
X85807863Y-143703777D01*
X85855672Y-143723580D01*
X85855676Y-143723580D01*
X85855677Y-143723581D01*
X85991004Y-143750500D01*
X85991007Y-143750500D01*
X86128995Y-143750500D01*
X86220041Y-143732389D01*
X86264328Y-143723580D01*
X86362924Y-143682740D01*
X86391804Y-143670778D01*
X86391804Y-143670777D01*
X86391811Y-143670775D01*
X86506542Y-143594114D01*
X86604114Y-143496542D01*
X86680775Y-143381811D01*
X86733580Y-143254328D01*
X86751042Y-143166541D01*
X86760500Y-143118995D01*
X86760500Y-142981004D01*
X86733581Y-142845677D01*
X86733580Y-142845676D01*
X86733580Y-142845672D01*
X86710104Y-142788995D01*
X96689499Y-142788995D01*
X96716418Y-142924322D01*
X96716421Y-142924332D01*
X96769221Y-143051804D01*
X96769228Y-143051817D01*
X96845885Y-143166541D01*
X96845888Y-143166545D01*
X96943454Y-143264111D01*
X96943458Y-143264114D01*
X97058182Y-143340771D01*
X97058195Y-143340778D01*
X97149133Y-143378445D01*
X97203537Y-143422285D01*
X97225602Y-143488579D01*
X97216244Y-143540455D01*
X97213040Y-143548190D01*
X97213038Y-143548195D01*
X97186120Y-143683522D01*
X97186120Y-143683525D01*
X97186120Y-143821511D01*
X97186120Y-143821513D01*
X97186119Y-143821513D01*
X97213038Y-143956840D01*
X97213041Y-143956850D01*
X97265841Y-144084322D01*
X97265848Y-144084335D01*
X97342505Y-144199059D01*
X97342508Y-144199063D01*
X97440074Y-144296629D01*
X97440078Y-144296632D01*
X97554802Y-144373289D01*
X97554815Y-144373296D01*
X97682287Y-144426096D01*
X97682292Y-144426098D01*
X97682296Y-144426098D01*
X97682297Y-144426099D01*
X97817624Y-144453018D01*
X97817627Y-144453018D01*
X97955615Y-144453018D01*
X98056586Y-144432933D01*
X98090948Y-144426098D01*
X98218431Y-144373293D01*
X98333162Y-144296632D01*
X98430734Y-144199060D01*
X98507395Y-144084329D01*
X98560200Y-143956846D01*
X98587120Y-143821511D01*
X98587120Y-143683525D01*
X98587120Y-143683522D01*
X98560201Y-143548195D01*
X98560200Y-143548194D01*
X98560200Y-143548190D01*
X98538807Y-143496542D01*
X98507398Y-143420713D01*
X98507391Y-143420700D01*
X98430734Y-143305976D01*
X98430731Y-143305972D01*
X98333165Y-143208406D01*
X98333161Y-143208403D01*
X98218437Y-143131746D01*
X98218424Y-143131739D01*
X98127486Y-143094072D01*
X98073082Y-143050231D01*
X98051017Y-142983937D01*
X98060379Y-142932055D01*
X98063580Y-142924328D01*
X98090500Y-142788993D01*
X98090500Y-142651007D01*
X98090500Y-142651004D01*
X98063581Y-142515677D01*
X98063580Y-142515676D01*
X98063580Y-142515672D01*
X98027771Y-142429221D01*
X98010778Y-142388195D01*
X98010771Y-142388182D01*
X97934114Y-142273458D01*
X97934111Y-142273454D01*
X97836545Y-142175888D01*
X97836541Y-142175885D01*
X97721817Y-142099228D01*
X97721804Y-142099221D01*
X97594332Y-142046421D01*
X97594322Y-142046418D01*
X97458995Y-142019500D01*
X97458993Y-142019500D01*
X97321007Y-142019500D01*
X97321005Y-142019500D01*
X97185677Y-142046418D01*
X97185667Y-142046421D01*
X97058195Y-142099221D01*
X97058182Y-142099228D01*
X96943458Y-142175885D01*
X96943454Y-142175888D01*
X96845888Y-142273454D01*
X96845885Y-142273458D01*
X96769228Y-142388182D01*
X96769221Y-142388195D01*
X96716421Y-142515667D01*
X96716418Y-142515677D01*
X96689500Y-142651004D01*
X96689500Y-142651007D01*
X96689500Y-142788993D01*
X96689500Y-142788995D01*
X96689499Y-142788995D01*
X86710104Y-142788995D01*
X86706587Y-142780505D01*
X86680778Y-142718195D01*
X86680771Y-142718182D01*
X86677847Y-142713806D01*
X86604114Y-142603458D01*
X86604111Y-142603454D01*
X86506545Y-142505888D01*
X86506541Y-142505885D01*
X86391817Y-142429228D01*
X86391804Y-142429221D01*
X86264332Y-142376421D01*
X86264322Y-142376418D01*
X86128995Y-142349500D01*
X86128993Y-142349500D01*
X85991007Y-142349500D01*
X85991005Y-142349500D01*
X85855677Y-142376418D01*
X85855667Y-142376421D01*
X85728195Y-142429221D01*
X85728182Y-142429228D01*
X85613458Y-142505885D01*
X85613454Y-142505888D01*
X85515888Y-142603454D01*
X85515885Y-142603458D01*
X85439228Y-142718182D01*
X85439221Y-142718195D01*
X85386421Y-142845667D01*
X85386418Y-142845677D01*
X85359500Y-142981004D01*
X85359500Y-142981007D01*
X85359500Y-143118993D01*
X85359500Y-143118995D01*
X85359499Y-143118995D01*
X72266221Y-143118995D01*
X72172044Y-143024818D01*
X72172040Y-143024815D01*
X72050764Y-142943780D01*
X72050751Y-142943773D01*
X71916000Y-142887958D01*
X71915988Y-142887955D01*
X71772936Y-142859500D01*
X71772933Y-142859500D01*
X71627067Y-142859500D01*
X71627064Y-142859500D01*
X71484011Y-142887955D01*
X71483999Y-142887958D01*
X71349248Y-142943773D01*
X71349235Y-142943780D01*
X71227959Y-143024815D01*
X71227955Y-143024818D01*
X71124818Y-143127955D01*
X71124815Y-143127959D01*
X71043780Y-143249235D01*
X71043773Y-143249248D01*
X70987958Y-143383999D01*
X70987955Y-143384011D01*
X70959500Y-143527062D01*
X54990500Y-143527062D01*
X54990500Y-142290817D01*
X60804500Y-142290817D01*
X60804500Y-142429183D01*
X60825053Y-142505886D01*
X60840312Y-142562835D01*
X60840313Y-142562838D01*
X60909492Y-142682661D01*
X60909494Y-142682664D01*
X60909495Y-142682665D01*
X61007335Y-142780505D01*
X61007336Y-142780506D01*
X61007338Y-142780507D01*
X61022040Y-142788995D01*
X61127164Y-142849688D01*
X61260817Y-142885500D01*
X61260819Y-142885500D01*
X61399181Y-142885500D01*
X61399183Y-142885500D01*
X61532836Y-142849688D01*
X61652665Y-142780505D01*
X61750505Y-142682665D01*
X61819688Y-142562836D01*
X61855500Y-142429183D01*
X61855500Y-142290817D01*
X61819688Y-142157164D01*
X61750505Y-142037335D01*
X61652665Y-141939495D01*
X61652664Y-141939494D01*
X61652661Y-141939492D01*
X61532838Y-141870313D01*
X61532837Y-141870312D01*
X61532836Y-141870312D01*
X61520707Y-141867062D01*
X71799500Y-141867062D01*
X71799500Y-142012937D01*
X71827955Y-142155988D01*
X71827958Y-142156000D01*
X71883773Y-142290751D01*
X71883780Y-142290764D01*
X71964815Y-142412040D01*
X71964818Y-142412044D01*
X72067955Y-142515181D01*
X72067959Y-142515184D01*
X72189235Y-142596219D01*
X72189248Y-142596226D01*
X72321503Y-142651007D01*
X72324004Y-142652043D01*
X72467062Y-142680499D01*
X72467065Y-142680500D01*
X72467067Y-142680500D01*
X72612935Y-142680500D01*
X72612936Y-142680499D01*
X72755996Y-142652043D01*
X72890758Y-142596223D01*
X73012041Y-142515184D01*
X73115184Y-142412041D01*
X73196223Y-142290758D01*
X73252043Y-142155996D01*
X73280500Y-142012933D01*
X73280500Y-141867067D01*
X73280500Y-141867064D01*
X73280499Y-141867062D01*
X73252044Y-141724011D01*
X73252043Y-141724004D01*
X73252041Y-141723999D01*
X73196226Y-141589248D01*
X73196219Y-141589235D01*
X73115184Y-141467959D01*
X73115181Y-141467955D01*
X73012044Y-141364818D01*
X73012040Y-141364815D01*
X72890764Y-141283780D01*
X72890751Y-141283773D01*
X72756000Y-141227958D01*
X72755988Y-141227955D01*
X72612936Y-141199500D01*
X72612933Y-141199500D01*
X72467067Y-141199500D01*
X72467064Y-141199500D01*
X72324011Y-141227955D01*
X72323999Y-141227958D01*
X72189248Y-141283773D01*
X72189235Y-141283780D01*
X72067959Y-141364815D01*
X72067955Y-141364818D01*
X71964818Y-141467955D01*
X71964815Y-141467959D01*
X71883780Y-141589235D01*
X71883773Y-141589248D01*
X71827958Y-141723999D01*
X71827955Y-141724011D01*
X71799500Y-141867062D01*
X61520707Y-141867062D01*
X61399183Y-141834500D01*
X61260817Y-141834500D01*
X61127164Y-141870312D01*
X61127161Y-141870313D01*
X61007338Y-141939492D01*
X61007333Y-141939496D01*
X60909496Y-142037333D01*
X60909492Y-142037338D01*
X60840313Y-142157161D01*
X60840312Y-142157164D01*
X60804500Y-142290817D01*
X54990500Y-142290817D01*
X54990500Y-140533995D01*
X88334499Y-140533995D01*
X88361418Y-140669322D01*
X88361421Y-140669332D01*
X88414221Y-140796804D01*
X88414228Y-140796817D01*
X88490885Y-140911541D01*
X88490888Y-140911545D01*
X88588454Y-141009111D01*
X88588458Y-141009114D01*
X88703182Y-141085771D01*
X88703195Y-141085778D01*
X88830667Y-141138578D01*
X88830672Y-141138580D01*
X88830676Y-141138580D01*
X88830677Y-141138581D01*
X88966004Y-141165500D01*
X88966007Y-141165500D01*
X89103995Y-141165500D01*
X89195041Y-141147389D01*
X89239328Y-141138580D01*
X89366811Y-141085775D01*
X89481542Y-141009114D01*
X89579114Y-140911542D01*
X89655775Y-140796811D01*
X89708580Y-140669328D01*
X89722309Y-140600309D01*
X89754693Y-140538398D01*
X89815409Y-140503824D01*
X89843926Y-140500500D01*
X89958995Y-140500500D01*
X90091643Y-140474114D01*
X90094328Y-140473580D01*
X90221811Y-140420775D01*
X90336542Y-140344114D01*
X90434114Y-140246542D01*
X90510775Y-140131811D01*
X90563580Y-140004328D01*
X90564641Y-139998995D01*
X95349499Y-139998995D01*
X95376418Y-140134322D01*
X95376421Y-140134332D01*
X95429221Y-140261804D01*
X95429228Y-140261817D01*
X95505885Y-140376541D01*
X95505888Y-140376545D01*
X95603454Y-140474111D01*
X95603458Y-140474114D01*
X95718182Y-140550771D01*
X95718195Y-140550778D01*
X95837775Y-140600309D01*
X95845672Y-140603580D01*
X95845676Y-140603580D01*
X95845677Y-140603581D01*
X95981004Y-140630500D01*
X95981007Y-140630500D01*
X96118995Y-140630500D01*
X96210041Y-140612389D01*
X96254328Y-140603580D01*
X96381811Y-140550775D01*
X96496542Y-140474114D01*
X96594114Y-140376542D01*
X96670775Y-140261811D01*
X96723580Y-140134328D01*
X96750500Y-139998993D01*
X96750500Y-139861007D01*
X96750500Y-139861004D01*
X96723581Y-139725677D01*
X96723580Y-139725676D01*
X96723580Y-139725672D01*
X96698321Y-139664691D01*
X96670778Y-139598195D01*
X96670771Y-139598182D01*
X96594114Y-139483458D01*
X96594111Y-139483454D01*
X96496545Y-139385888D01*
X96496541Y-139385885D01*
X96381817Y-139309228D01*
X96381804Y-139309221D01*
X96254332Y-139256421D01*
X96254322Y-139256418D01*
X96118995Y-139229500D01*
X96118993Y-139229500D01*
X95981007Y-139229500D01*
X95981005Y-139229500D01*
X95845677Y-139256418D01*
X95845667Y-139256421D01*
X95718195Y-139309221D01*
X95718182Y-139309228D01*
X95603458Y-139385885D01*
X95603454Y-139385888D01*
X95505888Y-139483454D01*
X95505885Y-139483458D01*
X95429228Y-139598182D01*
X95429221Y-139598195D01*
X95376421Y-139725667D01*
X95376418Y-139725677D01*
X95349500Y-139861004D01*
X95349500Y-139861007D01*
X95349500Y-139998993D01*
X95349500Y-139998995D01*
X95349499Y-139998995D01*
X90564641Y-139998995D01*
X90572389Y-139960041D01*
X90590500Y-139868995D01*
X90590500Y-139731004D01*
X90563581Y-139595677D01*
X90563580Y-139595676D01*
X90563580Y-139595672D01*
X90517098Y-139483454D01*
X90510778Y-139468195D01*
X90510771Y-139468182D01*
X90434114Y-139353458D01*
X90434111Y-139353454D01*
X90336545Y-139255888D01*
X90336541Y-139255885D01*
X90221817Y-139179228D01*
X90221804Y-139179221D01*
X90094332Y-139126421D01*
X90094322Y-139126418D01*
X89958995Y-139099500D01*
X89958993Y-139099500D01*
X89821007Y-139099500D01*
X89821005Y-139099500D01*
X89685677Y-139126418D01*
X89685667Y-139126421D01*
X89558195Y-139179221D01*
X89558182Y-139179228D01*
X89443458Y-139255885D01*
X89443454Y-139255888D01*
X89345888Y-139353454D01*
X89345885Y-139353458D01*
X89269228Y-139468182D01*
X89269221Y-139468195D01*
X89216421Y-139595667D01*
X89216418Y-139595679D01*
X89202691Y-139664691D01*
X89170307Y-139726602D01*
X89109591Y-139761176D01*
X89081074Y-139764500D01*
X88966005Y-139764500D01*
X88830677Y-139791418D01*
X88830667Y-139791421D01*
X88703195Y-139844221D01*
X88703182Y-139844228D01*
X88588458Y-139920885D01*
X88588454Y-139920888D01*
X88490888Y-140018454D01*
X88490885Y-140018458D01*
X88414228Y-140133182D01*
X88414221Y-140133195D01*
X88361421Y-140260667D01*
X88361418Y-140260677D01*
X88334500Y-140396004D01*
X88334500Y-140396007D01*
X88334500Y-140533993D01*
X88334500Y-140533995D01*
X88334499Y-140533995D01*
X54990500Y-140533995D01*
X54990500Y-137348995D01*
X98209499Y-137348995D01*
X98236418Y-137484322D01*
X98236421Y-137484332D01*
X98289221Y-137611804D01*
X98289228Y-137611817D01*
X98365885Y-137726541D01*
X98365888Y-137726545D01*
X98463454Y-137824111D01*
X98463458Y-137824114D01*
X98578182Y-137900771D01*
X98578195Y-137900778D01*
X98705667Y-137953578D01*
X98705672Y-137953580D01*
X98705676Y-137953580D01*
X98705677Y-137953581D01*
X98841004Y-137980500D01*
X98841007Y-137980500D01*
X98978995Y-137980500D01*
X99070041Y-137962389D01*
X99114328Y-137953580D01*
X99241811Y-137900775D01*
X99356542Y-137824114D01*
X99454114Y-137726542D01*
X99530775Y-137611811D01*
X99583580Y-137484328D01*
X99610500Y-137348993D01*
X99610500Y-137211007D01*
X99610500Y-137211004D01*
X99583581Y-137075677D01*
X99583580Y-137075676D01*
X99583580Y-137075672D01*
X99583578Y-137075667D01*
X99530778Y-136948195D01*
X99530771Y-136948182D01*
X99454114Y-136833458D01*
X99454111Y-136833454D01*
X99356545Y-136735888D01*
X99356541Y-136735885D01*
X99241817Y-136659228D01*
X99241804Y-136659221D01*
X99114332Y-136606421D01*
X99114322Y-136606418D01*
X98978995Y-136579500D01*
X98978993Y-136579500D01*
X98841007Y-136579500D01*
X98841005Y-136579500D01*
X98705677Y-136606418D01*
X98705667Y-136606421D01*
X98578195Y-136659221D01*
X98578182Y-136659228D01*
X98463458Y-136735885D01*
X98463454Y-136735888D01*
X98365888Y-136833454D01*
X98365885Y-136833458D01*
X98289228Y-136948182D01*
X98289221Y-136948195D01*
X98236421Y-137075667D01*
X98236418Y-137075677D01*
X98209500Y-137211004D01*
X98209500Y-137211007D01*
X98209500Y-137348993D01*
X98209500Y-137348995D01*
X98209499Y-137348995D01*
X54990500Y-137348995D01*
X54990500Y-135308995D01*
X97559499Y-135308995D01*
X97586418Y-135444322D01*
X97586421Y-135444332D01*
X97639221Y-135571804D01*
X97639228Y-135571817D01*
X97715885Y-135686541D01*
X97715888Y-135686545D01*
X97813454Y-135784111D01*
X97813458Y-135784114D01*
X97928182Y-135860771D01*
X97928195Y-135860778D01*
X98055667Y-135913578D01*
X98055672Y-135913580D01*
X98055676Y-135913580D01*
X98055677Y-135913581D01*
X98191004Y-135940500D01*
X98191007Y-135940500D01*
X98328995Y-135940500D01*
X98420041Y-135922389D01*
X98464328Y-135913580D01*
X98591811Y-135860775D01*
X98706542Y-135784114D01*
X98804114Y-135686542D01*
X98880775Y-135571811D01*
X98933580Y-135444328D01*
X98960500Y-135308993D01*
X98960500Y-135171007D01*
X98960500Y-135171004D01*
X98933581Y-135035677D01*
X98933580Y-135035676D01*
X98933580Y-135035672D01*
X98933578Y-135035667D01*
X98880778Y-134908195D01*
X98880771Y-134908182D01*
X98804114Y-134793458D01*
X98804111Y-134793454D01*
X98706545Y-134695888D01*
X98706541Y-134695885D01*
X98591817Y-134619228D01*
X98591804Y-134619221D01*
X98464332Y-134566421D01*
X98464322Y-134566418D01*
X98328995Y-134539500D01*
X98328993Y-134539500D01*
X98191007Y-134539500D01*
X98191005Y-134539500D01*
X98055677Y-134566418D01*
X98055667Y-134566421D01*
X97928195Y-134619221D01*
X97928182Y-134619228D01*
X97813458Y-134695885D01*
X97813454Y-134695888D01*
X97715888Y-134793454D01*
X97715885Y-134793458D01*
X97639228Y-134908182D01*
X97639221Y-134908195D01*
X97586421Y-135035667D01*
X97586418Y-135035677D01*
X97559500Y-135171004D01*
X97559500Y-135171007D01*
X97559500Y-135308993D01*
X97559500Y-135308995D01*
X97559499Y-135308995D01*
X54990500Y-135308995D01*
X54990500Y-133728995D01*
X92379499Y-133728995D01*
X92406418Y-133864322D01*
X92406421Y-133864332D01*
X92459221Y-133991804D01*
X92459228Y-133991817D01*
X92535885Y-134106541D01*
X92535888Y-134106545D01*
X92633454Y-134204111D01*
X92633458Y-134204114D01*
X92748182Y-134280771D01*
X92748195Y-134280778D01*
X92875667Y-134333578D01*
X92875672Y-134333580D01*
X92875676Y-134333580D01*
X92875677Y-134333581D01*
X93011004Y-134360500D01*
X93011007Y-134360500D01*
X93148995Y-134360500D01*
X93240041Y-134342389D01*
X93284328Y-134333580D01*
X93411811Y-134280775D01*
X93526542Y-134204114D01*
X93624114Y-134106542D01*
X93700775Y-133991811D01*
X93753580Y-133864328D01*
X93780500Y-133728993D01*
X93780500Y-133591007D01*
X93780500Y-133591004D01*
X93753581Y-133455677D01*
X93753580Y-133455676D01*
X93753580Y-133455672D01*
X93728081Y-133394111D01*
X93700778Y-133328195D01*
X93700771Y-133328182D01*
X93624114Y-133213458D01*
X93624111Y-133213454D01*
X93526545Y-133115888D01*
X93526541Y-133115885D01*
X93411817Y-133039228D01*
X93411804Y-133039221D01*
X93284332Y-132986421D01*
X93284322Y-132986418D01*
X93148995Y-132959500D01*
X93148993Y-132959500D01*
X93011007Y-132959500D01*
X93011005Y-132959500D01*
X92875677Y-132986418D01*
X92875667Y-132986421D01*
X92748195Y-133039221D01*
X92748182Y-133039228D01*
X92633458Y-133115885D01*
X92633454Y-133115888D01*
X92535888Y-133213454D01*
X92535885Y-133213458D01*
X92459228Y-133328182D01*
X92459221Y-133328195D01*
X92406421Y-133455667D01*
X92406418Y-133455677D01*
X92379500Y-133591004D01*
X92379500Y-133591007D01*
X92379500Y-133728993D01*
X92379500Y-133728995D01*
X92379499Y-133728995D01*
X54990500Y-133728995D01*
X54990500Y-132918995D01*
X90459499Y-132918995D01*
X90486418Y-133054322D01*
X90486421Y-133054332D01*
X90539221Y-133181804D01*
X90539228Y-133181817D01*
X90615885Y-133296541D01*
X90615888Y-133296545D01*
X90713454Y-133394111D01*
X90713458Y-133394114D01*
X90828182Y-133470771D01*
X90828195Y-133470778D01*
X90955667Y-133523578D01*
X90955672Y-133523580D01*
X90955676Y-133523580D01*
X90955677Y-133523581D01*
X91091004Y-133550500D01*
X91091007Y-133550500D01*
X91228995Y-133550500D01*
X91320041Y-133532389D01*
X91364328Y-133523580D01*
X91491811Y-133470775D01*
X91606542Y-133394114D01*
X91704114Y-133296542D01*
X91780775Y-133181811D01*
X91833580Y-133054328D01*
X91860500Y-132918993D01*
X91860500Y-132781007D01*
X91860500Y-132781004D01*
X91833581Y-132645677D01*
X91833580Y-132645676D01*
X91833580Y-132645672D01*
X91833578Y-132645667D01*
X91780778Y-132518195D01*
X91780771Y-132518182D01*
X91704114Y-132403458D01*
X91704111Y-132403454D01*
X91606545Y-132305888D01*
X91606541Y-132305885D01*
X91491817Y-132229228D01*
X91491804Y-132229221D01*
X91364332Y-132176421D01*
X91364322Y-132176418D01*
X91228995Y-132149500D01*
X91228993Y-132149500D01*
X91091007Y-132149500D01*
X91091005Y-132149500D01*
X90955677Y-132176418D01*
X90955667Y-132176421D01*
X90828195Y-132229221D01*
X90828182Y-132229228D01*
X90713458Y-132305885D01*
X90713454Y-132305888D01*
X90615888Y-132403454D01*
X90615885Y-132403458D01*
X90539228Y-132518182D01*
X90539221Y-132518195D01*
X90486421Y-132645667D01*
X90486418Y-132645677D01*
X90459500Y-132781004D01*
X90459500Y-132781007D01*
X90459500Y-132918993D01*
X90459500Y-132918995D01*
X90459499Y-132918995D01*
X54990500Y-132918995D01*
X54990500Y-117354500D01*
X55010185Y-117287461D01*
X55062989Y-117241706D01*
X55114500Y-117230500D01*
X131825500Y-117230500D01*
X131892539Y-117250185D01*
G37*
%TD.AperFunction*%
%TD*%
M02*
