%TF.GenerationSoftware,KiCad,Pcbnew,9.0.7*%
%TF.CreationDate,2026-04-01T20:37:04-04:00*%
%TF.ProjectId,Mixer,4d697865-722e-46b6-9963-61645f706362,rev?*%
%TF.SameCoordinates,Original*%
%TF.FileFunction,Legend,Top*%
%TF.FilePolarity,Positive*%
%FSLAX46Y46*%
G04 Gerber Fmt 4.6, Leading zero omitted, Abs format (unit mm)*
G04 Created by KiCad (PCBNEW 9.0.7) date 2026-04-01 20:37:04*
%MOMM*%
%LPD*%
G01*
G04 APERTURE LIST*
%ADD10C,0.120000*%
%ADD11C,0.100000*%
%ADD12C,0.200000*%
%ADD13C,0.250000*%
%ADD14C,0.325000*%
G04 APERTURE END LIST*
D10*
%TO.C,C26*%
X91499461Y-152792970D02*
X91663276Y-152629155D01*
X92008578Y-153302087D02*
X92172393Y-153138272D01*
D11*
%TO.C,J3*%
X125900000Y-155010000D02*
X125900000Y-155010000D01*
X126000000Y-155010000D02*
X126000000Y-155010000D01*
D12*
X126980000Y-150770000D02*
X126980000Y-152970000D01*
X126980000Y-154970000D02*
X126980000Y-154970000D01*
X126980000Y-154970000D02*
X126980000Y-157170000D01*
D11*
X125900000Y-155010000D02*
G75*
G02*
X126000000Y-155010000I50000J0D01*
G01*
X126000000Y-155010000D02*
G75*
G02*
X125900000Y-155010000I-50000J0D01*
G01*
D10*
%TO.C,C9*%
X97033534Y-138827349D02*
X97197349Y-138663534D01*
X97542651Y-139336466D02*
X97706466Y-139172651D01*
%TO.C,C1*%
X99144165Y-142350000D02*
X99375835Y-142350000D01*
X99144165Y-143070000D02*
X99375835Y-143070000D01*
%TO.C,C23*%
X87422802Y-137724051D02*
X87215949Y-137517198D01*
X88144051Y-137002802D02*
X87937198Y-136795949D01*
D12*
%TO.C,D2*%
X64684600Y-144875000D02*
G75*
G02*
X64635400Y-144875000I-24600J0D01*
G01*
X64635400Y-144875000D02*
G75*
G02*
X64684600Y-144875000I24600J0D01*
G01*
%TO.C,D1*%
X64664600Y-145605000D02*
G75*
G02*
X64615400Y-145605000I-24600J0D01*
G01*
X64615400Y-145605000D02*
G75*
G02*
X64664600Y-145605000I24600J0D01*
G01*
D10*
%TO.C,C3*%
X116586983Y-131221171D02*
X116750798Y-131057356D01*
X117096100Y-131730288D02*
X117259915Y-131566473D01*
%TO.C,C10*%
X95983534Y-147192651D02*
X96147349Y-147356466D01*
X96492651Y-146683534D02*
X96656466Y-146847349D01*
%TO.C,C13*%
X118247349Y-153756466D02*
X118411164Y-153920281D01*
X118756466Y-153247349D02*
X118920281Y-153411164D01*
D12*
%TO.C,IC1*%
X111238311Y-136499133D02*
X112228260Y-135509184D01*
D13*
%TO.C,IC4*%
X77755000Y-143535000D02*
G75*
G02*
X77505000Y-143535000I-125000J0D01*
G01*
X77505000Y-143535000D02*
G75*
G02*
X77755000Y-143535000I125000J0D01*
G01*
D10*
%TO.C,C24*%
X91793534Y-148742651D02*
X91957349Y-148906466D01*
X92302651Y-148233534D02*
X92466466Y-148397349D01*
%TO.C,R3*%
X97670420Y-149504581D02*
X98030654Y-149864815D01*
X98409346Y-148765655D02*
X98769580Y-149125889D01*
D11*
%TO.C,J4*%
X116230000Y-162619999D02*
X116230000Y-162619999D01*
X116230000Y-162719999D02*
X116230000Y-162719999D01*
D12*
X116270000Y-163699999D02*
X114070000Y-163699999D01*
X116270000Y-163699999D02*
X116270000Y-163699999D01*
X120470000Y-163699999D02*
X118270000Y-163699999D01*
D11*
X116230000Y-162619999D02*
G75*
G02*
X116230000Y-162719999I0J-50000D01*
G01*
X116230000Y-162719999D02*
G75*
G02*
X116230000Y-162619999I0J50000D01*
G01*
D10*
%TO.C,C17*%
X95426066Y-152745183D02*
X95262251Y-152581368D01*
X95935183Y-152236066D02*
X95771368Y-152072251D01*
%TO.C,C27*%
X86302226Y-149250364D02*
X86466041Y-149086549D01*
X86811343Y-149759481D02*
X86975158Y-149595666D01*
%TO.C,C32*%
X80120000Y-142515835D02*
X80120000Y-142284165D01*
X80840000Y-142515835D02*
X80840000Y-142284165D01*
%TO.C,C31*%
X72410000Y-140055835D02*
X72410000Y-139824165D01*
X73130000Y-140055835D02*
X73130000Y-139824165D01*
%TO.C,C12*%
X89304304Y-147188559D02*
X89140489Y-147352374D01*
X89813421Y-147697676D02*
X89649606Y-147861491D01*
D11*
%TO.C,Y2*%
X67800000Y-150960000D02*
X67800000Y-150960000D01*
X67900001Y-150960000D02*
X67900001Y-150960000D01*
X67800000Y-150960000D02*
G75*
G02*
X67900000Y-150960000I50000J0D01*
G01*
X67900001Y-150960000D02*
G75*
G02*
X67799999Y-150960000I-50001J1D01*
G01*
D10*
%TO.C,R1*%
X103535276Y-141187500D02*
X104044724Y-141187500D01*
X103535276Y-142232500D02*
X104044724Y-142232500D01*
D11*
%TO.C,J2*%
X125850000Y-133640000D02*
X125850000Y-133640000D01*
X125950000Y-133640000D02*
X125950000Y-133640000D01*
D12*
X126930000Y-129400000D02*
X126930000Y-131600000D01*
X126930000Y-133600000D02*
X126930000Y-133600000D01*
X126930000Y-133600000D02*
X126930000Y-135800000D01*
D11*
X125850000Y-133640000D02*
G75*
G02*
X125950000Y-133640000I50000J0D01*
G01*
X125950000Y-133640000D02*
G75*
G02*
X125850000Y-133640000I-50000J0D01*
G01*
D12*
%TO.C,J5*%
X55049000Y-140780000D02*
X55049000Y-149720000D01*
X55049000Y-149720000D02*
X56527000Y-149720000D01*
X56527000Y-140780000D02*
X55049000Y-140780000D01*
X60527000Y-140780000D02*
X59127000Y-140780000D01*
X60527000Y-149720000D02*
X59127000Y-149720000D01*
D11*
X63427000Y-142050000D02*
X63427000Y-142050000D01*
X63527000Y-142050000D02*
X63527000Y-142050000D01*
X63427000Y-142050000D02*
G75*
G02*
X63527000Y-142050000I50000J0D01*
G01*
X63527000Y-142050000D02*
G75*
G02*
X63427000Y-142050000I-50000J0D01*
G01*
D10*
%TO.C,C5*%
X100659165Y-141100000D02*
X100890835Y-141100000D01*
X100659165Y-141820000D02*
X100890835Y-141820000D01*
%TO.C,C18*%
X89262802Y-135824051D02*
X89055949Y-135617198D01*
X89984051Y-135102802D02*
X89777198Y-134895949D01*
%TO.C,C35*%
X69955835Y-155450000D02*
X69724165Y-155450000D01*
X69955835Y-156170000D02*
X69724165Y-156170000D01*
%TO.C,C8*%
X87787349Y-139726466D02*
X87623534Y-139562651D01*
X88296466Y-139217349D02*
X88132651Y-139053534D01*
%TO.C,C4*%
X118334717Y-132641276D02*
X118170902Y-132805091D01*
X118843834Y-133150393D02*
X118680019Y-133314208D01*
%TO.C,C30*%
X66340000Y-142106267D02*
X66340000Y-141813733D01*
X67360000Y-142106267D02*
X67360000Y-141813733D01*
%TO.C,C11*%
X94343534Y-148722651D02*
X94507349Y-148886466D01*
X94852651Y-148213534D02*
X95016466Y-148377349D01*
%TO.C,R7*%
X81347500Y-142394724D02*
X81347500Y-141885276D01*
X82392500Y-142394724D02*
X82392500Y-141885276D01*
%TO.C,R8*%
X72985276Y-145037500D02*
X73494724Y-145037500D01*
X72985276Y-146082500D02*
X73494724Y-146082500D01*
%TO.C,C21*%
X95365949Y-136402802D02*
X95572802Y-136195949D01*
X96087198Y-137124051D02*
X96294051Y-136917198D01*
D14*
%TO.C,IC5*%
X73667500Y-153914500D02*
G75*
G02*
X73342500Y-153914500I-162500J0D01*
G01*
X73342500Y-153914500D02*
G75*
G02*
X73667500Y-153914500I162500J0D01*
G01*
D10*
%TO.C,C29*%
X75564165Y-146700000D02*
X75795835Y-146700000D01*
X75564165Y-147420000D02*
X75795835Y-147420000D01*
%TO.C,C22*%
X87037349Y-140506466D02*
X86873534Y-140342651D01*
X87546466Y-139997349D02*
X87382651Y-139833534D01*
%TO.C,C19*%
X96303534Y-138087349D02*
X96467349Y-137923534D01*
X96812651Y-138596466D02*
X96976466Y-138432651D01*
%TO.C,C15*%
X88816066Y-137045183D02*
X88652251Y-136881368D01*
X89325183Y-136536066D02*
X89161368Y-136372251D01*
%TO.C,R6*%
X62100276Y-136107500D02*
X62609724Y-136107500D01*
X62100276Y-137152500D02*
X62609724Y-137152500D01*
%TO.C,C28*%
X91592565Y-154368638D02*
X91428750Y-154532453D01*
X92101682Y-154877755D02*
X91937867Y-155041570D01*
D12*
%TO.C,Y1*%
X87612378Y-152352560D02*
X87612378Y-152352560D01*
X87753799Y-152493981D02*
X87753799Y-152493981D01*
D11*
X88460906Y-152635403D02*
X88602327Y-152776824D01*
X89875827Y-151220482D02*
X90017248Y-151361903D01*
D12*
X87612378Y-152352560D02*
G75*
G02*
X87754506Y-152493274I71064J-70357D01*
G01*
X87753799Y-152493981D02*
G75*
G02*
X87613085Y-152351853I-70357J71064D01*
G01*
D10*
%TO.C,R9*%
X81347500Y-138917224D02*
X81347500Y-138407776D01*
X82392500Y-138917224D02*
X82392500Y-138407776D01*
%TO.C,R4*%
X96135419Y-151794345D02*
X95775185Y-151434111D01*
X96874345Y-151055419D02*
X96514111Y-150695185D01*
%TO.C,C20*%
X87896804Y-145688559D02*
X87732989Y-145852374D01*
X88405921Y-146197676D02*
X88242106Y-146361491D01*
%TO.C,C7*%
X100157349Y-147626466D02*
X99993534Y-147462651D01*
X100666466Y-147117349D02*
X100502651Y-146953534D01*
D12*
%TO.C,LED1*%
X69487500Y-143830000D02*
X69487500Y-146205000D01*
X69487500Y-146205000D02*
X71137500Y-146205000D01*
X71137500Y-146205000D02*
X71137500Y-143830000D01*
D10*
%TO.C,C33*%
X78590000Y-143871233D02*
X78590000Y-144163767D01*
X79610000Y-143871233D02*
X79610000Y-144163767D01*
%TO.C,C25*%
X87101256Y-150049396D02*
X87265071Y-149885581D01*
X87610373Y-150558513D02*
X87774188Y-150394698D01*
%TO.C,R5*%
X62100276Y-153347500D02*
X62609724Y-153347500D01*
X62100276Y-154392500D02*
X62609724Y-154392500D01*
D12*
%TO.C,J1*%
X114110001Y-122941666D02*
X116310001Y-122941666D01*
X118310001Y-122941666D02*
X118310001Y-122941666D01*
X118310001Y-122941666D02*
X120510001Y-122941666D01*
D11*
X118350001Y-123921666D02*
X118350001Y-123921666D01*
X118350001Y-124021666D02*
X118350001Y-124021666D01*
X118350001Y-123921666D02*
G75*
G02*
X118350001Y-124021666I0J-50000D01*
G01*
X118350001Y-124021666D02*
G75*
G02*
X118350001Y-123921666I0J50000D01*
G01*
D10*
%TO.C,C16*%
X116742392Y-155589053D02*
X116578577Y-155425238D01*
X117251509Y-155079936D02*
X117087694Y-154916121D01*
D12*
%TO.C,IC3*%
X113528001Y-148047169D02*
X114517950Y-149037118D01*
D10*
%TO.C,R2*%
X101950420Y-149609346D02*
X102310654Y-149969580D01*
X102689346Y-148870420D02*
X103049580Y-149230654D01*
%TO.C,C2*%
X109890682Y-138058894D02*
X110054497Y-137895079D01*
X110399799Y-138568011D02*
X110563614Y-138404196D01*
%TO.C,C34*%
X69744166Y-147990001D02*
X69975836Y-147990001D01*
X69744166Y-148710001D02*
X69975836Y-148710001D01*
D13*
%TO.C,IC2*%
X88449517Y-143502843D02*
G75*
G02*
X88199517Y-143502843I-125000J0D01*
G01*
X88199517Y-143502843D02*
G75*
G02*
X88449517Y-143502843I125000J0D01*
G01*
D10*
%TO.C,C6*%
X111692469Y-147371292D02*
X111856284Y-147535107D01*
X112201586Y-146862175D02*
X112365401Y-147025990D01*
%TO.C,C14*%
X96732251Y-150271368D02*
X96896066Y-150435183D01*
X97241368Y-149762251D02*
X97405183Y-149926066D01*
%TD*%
M02*
