%TF.GenerationSoftware,KiCad,Pcbnew,9.0.7*%
%TF.CreationDate,2026-04-01T20:37:04-04:00*%
%TF.ProjectId,Mixer,4d697865-722e-46b6-9963-61645f706362,rev?*%
%TF.SameCoordinates,Original*%
%TF.FileFunction,Soldermask,Top*%
%TF.FilePolarity,Negative*%
%FSLAX46Y46*%
G04 Gerber Fmt 4.6, Leading zero omitted, Abs format (unit mm)*
G04 Created by KiCad (PCBNEW 9.0.7) date 2026-04-01 20:37:04*
%MOMM*%
%LPD*%
G01*
G04 APERTURE LIST*
G04 Aperture macros list*
%AMRoundRect*
0 Rectangle with rounded corners*
0 $1 Rounding radius*
0 $2 $3 $4 $5 $6 $7 $8 $9 X,Y pos of 4 corners*
0 Add a 4 corners polygon primitive as box body*
4,1,4,$2,$3,$4,$5,$6,$7,$8,$9,$2,$3,0*
0 Add four circle primitives for the rounded corners*
1,1,$1+$1,$2,$3*
1,1,$1+$1,$4,$5*
1,1,$1+$1,$6,$7*
1,1,$1+$1,$8,$9*
0 Add four rect primitives between the rounded corners*
20,1,$1+$1,$2,$3,$4,$5,0*
20,1,$1+$1,$4,$5,$6,$7,0*
20,1,$1+$1,$6,$7,$8,$9,0*
20,1,$1+$1,$8,$9,$2,$3,0*%
G04 Aperture macros list end*
%ADD10C,0.600000*%
%ADD11C,0.601700*%
%ADD12RoundRect,0.175000X-0.040659X-0.288146X0.288146X0.040659X0.040659X0.288146X-0.288146X-0.040659X0*%
%ADD13RoundRect,0.040000X2.800000X-0.750000X2.800000X0.750000X-2.800000X0.750000X-2.800000X-0.750000X0*%
%ADD14RoundRect,0.040000X2.450000X-0.800000X2.450000X0.800000X-2.450000X0.800000X-2.450000X-0.800000X0*%
%ADD15RoundRect,0.175000X-0.232500X-0.175000X0.232500X-0.175000X0.232500X0.175000X-0.232500X0.175000X0*%
%ADD16RoundRect,0.257500X0.408354X-0.044194X-0.044194X0.408354X-0.408354X0.044194X0.044194X-0.408354X0*%
%ADD17RoundRect,0.040000X0.150000X0.155000X-0.150000X0.155000X-0.150000X-0.155000X0.150000X-0.155000X0*%
%ADD18RoundRect,0.040000X-0.150000X-0.155000X0.150000X-0.155000X0.150000X0.155000X-0.150000X0.155000X0*%
%ADD19RoundRect,0.175000X-0.288146X0.040659X0.040659X-0.288146X0.288146X-0.040659X-0.040659X0.288146X0*%
%ADD20RoundRect,0.040000X0.654074X0.335876X0.335876X0.654074X-0.654074X-0.335876X-0.335876X-0.654074X0*%
%ADD21RoundRect,0.040000X0.152028X-1.446033X1.446033X-0.152028X-0.152028X1.446033X-1.446033X0.152028X0*%
%ADD22RoundRect,0.040000X-0.400000X0.175000X-0.400000X-0.175000X0.400000X-0.175000X0.400000X0.175000X0*%
%ADD23RoundRect,0.040000X0.875000X1.250000X-0.875000X1.250000X-0.875000X-1.250000X0.875000X-1.250000X0*%
%ADD24RoundRect,0.257500X-0.372999X0.008839X0.008839X-0.372999X0.372999X-0.008839X-0.008839X0.372999X0*%
%ADD25RoundRect,0.040000X-0.750000X-2.800000X0.750000X-2.800000X0.750000X2.800000X-0.750000X2.800000X0*%
%ADD26RoundRect,0.040000X-0.800000X-2.450000X0.800000X-2.450000X0.800000X2.450000X-0.800000X2.450000X0*%
%ADD27RoundRect,0.175000X0.288146X-0.040659X-0.040659X0.288146X-0.288146X0.040659X0.040659X-0.288146X0*%
%ADD28C,2.680000*%
%ADD29C,4.480000*%
%ADD30RoundRect,0.175000X0.175000X-0.232500X0.175000X0.232500X-0.175000X0.232500X-0.175000X-0.232500X0*%
%ADD31RoundRect,0.175000X0.040659X0.288146X-0.288146X-0.040659X-0.040659X-0.288146X0.288146X0.040659X0*%
%ADD32RoundRect,0.040000X-0.600000X-0.700000X0.600000X-0.700000X0.600000X0.700000X-0.600000X0.700000X0*%
%ADD33RoundRect,0.257500X-0.270000X-0.257500X0.270000X-0.257500X0.270000X0.257500X-0.270000X0.257500X0*%
%ADD34C,0.730000*%
%ADD35RoundRect,0.040000X-0.575000X0.300000X-0.575000X-0.300000X0.575000X-0.300000X0.575000X0.300000X0*%
%ADD36RoundRect,0.040000X-0.575000X0.150000X-0.575000X-0.150000X0.575000X-0.150000X0.575000X0.150000X0*%
%ADD37RoundRect,0.040000X-1.000000X-1.090000X1.000000X-1.090000X1.000000X1.090000X-1.000000X1.090000X0*%
%ADD38RoundRect,0.175000X0.232500X0.175000X-0.232500X0.175000X-0.232500X-0.175000X0.232500X-0.175000X0*%
%ADD39RoundRect,0.257500X0.257500X-0.320000X0.257500X0.320000X-0.257500X0.320000X-0.257500X-0.320000X0*%
%ADD40RoundRect,0.257500X0.257500X-0.270000X0.257500X0.270000X-0.257500X0.270000X-0.257500X-0.270000X0*%
%ADD41RoundRect,0.257500X-0.044194X-0.408354X0.408354X0.044194X0.044194X0.408354X-0.408354X-0.044194X0*%
%ADD42RoundRect,0.040000X0.175000X0.425000X-0.175000X0.425000X-0.175000X-0.425000X0.175000X-0.425000X0*%
%ADD43RoundRect,0.040000X0.425000X-0.175000X0.425000X0.175000X-0.425000X0.175000X-0.425000X-0.175000X0*%
%ADD44RoundRect,0.040000X1.675000X-1.675000X1.675000X1.675000X-1.675000X1.675000X-1.675000X-1.675000X0*%
%ADD45RoundRect,0.040000X0.123744X-0.724784X0.724784X-0.123744X-0.123744X0.724784X-0.724784X0.123744X0*%
%ADD46RoundRect,0.257500X0.372999X-0.008839X-0.008839X0.372999X-0.372999X0.008839X0.008839X-0.372999X0*%
%ADD47RoundRect,0.040000X0.475000X-0.425000X0.475000X0.425000X-0.475000X0.425000X-0.475000X-0.425000X0*%
%ADD48RoundRect,0.257500X-0.257500X0.320000X-0.257500X-0.320000X0.257500X-0.320000X0.257500X0.320000X0*%
%ADD49RoundRect,0.040000X0.750000X2.800000X-0.750000X2.800000X-0.750000X-2.800000X0.750000X-2.800000X0*%
%ADD50RoundRect,0.040000X0.800000X2.450000X-0.800000X2.450000X-0.800000X-2.450000X0.800000X-2.450000X0*%
%ADD51RoundRect,0.040000X0.335876X-0.654074X0.654074X-0.335876X-0.335876X0.654074X-0.654074X0.335876X0*%
%ADD52RoundRect,0.040000X-1.446033X-0.152028X-0.152028X-1.446033X1.446033X0.152028X0.152028X1.446033X0*%
%ADD53RoundRect,0.040000X0.424264X0.212132X0.212132X0.424264X-0.424264X-0.212132X-0.212132X-0.424264X0*%
%ADD54RoundRect,0.040000X0.212132X-0.424264X0.424264X-0.212132X-0.212132X0.424264X-0.424264X0.212132X0*%
%ADD55RoundRect,0.040000X0.000000X-3.252691X3.252691X0.000000X0.000000X3.252691X-3.252691X0.000000X0*%
G04 APERTURE END LIST*
D10*
X114482595Y-150734176D02*
X114482595Y-151193794D01*
X116738266Y-153909084D02*
X116745337Y-153909084D01*
X116630000Y-134678333D02*
X117929309Y-133379025D01*
X117190814Y-153442395D02*
X117212028Y-153442394D01*
D11*
X117316326Y-155653870D02*
X117316326Y-165653672D01*
X118182532Y-153182532D02*
X117060000Y-152060000D01*
X106468000Y-138404828D02*
X106468000Y-138070828D01*
D10*
X116268039Y-152519620D02*
X117190814Y-153442395D01*
X114844555Y-135544539D02*
X114384936Y-135544539D01*
D11*
X106696000Y-137842828D02*
X106810000Y-137842828D01*
D10*
X111683788Y-137786068D02*
X111683788Y-137807281D01*
D11*
X107038000Y-138070828D02*
X107038000Y-138404828D01*
D10*
X112241067Y-148492646D02*
X112241067Y-148485575D01*
X113156769Y-149408350D02*
X112241067Y-148492646D01*
X112599491Y-136870364D02*
X113925316Y-135544539D01*
X116612322Y-132857533D02*
X116612322Y-132850462D01*
X114384936Y-136004159D02*
X114384936Y-135544539D01*
X116268039Y-152519620D02*
X114942215Y-151193794D01*
D11*
X109858489Y-145028195D02*
X111627652Y-146797358D01*
X117060000Y-152060000D02*
X116727659Y-152060000D01*
X117324732Y-130992539D02*
X117324732Y-120956398D01*
X100204938Y-138632828D02*
X106240000Y-138632828D01*
X109858489Y-145028195D02*
X111627652Y-146797358D01*
D10*
X114384936Y-135084920D02*
X114384936Y-135544539D01*
X113925316Y-135544539D02*
X114384936Y-135544539D01*
X112157550Y-138231545D02*
X112157550Y-138238616D01*
D11*
X106468000Y-138070828D02*
G75*
G02*
X106696000Y-137842800I228000J28D01*
G01*
X108151383Y-144321089D02*
X97170000Y-144321089D01*
X106810000Y-137842828D02*
G75*
G02*
X107037972Y-138070828I0J-227972D01*
G01*
X115251142Y-133299475D02*
X116522166Y-132028451D01*
D10*
X112599491Y-136870364D02*
X111683788Y-137786068D01*
D11*
X106468000Y-138404828D02*
G75*
G02*
X106240000Y-138632800I-228000J28D01*
G01*
X107816953Y-138632828D02*
X109825865Y-138632828D01*
X108151383Y-144321089D02*
G75*
G02*
X109858496Y-145028187I17J-2414211D01*
G01*
D10*
X114022976Y-151193794D02*
X114482595Y-151193794D01*
D11*
X112430218Y-147762559D02*
X112430218Y-147599924D01*
D10*
X115808421Y-152979239D02*
X114482595Y-151653415D01*
X113059111Y-137329984D02*
X114384936Y-136004159D01*
X113156769Y-149408350D02*
X114482595Y-150734176D01*
X113059111Y-137329984D02*
X112157550Y-138231545D01*
X111781447Y-148952267D02*
X111781447Y-148945196D01*
X117929309Y-133379025D02*
X118106085Y-133379025D01*
D11*
X116522166Y-132028451D02*
X116522166Y-131795105D01*
D10*
X115808421Y-152979239D02*
X116738266Y-153909084D01*
X114942215Y-151193794D02*
X114482595Y-151193794D01*
X116170380Y-134218714D02*
X114844555Y-135544539D01*
D11*
X98497831Y-139339934D02*
X96330000Y-141520000D01*
D10*
X115710761Y-133759095D02*
X114384936Y-135084920D01*
D11*
X110628431Y-137830262D02*
X112047948Y-136410745D01*
X107266000Y-138632828D02*
G75*
G02*
X107037972Y-138404828I0J228028D01*
G01*
D10*
X114482595Y-151653415D02*
X114482595Y-151193794D01*
D11*
X107266000Y-138632828D02*
X107380000Y-138632828D01*
X107380000Y-138632828D02*
X107816953Y-138632828D01*
D10*
X112697151Y-149867969D02*
X111781447Y-148952267D01*
X115348800Y-153686347D02*
X115348801Y-153438858D01*
X116513760Y-154851304D02*
X115348800Y-153686347D01*
D11*
X98497831Y-139339934D02*
G75*
G02*
X100204938Y-138632842I1707069J-1707066D01*
G01*
X112047948Y-136410745D02*
X112139872Y-136410745D01*
D10*
X117071942Y-133317153D02*
X117071942Y-133310082D01*
X116170380Y-134218714D02*
X117071942Y-133317153D01*
X112697151Y-149867969D02*
X114022976Y-151193794D01*
D11*
X113616390Y-148948730D02*
X112430218Y-147762559D01*
X118908651Y-132576459D02*
X128906459Y-132576459D01*
X118985098Y-153985098D02*
X128964902Y-153985098D01*
D10*
X115710761Y-133759095D02*
X116612322Y-132857533D01*
D12*
%TO.C,C26*%
X91434644Y-153366904D03*
X92237210Y-152564338D03*
%TD*%
D13*
%TO.C,J3*%
X128980000Y-153970000D03*
D14*
X129330000Y-158230000D03*
X129330000Y-149710000D03*
%TD*%
D12*
%TO.C,C9*%
X96968717Y-139401283D03*
X97771283Y-138598717D03*
%TD*%
D15*
%TO.C,C1*%
X98692500Y-142710000D03*
X99827500Y-142710000D03*
%TD*%
D16*
%TO.C,C23*%
X88289880Y-137869880D03*
X87070120Y-136650120D03*
%TD*%
D17*
%TO.C,D2*%
X64650000Y-144495000D03*
X64650000Y-144065000D03*
%TD*%
D18*
%TO.C,D1*%
X64650000Y-145985000D03*
X64650000Y-146415000D03*
%TD*%
D12*
%TO.C,C3*%
X116522166Y-131795105D03*
X117324732Y-130992539D03*
%TD*%
D19*
%TO.C,C10*%
X95918717Y-146618717D03*
X96721283Y-147421283D03*
%TD*%
%TO.C,C13*%
X118182532Y-153182532D03*
X118985098Y-153985098D03*
%TD*%
D20*
%TO.C,IC1*%
X112139872Y-136410745D03*
X112599491Y-136870364D03*
X113059111Y-137329984D03*
X113518730Y-137789603D03*
X116630000Y-134678333D03*
X116170381Y-134218714D03*
X115710761Y-133759094D03*
X115251142Y-133299475D03*
D21*
X114384936Y-135544539D03*
%TD*%
D22*
%TO.C,IC4*%
X77230000Y-142860000D03*
X77230000Y-142210000D03*
X77230000Y-141560000D03*
X77230000Y-140910000D03*
X74230000Y-140910000D03*
X74230000Y-141560000D03*
X74230000Y-142210000D03*
X74230000Y-142860000D03*
D23*
X75730000Y-141885000D03*
%TD*%
D19*
%TO.C,C24*%
X91728717Y-148168717D03*
X92531283Y-148971283D03*
%TD*%
D24*
%TO.C,R3*%
X97574765Y-148670000D03*
X98865235Y-149960470D03*
%TD*%
D25*
%TO.C,J4*%
X117270000Y-165699999D03*
D26*
X113010000Y-166049999D03*
X121530000Y-166049999D03*
%TD*%
D27*
%TO.C,C17*%
X96000000Y-152810000D03*
X95197434Y-152007434D03*
%TD*%
D12*
%TO.C,C27*%
X86237409Y-149824298D03*
X87039975Y-149021732D03*
%TD*%
D28*
%TO.C,H1*%
X128050000Y-120940000D03*
D29*
X128050000Y-120940000D03*
%TD*%
D30*
%TO.C,C32*%
X80480000Y-142967500D03*
X80480000Y-141832500D03*
%TD*%
%TO.C,C31*%
X72770000Y-140507500D03*
X72770000Y-139372500D03*
%TD*%
D31*
%TO.C,C12*%
X89878238Y-147123742D03*
X89075672Y-147926308D03*
%TD*%
D32*
%TO.C,Y2*%
X68950000Y-150960000D03*
X68950000Y-153160000D03*
X70650000Y-153160000D03*
X70650000Y-150960000D03*
%TD*%
D33*
%TO.C,R1*%
X102877500Y-141710000D03*
X104702500Y-141710000D03*
%TD*%
D13*
%TO.C,J2*%
X128930000Y-132600000D03*
D14*
X129280000Y-136860000D03*
X129280000Y-128340000D03*
%TD*%
D34*
%TO.C,J5*%
X61330000Y-142360000D03*
X61330000Y-148140000D03*
D35*
X62405000Y-142050000D03*
X62405000Y-142850000D03*
D36*
X62405000Y-144000000D03*
X62405000Y-145000000D03*
X62405000Y-145500000D03*
X62405000Y-146500000D03*
D35*
X62405000Y-148450000D03*
X62405000Y-147650000D03*
D36*
X62405000Y-147000000D03*
X62405000Y-146000000D03*
X62405000Y-144500000D03*
X62405000Y-143500000D03*
D37*
X61830000Y-140140000D03*
X61830000Y-150360000D03*
X57900000Y-140140000D03*
X57900000Y-150360000D03*
%TD*%
D15*
%TO.C,C5*%
X100207500Y-141460000D03*
X101342500Y-141460000D03*
%TD*%
D16*
%TO.C,C18*%
X90129880Y-135969880D03*
X88910120Y-134750120D03*
%TD*%
D38*
%TO.C,C35*%
X70407500Y-155810000D03*
X69272500Y-155810000D03*
%TD*%
D27*
%TO.C,C8*%
X88361283Y-139791283D03*
X87558717Y-138988717D03*
%TD*%
D31*
%TO.C,C4*%
X118908651Y-132576459D03*
X118106085Y-133379025D03*
%TD*%
D39*
%TO.C,C30*%
X66850000Y-142822500D03*
X66850000Y-141097500D03*
%TD*%
D19*
%TO.C,C11*%
X94278717Y-148148717D03*
X95081283Y-148951283D03*
%TD*%
D40*
%TO.C,R7*%
X81870000Y-143052500D03*
X81870000Y-141227500D03*
%TD*%
D33*
%TO.C,R8*%
X72327500Y-145560000D03*
X74152500Y-145560000D03*
%TD*%
D41*
%TO.C,C21*%
X95220120Y-137269880D03*
X96439880Y-136050120D03*
%TD*%
D42*
%TO.C,IC5*%
X74480000Y-153490000D03*
X75130000Y-153490000D03*
X75780000Y-153490000D03*
X76430000Y-153490000D03*
X77080000Y-153490000D03*
D43*
X78230000Y-152340000D03*
X78230000Y-151690000D03*
X78230000Y-151040000D03*
X78230000Y-150390000D03*
X78230000Y-149740000D03*
D42*
X77080000Y-148590000D03*
X76430000Y-148590000D03*
X75780000Y-148590000D03*
X75130000Y-148590000D03*
X74480000Y-148590000D03*
D43*
X73330000Y-149740000D03*
X73330000Y-150390000D03*
X73330000Y-151040000D03*
X73330000Y-151690000D03*
X73330000Y-152340000D03*
D44*
X75780000Y-151040000D03*
%TD*%
D15*
%TO.C,C29*%
X75112500Y-147060000D03*
X76247500Y-147060000D03*
%TD*%
D27*
%TO.C,C22*%
X87611283Y-140571283D03*
X86808717Y-139768717D03*
%TD*%
D12*
%TO.C,C19*%
X96238717Y-138661283D03*
X97041283Y-137858717D03*
%TD*%
D27*
%TO.C,C15*%
X89390000Y-137110000D03*
X88587434Y-136307434D03*
%TD*%
D33*
%TO.C,R6*%
X61442500Y-136630000D03*
X63267500Y-136630000D03*
%TD*%
D28*
%TO.C,H3*%
X59300000Y-165730000D03*
D29*
X59300000Y-165730000D03*
%TD*%
D31*
%TO.C,C28*%
X92166499Y-154303821D03*
X91363933Y-155106387D03*
%TD*%
D45*
%TO.C,Y1*%
X88239581Y-151848393D03*
X89389337Y-152998149D03*
X90237865Y-152149620D03*
X89088110Y-150999865D03*
%TD*%
D40*
%TO.C,R9*%
X81870000Y-139575000D03*
X81870000Y-137750000D03*
%TD*%
D46*
%TO.C,R4*%
X96970000Y-151890000D03*
X95679530Y-150599530D03*
%TD*%
D31*
%TO.C,C20*%
X88470738Y-145623742D03*
X87668172Y-146426308D03*
%TD*%
D27*
%TO.C,C7*%
X100731283Y-147691283D03*
X99928717Y-146888717D03*
%TD*%
D47*
%TO.C,LED1*%
X70312500Y-145430000D03*
X70312500Y-143830000D03*
%TD*%
D28*
%TO.C,H2*%
X128050000Y-165730000D03*
D29*
X128050000Y-165730000D03*
%TD*%
D48*
%TO.C,C33*%
X79100000Y-143155000D03*
X79100000Y-144880000D03*
%TD*%
D12*
%TO.C,C25*%
X87036439Y-150623330D03*
X87839005Y-149820764D03*
%TD*%
D33*
%TO.C,R5*%
X61442500Y-153870000D03*
X63267500Y-153870000D03*
%TD*%
D49*
%TO.C,J1*%
X117310001Y-120941666D03*
D50*
X121570001Y-120591666D03*
X113050001Y-120591666D03*
%TD*%
D27*
%TO.C,C16*%
X117316326Y-155653870D03*
X116513760Y-154851304D03*
%TD*%
D51*
%TO.C,IC3*%
X113616389Y-148948730D03*
X113156770Y-149408349D03*
X112697150Y-149867969D03*
X112237531Y-150327588D03*
X115348801Y-153438858D03*
X115808420Y-152979239D03*
X116268040Y-152519619D03*
X116727659Y-152060000D03*
D52*
X114482595Y-151193794D03*
%TD*%
D24*
%TO.C,R2*%
X101854765Y-148774765D03*
X103145235Y-150065235D03*
%TD*%
D12*
%TO.C,C2*%
X109825865Y-138632828D03*
X110628431Y-137830262D03*
%TD*%
D28*
%TO.C,H4*%
X59300000Y-120940000D03*
D29*
X59300000Y-120940000D03*
%TD*%
D15*
%TO.C,C34*%
X69292501Y-148350001D03*
X70427501Y-148350001D03*
%TD*%
D53*
%TO.C,IC2*%
X89173045Y-143714975D03*
X89526598Y-144068528D03*
X89880152Y-144422082D03*
X90233705Y-144775635D03*
X90587258Y-145129188D03*
X90940812Y-145482742D03*
X91294365Y-145836295D03*
X91647918Y-146189848D03*
X92001472Y-146543402D03*
X92355025Y-146896955D03*
D54*
X93344975Y-146896955D03*
X93698528Y-146543402D03*
X94052082Y-146189848D03*
X94405635Y-145836295D03*
X94759188Y-145482742D03*
X95112742Y-145129188D03*
X95466295Y-144775635D03*
X95819848Y-144422082D03*
X96173402Y-144068528D03*
X96526955Y-143714975D03*
D53*
X96526955Y-142725025D03*
X96173402Y-142371472D03*
X95819848Y-142017918D03*
X95466295Y-141664365D03*
X95112742Y-141310812D03*
X94759188Y-140957258D03*
X94405635Y-140603705D03*
X94052082Y-140250152D03*
X93698528Y-139896598D03*
X93344975Y-139543045D03*
D54*
X92355025Y-139543045D03*
X92001472Y-139896598D03*
X91647918Y-140250152D03*
X91294365Y-140603705D03*
X90940812Y-140957258D03*
X90587258Y-141310812D03*
X90233705Y-141664365D03*
X89880152Y-142017918D03*
X89526598Y-142371472D03*
X89173045Y-142725025D03*
D55*
X92850000Y-143220000D03*
%TD*%
D19*
%TO.C,C6*%
X111627652Y-146797358D03*
X112430218Y-147599924D03*
%TD*%
%TO.C,C14*%
X96667434Y-149697434D03*
X97470000Y-150500000D03*
%TD*%
M02*
