M48
; DRILL file {KiCad 9.0.7} date 2026-04-01T20:37:00-0400
; FORMAT={-:-/ absolute / metric / decimal}
; #@! TF.CreationDate,2026-04-01T20:37:00-04:00
; #@! TF.GenerationSoftware,Kicad,Pcbnew,9.0.7
; #@! TF.FileFunction,Plated,1,4,PTH
FMAT,2
METRIC
; #@! TA.AperFunction,Plated,PTH,ViaDrill
T1C0.200
; #@! TA.AperFunction,Plated,PTH,ViaDrill
T2C0.250
; #@! TA.AperFunction,Plated,PTH,ViaDrill
T3C0.500
; #@! TA.AperFunction,Plated,PTH,ComponentDrill
T4C2.200
%
G90
G05
T1
X56.539Y-117.852
X56.539Y-122.932
X56.539Y-125.472
X56.539Y-128.012
X56.539Y-130.552
X56.539Y-133.092
X56.539Y-143.252
X56.539Y-145.792
X56.539Y-148.332
X56.539Y-155.952
X56.539Y-158.492
X56.539Y-161.032
X56.539Y-163.572
X59.079Y-117.852
X59.079Y-125.472
X59.079Y-128.012
X59.079Y-130.552
X59.079Y-133.092
X59.079Y-143.252
X59.079Y-145.792
X59.079Y-148.332
X59.079Y-155.952
X59.079Y-158.492
X59.079Y-161.032
X61.619Y-117.852
X61.619Y-125.472
X61.619Y-128.012
X61.619Y-130.552
X61.619Y-133.092
X61.619Y-138.172
X61.619Y-155.952
X61.619Y-158.492
X61.619Y-161.032
X64.159Y-117.852
X64.159Y-120.392
X64.159Y-122.932
X64.159Y-125.472
X64.159Y-128.012
X64.159Y-130.552
X64.159Y-133.092
X64.159Y-138.172
X64.159Y-155.952
X64.159Y-158.492
X64.159Y-161.032
X64.159Y-163.572
X64.159Y-166.112
X66.699Y-117.852
X66.699Y-120.392
X66.699Y-122.932
X66.699Y-125.472
X66.699Y-128.012
X66.699Y-130.552
X66.699Y-133.092
X66.699Y-135.632
X66.699Y-138.172
X66.699Y-148.332
X66.699Y-150.872
X66.699Y-153.412
X66.699Y-155.952
X66.699Y-158.492
X66.699Y-161.032
X66.699Y-163.572
X66.699Y-166.112
X68.95Y-154.46
X69.239Y-117.852
X69.239Y-120.392
X69.239Y-122.932
X69.239Y-125.472
X69.239Y-128.012
X69.239Y-130.552
X69.239Y-133.092
X69.239Y-135.632
X69.239Y-138.172
X69.239Y-140.712
X69.239Y-158.492
X69.239Y-161.032
X69.239Y-163.572
X69.239Y-166.112
X69.83Y-152.04
X71.35Y-148.34
X71.779Y-117.852
X71.779Y-120.392
X71.779Y-122.932
X71.779Y-125.472
X71.779Y-128.012
X71.779Y-130.552
X71.779Y-133.092
X71.779Y-135.632
X71.779Y-138.172
X71.779Y-155.952
X71.779Y-158.492
X71.779Y-161.032
X71.779Y-163.572
X71.779Y-166.112
X72.41Y-151.02
X72.63Y-150.39
X73.89Y-153.68
X74.27Y-147.06
X74.319Y-117.852
X74.319Y-120.392
X74.319Y-122.932
X74.319Y-125.472
X74.319Y-128.012
X74.319Y-130.552
X74.319Y-133.092
X74.319Y-135.632
X74.319Y-138.172
X74.319Y-155.952
X74.319Y-158.492
X74.319Y-161.032
X74.319Y-163.572
X74.319Y-166.112
X74.48Y-154.62
X75.12Y-154.59
X75.25Y-140.97
X75.25Y-141.87
X75.25Y-142.77
X75.79Y-155.14
X76.18Y-140.97
X76.18Y-141.87
X76.18Y-142.77
X76.44Y-154.61
X76.859Y-117.852
X76.859Y-120.392
X76.859Y-122.932
X76.859Y-125.472
X76.859Y-128.012
X76.859Y-130.552
X76.859Y-133.092
X76.859Y-135.632
X76.859Y-138.172
X76.859Y-158.492
X76.859Y-161.032
X76.859Y-163.572
X76.859Y-166.112
X77.04Y-147.06
X77.08Y-154.59
X77.08Y-155.2
X77.38Y-145.95
X77.75Y-147.47
X79.28Y-151.7
X79.399Y-117.852
X79.399Y-120.392
X79.399Y-122.932
X79.399Y-125.472
X79.399Y-128.012
X79.399Y-130.552
X79.399Y-133.092
X79.399Y-148.332
X79.399Y-158.492
X79.399Y-161.032
X79.399Y-163.572
X79.399Y-166.112
X81.939Y-117.852
X81.939Y-120.392
X81.939Y-122.932
X81.939Y-125.472
X81.939Y-128.012
X81.939Y-130.552
X81.939Y-158.492
X81.939Y-161.032
X81.939Y-163.572
X81.939Y-166.112
X84.479Y-117.852
X84.479Y-120.392
X84.479Y-122.932
X84.479Y-125.472
X84.479Y-128.012
X84.479Y-153.412
X84.479Y-158.492
X84.479Y-161.032
X84.479Y-163.572
X84.479Y-166.112
X86.06Y-143.05
X86.12Y-139.06
X86.3Y-135.88
X86.87Y-138.3
X87.019Y-117.852
X87.019Y-120.392
X87.019Y-122.932
X87.019Y-125.472
X87.019Y-128.012
X87.019Y-153.412
X87.019Y-158.492
X87.019Y-161.032
X87.019Y-163.572
X87.019Y-166.112
X87.05Y-147.05
X87.78Y-148.46
X87.91Y-135.62
X87.97Y-147.58
X88.13Y-133.98
X88.27Y-142.03
X88.47Y-148.53
X88.51Y-153.92
X88.87Y-141.73
X88.91Y-144.7
X89.035Y-140.465
X89.559Y-117.852
X89.559Y-120.392
X89.559Y-122.932
X89.559Y-125.472
X89.559Y-128.012
X89.559Y-158.492
X89.559Y-161.032
X89.559Y-163.572
X89.559Y-166.112
X89.62Y-145.38
X89.82Y-150.26
X89.89Y-139.8
X90.32Y-132.8
X90.33Y-146.07
X90.56Y-139.84
X90.61Y-146.61
X90.71Y-155.78
X91.16Y-132.85
X91.21Y-131.97
X91.72Y-138.92
X91.85Y-132.87
X91.93Y-149.62
X92.099Y-117.852
X92.099Y-120.392
X92.099Y-122.932
X92.099Y-125.472
X92.099Y-128.012
X92.099Y-135.632
X92.099Y-158.492
X92.099Y-161.032
X92.099Y-163.572
X92.099Y-166.112
X92.85Y-147.63
X93.04Y-133.05
X93.08Y-133.66
X93.7Y-133.49
X94.43Y-149.6
X94.62Y-151.43
X94.639Y-117.852
X94.639Y-120.392
X94.639Y-122.932
X94.639Y-125.472
X94.639Y-128.012
X94.639Y-135.632
X94.639Y-158.492
X94.639Y-161.032
X94.639Y-163.572
X94.639Y-166.112
X94.82Y-146.95
X95.04Y-146.47
X95.375Y-147.185
X95.81Y-140.62
X96.05Y-139.93
X96.13Y-148.0
X97.179Y-117.852
X97.179Y-120.392
X97.179Y-122.932
X97.179Y-125.472
X97.179Y-128.012
X97.179Y-130.552
X97.179Y-158.492
X97.179Y-161.032
X97.179Y-163.572
X97.179Y-166.112
X97.23Y-135.26
X97.39Y-142.72
X97.65Y-137.25
X97.887Y-143.753
X98.08Y-151.12
X98.26Y-135.24
X98.38Y-137.99
X98.46Y-143.76
X98.91Y-137.28
X99.22Y-148.77
X99.719Y-117.852
X99.719Y-120.392
X99.719Y-122.932
X99.719Y-125.472
X99.719Y-128.012
X99.719Y-130.552
X99.719Y-133.092
X99.719Y-135.632
X99.719Y-155.952
X99.719Y-158.492
X99.719Y-161.032
X99.719Y-163.572
X99.719Y-166.112
X100.69Y-142.71
X102.259Y-117.852
X102.259Y-120.392
X102.259Y-122.932
X102.259Y-125.472
X102.259Y-128.012
X102.259Y-130.552
X102.259Y-133.092
X102.259Y-135.632
X102.259Y-143.252
X102.259Y-145.792
X102.259Y-153.412
X102.259Y-155.952
X102.259Y-158.492
X102.259Y-161.032
X102.259Y-163.572
X102.259Y-166.112
X103.96Y-150.89
X104.71Y-142.76
X104.799Y-117.852
X104.799Y-120.392
X104.799Y-122.932
X104.799Y-125.472
X104.799Y-128.012
X104.799Y-130.552
X104.799Y-133.092
X104.799Y-135.632
X104.799Y-145.792
X104.799Y-148.332
X104.799Y-153.412
X104.799Y-155.952
X104.799Y-158.492
X104.799Y-161.032
X104.799Y-163.572
X104.799Y-166.112
X107.339Y-117.852
X107.339Y-120.392
X107.339Y-122.932
X107.339Y-125.472
X107.339Y-128.012
X107.339Y-130.552
X107.339Y-133.092
X107.339Y-135.632
X107.339Y-140.712
X107.339Y-143.252
X107.339Y-145.792
X107.339Y-148.332
X107.339Y-150.872
X107.339Y-153.412
X107.339Y-155.952
X107.339Y-158.492
X107.339Y-161.032
X107.339Y-163.572
X107.339Y-166.112
X109.879Y-117.852
X109.879Y-120.392
X109.879Y-122.932
X109.879Y-125.472
X109.879Y-128.012
X109.879Y-130.552
X109.879Y-133.092
X109.879Y-135.632
X109.879Y-140.712
X109.879Y-143.252
X109.879Y-148.332
X109.879Y-150.872
X109.879Y-153.412
X109.879Y-155.952
X109.879Y-158.492
X109.879Y-161.032
X109.879Y-163.572
X109.879Y-166.112
X111.684Y-137.807
X111.781Y-148.945
X112.158Y-138.239
X112.241Y-148.486
X112.419Y-128.012
X112.419Y-130.552
X112.419Y-133.092
X112.419Y-140.712
X112.419Y-143.252
X112.419Y-153.412
X112.419Y-155.952
X112.419Y-158.492
X114.959Y-117.852
X114.959Y-120.392
X114.959Y-122.932
X114.959Y-125.472
X114.959Y-128.012
X114.959Y-130.552
X114.959Y-138.172
X114.959Y-140.712
X114.959Y-143.252
X114.959Y-145.792
X114.959Y-148.332
X114.959Y-155.952
X114.959Y-158.492
X114.959Y-161.032
X114.959Y-163.572
X114.959Y-166.112
X116.612Y-132.85
X116.745Y-153.909
X117.072Y-133.31
X117.212Y-153.442
X117.499Y-135.632
X117.499Y-138.172
X117.499Y-140.712
X117.499Y-143.252
X117.499Y-145.792
X117.499Y-148.332
X117.499Y-150.872
X120.039Y-117.852
X120.039Y-120.392
X120.039Y-122.932
X120.039Y-128.012
X120.039Y-130.552
X120.039Y-135.632
X120.039Y-138.172
X120.039Y-140.712
X120.039Y-143.252
X120.039Y-145.792
X120.039Y-148.332
X120.039Y-150.872
X120.039Y-155.952
X120.039Y-158.492
X122.579Y-128.012
X122.579Y-130.552
X122.579Y-135.632
X122.579Y-138.172
X122.579Y-140.712
X122.579Y-143.252
X122.579Y-145.792
X122.579Y-148.332
X122.579Y-150.872
X122.579Y-155.952
X122.579Y-158.492
X125.119Y-117.852
X125.119Y-120.392
X125.119Y-122.932
X125.119Y-125.472
X125.119Y-130.552
X125.119Y-140.712
X125.119Y-143.252
X125.119Y-145.792
X125.119Y-155.952
X125.119Y-161.032
X125.119Y-163.572
X125.119Y-166.112
X127.659Y-117.852
X127.659Y-125.472
X127.659Y-130.552
X127.659Y-140.712
X127.659Y-143.252
X127.659Y-145.792
X127.659Y-155.952
X127.659Y-161.032
X130.199Y-117.852
X130.199Y-125.472
X130.199Y-130.552
X130.199Y-140.712
X130.199Y-143.252
X130.199Y-145.792
X130.199Y-155.952
X130.199Y-161.032
T2
X63.96Y-146.42
X63.97Y-144.075
X64.33Y-142.05
X64.45Y-148.46
X64.45Y-153.87
X64.47Y-147.65
X64.52Y-136.62
X65.7Y-141.1
X66.88Y-144.36
X67.98Y-141.1
X71.7Y-143.6
X71.87Y-139.36
X72.38Y-143.6
X72.54Y-141.94
X74.15Y-144.39
X78.16Y-140.91
X80.27Y-144.88
X83.05Y-137.75
T3
X57.89Y-153.2
X57.94Y-137.21
X64.99Y-150.36
X65.17Y-140.14
X112.947Y-161.3
X113.093Y-125.242
X121.477Y-161.33
X121.623Y-125.272
X124.44Y-158.23
X124.47Y-149.7
X124.55Y-136.873
X124.58Y-128.343
T4
X59.3Y-120.94
X59.3Y-165.73
X128.05Y-120.94
X128.05Y-165.73
M30
